<?xml version="1.0" encoding="utf-8"?>
<!-- Generator: Adobe Illustrator 16.0.0, SVG Export Plug-In . SVG Version: 6.00 Build 0)  -->
<!DOCTYPE svg PUBLIC "-//W3C//DTD SVG 1.1//EN" "http://www.w3.org/Graphics/SVG/1.1/DTD/svg11.dtd">
<svg version="1.1" id="Capa_1" xmlns="http://www.w3.org/2000/svg" xmlns:xlink="http://www.w3.org/1999/xlink" x="0px" y="0px"
	 width="166px" height="200px" viewBox="0 0 166 200" enable-background="new 0 0 166 200" xml:space="preserve">
<path fill="#FD003A" d="M83.846,0.048c-41.943,0-76.154,34.21-76.154,76.154c0,16.636,5.272,32.452,15.231,45.692l56.235,75.764
	c0.819,1.171,3.047,2.343,4.688,2.343c1.758,0,3.867-1.289,4.688-2.344c0.232-0.353,56.821-76.583,57.291-77.286
	c0.116,0,0.116,0,0.116-0.116C155.08,107.366,160,92.136,160,76.203C160,34.258,125.789,0.048,83.846,0.048z M83.846,117.207
	c-22.611,0-41.006-18.394-41.006-41.005c0-22.611,18.395-41.006,41.006-41.006s41.006,18.394,41.006,41.006
	C124.852,98.814,106.457,117.207,83.846,117.207z"/>
<path fill="#DD0030" d="M83.846,0v35.148c22.611,0,41.006,18.394,41.006,41.006c0,22.612-18.395,41.006-41.006,41.006v82.792
	c1.758,0,3.867-1.288,4.688-2.343c0.232-0.354,56.821-76.584,57.291-77.287c0.117,0,0.117,0,0.117-0.116
	C155.08,107.318,160,92.087,160,76.154C160,34.21,125.789,0,83.846,0z"/>
</svg>
