<?xml version="1.0" encoding="utf-8"?>
<!-- Generator: Adobe Illustrator 16.0.0, SVG Export Plug-In . SVG Version: 6.00 Build 0)  -->
<!DOCTYPE svg PUBLIC "-//W3C//DTD SVG 1.1//EN" "http://www.w3.org/Graphics/SVG/1.1/DTD/svg11.dtd">
<svg version="1.1" xmlns="http://www.w3.org/2000/svg" xmlns:xlink="http://www.w3.org/1999/xlink" x="0px" y="0px"
	 width="137.215px" height="150px" viewBox="0 0 137.215 150" enable-background="new 0 0 137.215 150" xml:space="preserve">
<g id="Layer_2">
	<g>
		<g>
			<g opacity="0.5">
				
					<image overflow="visible" enable-background="new    " width="1042" height="496" xlink:href="20706C42.png"  transform="matrix(0.1698 0 0 0.1684 -22.5698 83.3218)">
				</image>
			</g>
			<g>
				
					<image overflow="visible" opacity="0.15" enable-background="new    " width="800" height="871" xlink:href="20706C45.png"  transform="matrix(0.1699 0 0 0.1695 1.3071 -0.8306)">
				</image>
				<g>
					<g>
						<g>
							<polygon fill="#B0BEC5" points="52.607,140.74 4.143,109.771 4.143,22.588 52.53,52.036 							"/>
						</g>
						<g>
							<polygon fill="#ECEFF1" points="131.402,117.4 52.647,141.025 52.647,52.036 131.402,32.345 							"/>
						</g>
						<g>
							<polygon fill="#CFD8DC" points="131.402,32.345 52.647,52.036 4.299,22.588 77.852,2.004 							"/>
						</g>
					</g>
				</g>
			</g>
		</g>
	</g>
</g>
<g id="Layer_1">
	<g>
		<g>
			<path fill="#1D1D1B" d="M84.568,99.53c0,0,0.026-0.089,0.075-0.256c0.059-0.17,0.096-0.399,0.239-0.732
				c0.067-0.162,0.141-0.341,0.22-0.537c0.096-0.183,0.196-0.38,0.306-0.592c0.236-0.412,0.535-0.858,0.903-1.31
				c0.38-0.443,0.82-0.899,1.348-1.308c0.513-0.429,1.124-0.783,1.771-1.115c0.658-0.308,1.372-0.556,2.122-0.718
				c0.77-0.142,1.5-0.204,2.355-0.142c0.729,0.125,1.447,0.19,2.202,0.488c0.768,0.204,1.391,0.607,2.042,0.926
				c0.581,0.422,1.196,0.768,1.66,1.239c0.244,0.22,0.481,0.435,0.712,0.642c0.205,0.232,0.4,0.458,0.589,0.674
				c0.396,0.417,0.687,0.854,0.946,1.241c0.131,0.191,0.255,0.372,0.368,0.538c0.095,0.177,0.183,0.34,0.262,0.486
				c0.311,0.592,0.49,0.931,0.49,0.931c0.115,0.22,0.032,0.495-0.189,0.611c-0.214,0.113-0.479,0.037-0.601-0.169l-0.04-0.065
				c0,0-0.182-0.308-0.5-0.843c-0.079-0.133-0.167-0.28-0.264-0.44c-0.114-0.149-0.236-0.31-0.367-0.481
				c-0.26-0.345-0.546-0.735-0.919-1.11c-0.179-0.193-0.364-0.395-0.558-0.604c-0.215-0.183-0.438-0.372-0.666-0.565
				c-0.433-0.421-1.003-0.704-1.523-1.089c-0.576-0.269-1.17-0.644-1.781-0.79c-0.557-0.24-1.33-0.319-2.057-0.433
				c-0.032-0.007,0.096,0.009,0.038,0.002c-0.038-0.002-0.102-0.003-0.102-0.003l-0.125-0.005l-0.248-0.011
				c-0.166-0.014-0.333,0.006-0.5,0.013c-0.334,0.004-0.662,0.071-0.989,0.116c-0.65,0.136-1.275,0.345-1.855,0.607
				c-0.565,0.292-1.116,0.582-1.576,0.946c-0.477,0.347-0.873,0.737-1.219,1.116c-0.334,0.393-0.616,0.77-0.845,1.121
				c-0.105,0.182-0.204,0.352-0.297,0.508c-0.075,0.159-0.143,0.305-0.205,0.437c-0.135,0.25-0.199,0.526-0.261,0.679
				c-0.057,0.164-0.087,0.252-0.087,0.252c-0.089,0.259-0.349,0.383-0.586,0.302C84.626,100.008,84.501,99.761,84.568,99.53z"/>
			<path fill="#1D1D1B" d="M86.422,100.294c0.033,0.07,0.013-0.016-0.012-0.104c-0.031-0.111-0.101-0.188-0.183-0.266
				c-0.149-0.139-0.346-0.229-0.501-0.362c-0.173-0.149-0.313-0.327-0.467-0.493c-0.162-0.181-0.29-0.239-0.385-0.437
				c-0.392-0.83-1.819-0.234-1.485,0.625c0.321,0.83,0.928,1.28,1.785,1.466c0.303,0.066,0.734,0.162,1.021-0.006
				C86.33,100.64,86.486,100.427,86.422,100.294z"/>
			<path fill="#1D1D1B" d="M102.243,101.204c0.785-0.142,1.483-0.458,1.918-1.148c0.322-0.512-0.301-1.058-0.794-0.793
				c-0.552,0.296-0.949,0.766-1.491,1.071C101.381,100.614,101.735,101.297,102.243,101.204z"/>
		</g>
		<g>
			<path fill="#1D1D1B" d="M111.878,74.018c-2.971-0.463-5.75-2.072-7.648-4.403c-0.202-0.249-0.603-0.02-0.493,0.281
				c0.651,1.79,2.011,3.818,3.354,4.521c1.504,0.786,3.271,0.693,4.84,0.05C112.146,74.378,112.108,74.054,111.878,74.018z"/>
			<path fill="#1D1D1B" d="M114.923,86.71c0,0-0.236,0.212-0.668,0.552c-0.206,0.179-0.486,0.361-0.842,0.541
				c-0.178,0.097-0.367,0.197-0.564,0.304c-0.203,0.095-0.424,0.16-0.654,0.247c-0.23,0.075-0.468,0.179-0.726,0.243
				c-0.257,0.061-0.527,0.106-0.805,0.162c-0.277,0.064-0.567,0.091-0.865,0.107c-0.298,0.021-0.604,0.042-0.916,0.04
				c-0.619-0.049-1.272-0.071-1.911-0.252c-0.32-0.079-0.653-0.13-0.96-0.268l-0.473-0.182l-0.235-0.092l-0.118-0.045l-0.06-0.023
				c-0.051-0.021-0.112-0.051-0.112-0.051c-0.537-0.316-1.059-0.552-1.621-1.023c-0.58-0.402-0.998-0.887-1.432-1.335
				c-0.199-0.239-0.378-0.489-0.551-0.732c-0.177-0.241-0.34-0.482-0.464-0.739c-0.135-0.248-0.264-0.491-0.388-0.724
				c-0.113-0.238-0.185-0.49-0.271-0.716c-0.079-0.232-0.169-0.445-0.225-0.66c-0.041-0.218-0.081-0.425-0.119-0.619
				c-0.084-0.382-0.123-0.719-0.117-1.003c-0.014-0.561,0.004-0.87,0.004-0.87s0.146,0.291,0.361,0.781
				c0.092,0.25,0.256,0.533,0.436,0.853c0.087,0.159,0.18,0.328,0.278,0.506c0.112,0.168,0.229,0.344,0.353,0.529
				c0.229,0.375,0.537,0.737,0.847,1.122c0.145,0.199,0.324,0.38,0.513,0.558c0.19,0.175,0.356,0.377,0.553,0.555
				c0.414,0.332,0.819,0.716,1.254,0.981c0.378,0.303,0.978,0.589,1.506,0.885c-0.107-0.055-0.026-0.014-0.048-0.025
				c0.041,0.016,0.091,0.035,0.091,0.035l0.096,0.039l0.192,0.078l0.385,0.157c0.249,0.119,0.52,0.181,0.783,0.259
				c0.521,0.182,1.063,0.245,1.582,0.357c0.263,0.038,0.524,0.04,0.781,0.074c0.257,0.035,0.511,0.058,0.756,0.043
				c0.494-0.005,0.97,0.005,1.404-0.058c0.222-0.021,0.433-0.042,0.634-0.062c0.196-0.036,0.382-0.07,0.557-0.103
				c0.354-0.061,0.682-0.114,0.942-0.207C114.612,86.777,114.923,86.71,114.923,86.71z"/>
			<path fill="#1D1D1B" d="M76.096,74.018c2.97-0.463,5.748-2.072,7.646-4.403c0.203-0.249,0.604-0.02,0.493,0.281
				c-0.651,1.79-2.011,3.818-3.354,4.521c-1.503,0.786-3.271,0.693-4.838,0.05C75.826,74.378,75.863,74.054,76.096,74.018z"/>
			<path fill="#1D1D1B" d="M72.02,84.942c0,0,0.292,0.126,0.777,0.38c0.237,0.143,0.55,0.26,0.883,0.39
				c0.165,0.066,0.341,0.135,0.526,0.21c0.194,0.059,0.396,0.12,0.609,0.187c0.414,0.146,0.882,0.23,1.365,0.332
				c0.239,0.063,0.492,0.09,0.749,0.108c0.259,0.016,0.516,0.067,0.781,0.08c0.532-0.007,1.074,0.038,1.621-0.037
				c0.273-0.025,0.552-0.031,0.821-0.099l0.407-0.078l0.204-0.038l0.103-0.019l0.049-0.01c0.015,0,0.108-0.025-0.006,0.008
				c0.575-0.186,1.221-0.348,1.648-0.571c0.48-0.175,0.954-0.471,1.425-0.714c0.228-0.135,0.43-0.301,0.651-0.436
				c0.221-0.136,0.431-0.278,0.612-0.446c0.38-0.315,0.752-0.61,1.051-0.932c0.158-0.157,0.31-0.307,0.452-0.45
				c0.132-0.155,0.256-0.302,0.372-0.44c0.239-0.279,0.457-0.523,0.597-0.75c0.306-0.438,0.508-0.694,0.508-0.694
				s-0.045,0.307-0.168,0.854c-0.051,0.279-0.155,0.602-0.313,0.959c-0.076,0.184-0.155,0.378-0.239,0.583
				c-0.098,0.198-0.228,0.391-0.35,0.604c-0.131,0.205-0.25,0.436-0.408,0.647c-0.169,0.205-0.343,0.417-0.522,0.634
				c-0.174,0.227-0.38,0.43-0.602,0.632c-0.217,0.205-0.442,0.414-0.684,0.609c-0.515,0.354-1.02,0.748-1.668,1.025
				c-0.645,0.352-1.201,0.48-1.791,0.684l-0.066,0.017c-0.055,0.01-0.116,0.021-0.116,0.021l-0.125,0.022l-0.25,0.044l-0.498,0.085
				c-0.33,0.075-0.666,0.059-0.995,0.074c-0.662,0.051-1.306-0.057-1.923-0.131c-0.307-0.059-0.603-0.141-0.89-0.22
				c-0.289-0.074-0.568-0.158-0.828-0.278c-0.261-0.108-0.517-0.207-0.755-0.315c-0.239-0.112-0.454-0.262-0.664-0.382
				c-0.208-0.13-0.413-0.238-0.592-0.37c-0.175-0.145-0.339-0.281-0.494-0.41c-0.314-0.248-0.552-0.482-0.72-0.698
				C72.21,85.197,72.02,84.942,72.02,84.942z"/>
		</g>
	</g>
</g>
</svg>
