<?xml version="1.0" encoding="utf-8"?>
<!-- Generator: Adobe Illustrator 16.0.0, SVG Export Plug-In . SVG Version: 6.00 Build 0)  -->
<!DOCTYPE svg PUBLIC "-//W3C//DTD SVG 1.1//EN" "http://www.w3.org/Graphics/SVG/1.1/DTD/svg11.dtd">
<svg version="1.1" id="Capa_1" xmlns="http://www.w3.org/2000/svg" xmlns:xlink="http://www.w3.org/1999/xlink" x="0px" y="0px"
	 width="512px" height="512px" viewBox="0 0 512 512" enable-background="new 0 0 512 512" xml:space="preserve">
<g>
	<path fill="#FDD835" d="M500.759,256.431c-0.233,138.083-112.243,249.948-250.379,249.948c-78.944,0-149.355-36.534-195.246-93.62
		V281.784c0-29.605-24-53.606-53.605-53.606C15.37,102.968,121.54,5.586,250.449,5.621
		C388.436,5.659,500.99,118.445,500.759,256.431L500.759,256.431z"/>
	<path fill="#FBC02D" d="M500.759,256c0,1.992-0.023,3.98-0.069,5.961c-27.487,78.23-102.013,134.316-189.639,134.316
		c-110.981,0-200.949-89.968-200.949-200.949c0-87.625,56.086-162.151,134.316-189.638c1.981-0.046,3.968-0.07,5.961-0.07
		C388.66,5.621,500.759,117.719,500.759,256z"/>
	<path fill="#A95947" d="M287.734,155.373l-10.933,98.609h9.134v142.297h-49.834H99.693v-151.62h77.172
		c21.712,0,40.711-14.601,46.299-35.582l22.383-84.044c1.782-6.693,8.653-10.673,15.346-8.891
		C278.31,120.783,289.719,137.458,287.734,155.373L287.734,155.373z"/>
	<path fill="#7D402D" d="M205.924,300.966c0-4.233,3.431-7.665,7.665-7.665c35.22,0,63.872-28.652,63.872-63.872
		c0-4.234,3.431-7.665,7.665-7.665c4.233,0,7.665,3.431,7.665,7.665c0,43.671-35.531,79.202-79.202,79.202
		C209.355,308.631,205.924,305.2,205.924,300.966z M108.591,396.279h176.535v-33.996H108.591V396.279z"/>
	<path fill="#01BFF9" d="M108.591,244.659v151.62c0,9.102-7.378,16.479-16.48,16.479H55.133C20.642,369.852,0,315.337,0,256
		c0-9.404,0.518-18.687,1.529-27.822h90.582C101.213,228.178,108.591,235.558,108.591,244.659z"/>
	<path fill="#05A2F9" d="M108.591,379.799v16.48c0,9.102-7.378,16.479-16.48,16.479H55.133
		c-12.167-15.135-22.61-31.715-31.033-49.441h68.01C101.213,363.317,108.591,370.696,108.591,379.799L108.591,379.799z"/>
	<path fill="#91CEFB" d="M75.631,416.698V224.239c0-6.926,5.615-12.541,12.541-12.541h24.359c6.926,0,12.541,5.615,12.541,12.541
		v192.459c0,6.926-5.615,12.541-12.541,12.541H88.171C81.246,429.24,75.631,423.624,75.631,416.698z"/>
	<path fill="#C7EEFD" d="M75.631,367.257V224.239c0-6.926,5.615-12.541,12.541-12.541h24.359c6.926,0,12.541,5.615,12.541,12.541
		v143.018c0,6.927-5.615,12.541-12.541,12.541H88.171C81.246,379.799,75.631,374.184,75.631,367.257z"/>
	<path fill="#00429A" d="M486.918,119.095v12.541h2.508c5.541,0,10.033,4.491,10.033,10.032v17.557
		c0,5.542-4.492,10.033-10.033,10.033h-2.508v250.818c0,10.389-8.422,18.812-18.811,18.812H279.994
		c-10.389,0-18.811-8.423-18.811-18.812V43.849c0-10.389,8.422-18.811,18.811-18.811h188.113c10.389,0,18.811,8.422,18.811,18.811
		v37.622h2.508c5.541,0,10.033,4.492,10.033,10.033v17.557c0,5.541-4.492,10.033-10.033,10.033L486.918,119.095L486.918,119.095z"/>
	<path fill="#003278" d="M317.617,438.886h-37.623c-10.389,0-18.811-8.422-18.811-18.811V43.849
		c0-10.389,8.422-18.811,18.811-18.811h37.623c-10.39,0-18.812,8.422-18.812,18.811v376.226
		C298.806,430.464,307.228,438.886,317.617,438.886z M399.132,37.578h-50.163c-3.464,0-6.271,2.808-6.271,6.271
		s2.808,6.271,6.271,6.271h50.163c3.464,0,6.271-2.807,6.271-6.271S402.596,37.578,399.132,37.578z M386.592,413.805
		c0,6.926-5.615,12.54-12.541,12.54s-12.54-5.614-12.54-12.54s5.614-12.541,12.54-12.541S386.592,406.879,386.592,413.805z"/>
	<path fill="#FDF7BD" d="M461.836,68.931v300.98c0,3.464-2.807,6.271-6.271,6.271h-163.03c-3.464,0-6.271-2.807-6.271-6.271V68.931
		c0-3.463,2.808-6.271,6.271-6.271h163.031C459.029,62.66,461.836,65.468,461.836,68.931z"/>
	<path fill="#A95947" d="M503.457,247.114c5.041,2.301,8.543,7.386,8.543,13.287v17.226c0,5.901-3.502,10.986-8.543,13.287
		c5.041,2.302,8.543,7.386,8.543,13.287v17.226c0,5.901-3.502,10.986-8.543,13.287c5.04,2.302,8.543,7.386,8.543,13.288v17.225
		c0,8.063-6.536,14.601-14.601,14.601h-33.038c-12.498,0-23.254-9.604-23.843-22.091c-0.504-10.69,6.229-19.886,15.722-23.108
		c-8.726-3.097-15.267-11.031-15.722-20.692c-0.504-10.69,6.229-19.887,15.722-23.108c-8.726-3.097-15.267-11.032-15.722-20.692
		c-0.504-10.69,6.229-19.886,15.722-23.108c-8.726-3.097-15.267-11.032-15.722-20.691c-0.629-13.33,9.993-24.336,23.186-24.336
		h33.694c8.063,0,14.601,6.536,14.601,14.601v17.225C512,239.729,508.498,244.813,503.457,247.114L503.457,247.114z"/>
	<path fill="#F3D373" d="M332.744,290.746h82.612c2.822,0,5.11-2.287,5.11-5.109v-5.109c0-2.822-2.288-5.11-5.11-5.11h-82.612
		c-2.822,0-5.11,2.288-5.11,5.11v5.109C327.634,288.459,329.922,290.746,332.744,290.746L332.744,290.746z M351.553,316.295h44.996
		c2.821,0,5.109-2.288,5.109-5.109v-5.109c0-2.822-2.288-5.11-5.109-5.11h-44.996c-2.821,0-5.109,2.288-5.109,5.11v5.109
		C346.443,314.007,348.731,316.295,351.553,316.295z"/>
	<path fill="#F52C2C" d="M348.073,341.845c0-5.645,4.575-10.22,10.22-10.22h31.515c5.645,0,10.22,4.575,10.22,10.22
		c0,5.644-4.575,10.219-10.22,10.219h-31.515C352.649,352.063,348.073,347.488,348.073,341.845z"/>
	<path fill="#954D3B" d="M511.644,344.779c0.233,1.037,0.356,2.115,0.356,3.224v17.225c0,8.063-6.536,14.601-14.601,14.601h-33.038
		c-12.498,0-23.254-9.604-23.843-22.091c-0.226-4.776,0.994-9.256,3.26-13.035c4.204,6.907,11.98,11.456,20.583,11.456h33.038
		C504.356,356.158,510.176,351.293,511.644,344.779L511.644,344.779z M497.399,225.213h-33.038c-8.695,0-16.547-4.649-20.719-11.683
		c-2.178,3.731-3.344,8.125-3.124,12.806c0.455,9.659,6.996,17.595,15.722,20.691c2.342-0.795,4.854-1.227,7.464-1.227h33.694
		c2.161,0,4.212,0.47,6.058,1.313c5.041-2.302,8.543-7.386,8.543-13.288v-17.225c0-1.026-0.106-2.027-0.308-2.994
		C510.312,220.234,504.438,225.213,497.399,225.213z M511.692,301.209c-1.382,6.627-7.256,11.605-14.293,11.605h-33.038
		c-8.695,0-16.547-4.648-20.719-11.683c-2.178,3.731-3.344,8.125-3.124,12.806c0.455,9.66,6.996,17.596,15.722,20.692
		c2.342-0.795,4.854-1.227,7.464-1.227h33.694c2.161,0,4.212,0.47,6.058,1.312c5.04-2.301,8.543-7.386,8.543-13.287v-17.225
		C512,303.176,511.894,302.175,511.692,301.209L511.692,301.209z M497.399,268.357h-33.038c-8.561,0-16.304-4.507-20.521-11.357
		c-2.304,3.801-3.549,8.317-3.32,13.136c0.455,9.659,6.996,17.595,15.722,20.692c2.342-0.795,4.854-1.227,7.464-1.227h33.694
		c2.161,0,4.212,0.469,6.058,1.312c5.041-2.302,8.543-7.386,8.543-13.288V260.4c0-1.143-0.132-2.256-0.38-3.321
		C510.116,263.542,504.32,268.357,497.399,268.357L497.399,268.357z"/>
	<path fill="#E1A595" d="M486.918,296.902v16.35c0,4.031-3.268,7.3-7.3,7.3h-9.05c-8.063,0-14.601-6.536-14.601-14.6v-1.749
		c0-8.064,6.537-14.602,14.601-14.602h9.05C483.65,289.602,486.918,292.87,486.918,296.902z M479.618,333.402h-9.05
		c-8.063,0-14.601,6.536-14.601,14.601v1.749c0,8.063,6.537,14.6,14.601,14.6h9.05c4.032,0,7.3-3.268,7.3-7.3v-16.35
		C486.918,336.671,483.65,333.402,479.618,333.402z M479.618,245.802h-9.05c-8.063,0-14.601,6.537-14.601,14.601v1.75
		c0,8.063,6.537,14.601,14.601,14.601h9.05c4.032,0,7.3-3.269,7.3-7.3v-16.351C486.918,249.07,483.65,245.802,479.618,245.802z
		 M479.618,202.001h-9.05c-8.063,0-14.601,6.536-14.601,14.6v1.75c0,8.063,6.537,14.601,14.601,14.601h9.05
		c4.032,0,7.3-3.268,7.3-7.3v-16.35C486.918,205.269,483.65,202.001,479.618,202.001z"/>
	<path fill="#FFF5F5" d="M265.887,138.846l7.25,13.254c0.125,0.23,0.314,0.419,0.544,0.545l13.255,7.249
		c0.949,0.52,0.949,1.884,0,2.403l-13.255,7.249c-0.229,0.126-0.419,0.315-0.544,0.545l-7.25,13.255
		c-0.519,0.949-1.883,0.949-2.402,0l-7.249-13.255c-0.125-0.23-0.314-0.419-0.544-0.545l-13.255-7.249
		c-0.949-0.519-0.949-1.883,0-2.403l13.255-7.249c0.23-0.125,0.419-0.315,0.544-0.545l7.249-13.254
		C264.005,137.896,265.368,137.896,265.887,138.846z"/>
	<path fill="#FDF7BD" d="M181.388,179.051l7.322,13.389c0.126,0.232,0.318,0.423,0.55,0.55l13.389,7.322
		c0.959,0.524,0.959,1.902,0,2.427l-13.389,7.322c-0.232,0.126-0.423,0.318-0.55,0.55L181.388,224c-0.524,0.959-1.902,0.959-2.427,0
		l-7.322-13.389c-0.127-0.232-0.318-0.423-0.55-0.55l-13.389-7.322c-0.959-0.524-0.959-1.902,0-2.427l13.389-7.322
		c0.232-0.127,0.423-0.318,0.55-0.55l7.322-13.389C179.486,178.091,180.864,178.091,181.388,179.051z"/>
	<path fill="#FDF385" d="M171.302,71.187l5.71,10.439c0.099,0.181,0.247,0.33,0.428,0.428l10.439,5.71
		c0.748,0.409,0.748,1.483,0,1.892l-10.439,5.709c-0.181,0.099-0.33,0.248-0.428,0.428l-5.71,10.439
		c-0.409,0.748-1.483,0.748-1.892,0l-5.709-10.439c-0.099-0.181-0.248-0.33-0.428-0.428l-10.439-5.709
		c-0.748-0.409-0.748-1.483,0-1.892l10.439-5.71c0.181-0.099,0.33-0.247,0.428-0.428l5.709-10.439
		C169.818,70.438,170.893,70.438,171.302,71.187z"/>
</g>
<circle fill="#FCFCFC" stroke="#2E7D32" stroke-width="5" stroke-miterlimit="10" cx="373.891" cy="157.96" r="61.461"/>
<polygon fill="#2E7D32" points="366.723,184.329 341.863,169.165 339.065,173.752 369.06,192.048 409.034,126.516 403.898,123.383 
	"/>
</svg>
