<?xml version="1.0" encoding="utf-8"?>
<!-- Generator: Adobe Illustrator 16.0.0, SVG Export Plug-In . SVG Version: 6.00 Build 0)  -->
<!DOCTYPE svg PUBLIC "-//W3C//DTD SVG 1.1//EN" "http://www.w3.org/Graphics/SVG/1.1/DTD/svg11.dtd">
<svg version="1.1" id="Capa_1" xmlns="http://www.w3.org/2000/svg" xmlns:xlink="http://www.w3.org/1999/xlink" x="0px" y="0px"
	 width="300px" height="300px" viewBox="0 0 300 300" enable-background="new 0 0 300 300" xml:space="preserve">
<path fill="#E1F5FE" d="M150,0C67.146,0,0,67.146,0,150c0,44.705,19.547,84.862,50.61,112.382C77.126,285.768,111.91,300,150,300
	c38.149,0,72.934-14.232,99.39-37.678C280.453,234.862,300,194.705,300,150C300,67.146,232.854,0,150,0z"/>
<path fill="#5D727F" d="M237.638,250.158c-7.677-5.729-21.614-15.236-36.791-22.265c-15.177-6.968-24.095-23.327-21.673-39.804
	c0-0.235,0.059-0.472,0.117-0.768c0,0,34.547-23.385,29.764-46.181c0,0,1.063,0.059,2.658-0.059
	c15.236-1.417,16.181-24.094,1.121-26.516c-0.117,0-0.295-0.059-0.412-0.059l-0.473-2.48c4.605-16.122,15.826-64.96-18.131-60.236
	c0,0-24.389-40.335-75.944-20.906c-51.614,19.37-38.149,65.61-38.149,65.61l6.378,18.425c-13.878,3.425-12.579,24.862,2.185,26.22
	c1.594,0.118,2.716,0.059,2.716,0.059c-4.842,22.795,29.705,46.181,29.705,46.181c0.059,0.296,0.059,0.532,0.118,0.768
	c2.362,16.477-6.555,32.835-21.673,39.804c-15.236,7.027-29.114,16.594-36.791,22.264c-4.606,3.365-8.681,7.44-11.811,12.225
	C77.126,285.768,111.91,300,150,300c38.149,0,72.934-14.232,99.39-37.678C246.318,257.599,242.244,253.523,237.638,250.158z"/>
</svg>
