<?xml version="1.0" encoding="utf-8"?>
<!-- Generator: Adobe Illustrator 16.0.0, SVG Export Plug-In . SVG Version: 6.00 Build 0)  -->
<!DOCTYPE svg PUBLIC "-//W3C//DTD SVG 1.1//EN" "http://www.w3.org/Graphics/SVG/1.1/DTD/svg11.dtd">
<svg version="1.1" id="Layer_1" xmlns="http://www.w3.org/2000/svg" xmlns:xlink="http://www.w3.org/1999/xlink" x="0px" y="0px"
	 width="100px" height="100px" viewBox="0 0 100 100" enable-background="new 0 0 100 100" xml:space="preserve">
<g id="Layer_1_1_" display="none">
	<circle display="inline" fill="#FFF59D" cx="49.999" cy="49.87" r="50"/>
	<g display="inline">
		<path fill="#FCE8CB" d="M60.033,63.721h-5.447v-3.555h-9.153v3.555h-5.448c-4.554,0-8.246,3.692-8.246,8.246v7.473h36.537v-7.473
			C68.275,67.413,64.588,63.721,60.033,63.721L60.033,63.721z"/>
		<path fill="#3A312A" d="M60.033,63.259h-4.985v-3.093c0-0.254-0.208-0.463-0.463-0.463h-9.152c-0.257,0-0.463,0.209-0.463,0.463
			v3.093h-4.987c-4.8,0-8.705,3.905-8.705,8.708v7.473c0,0.256,0.206,0.461,0.461,0.461h36.537c0.257,0,0.466-0.205,0.466-0.461
			v-7.473C68.74,67.164,64.833,63.259,60.033,63.259L60.033,63.259z M67.814,78.979H32.202v-7.012c0-4.292,3.491-7.783,7.783-7.783
			h5.448c0.255,0,0.461-0.203,0.461-0.463v-3.093h8.229v3.093c0,0.26,0.207,0.463,0.462,0.463h5.447
			c4.294,0,7.782,3.491,7.782,7.783V78.979L67.814,78.979z"/>
		<path fill="#8AC6DD" d="M60.033,63.721H58.73l0.033,0.024l-5.666,7.517l-2.924-2.203l-2.925,2.203l-5.665-7.517l0.034-0.024
			h-1.637c-4.551,0-8.243,3.692-8.243,8.243v7.478h36.538v-7.478C68.275,67.413,64.588,63.721,60.033,63.721L60.033,63.721z"/>
		<path fill="#3A312A" d="M60.033,63.259H58.73c-0.201,0-0.377,0.13-0.438,0.32c-0.005,0.013-0.01,0.028-0.013,0.042l-5.272,6.993
			l-2.554-1.927c-0.164-0.125-0.391-0.125-0.556,0l-2.555,1.927l-5.271-6.993c-0.003-0.014-0.008-0.029-0.011-0.042
			c-0.063-0.19-0.239-0.32-0.439-0.32h-1.637c-4.8,0-8.705,3.905-8.705,8.708v7.475c0,0.257,0.206,0.463,0.461,0.463h36.539
			c0.256,0,0.462-0.206,0.462-0.463v-7.475C68.74,67.164,64.833,63.259,60.033,63.259L60.033,63.259z M67.814,78.979H32.201v-7.015
			c0-4.289,3.489-7.78,7.781-7.78h1.354l5.546,7.354c0.152,0.204,0.443,0.246,0.647,0.091l2.646-1.994l2.646,1.994
			c0.203,0.155,0.494,0.113,0.646-0.091l5.547-7.354h1.021c4.294,0,7.781,3.491,7.781,7.78v7.015H67.814z"/>
		<path fill="#FCE8CB" d="M38.146,40.993c-1.268-1.268-3.323-1.268-4.588-0.001c-1.268,1.268-1.268,3.322,0,4.588
			c1.265,1.267,3.32,1.267,4.588,0C39.412,44.313,39.412,42.26,38.146,40.993L38.146,40.993z"/>
		<path fill="#3A312A" d="M35.851,39.58c-2.044,0-3.705,1.662-3.705,3.706c0,2.043,1.66,3.706,3.705,3.706
			c2.043,0,3.707-1.663,3.707-3.706C39.557,41.242,37.894,39.58,35.851,39.58L35.851,39.58z M35.851,46.068
			c-1.533,0-2.781-1.25-2.781-2.782c0-1.534,1.248-2.782,2.781-2.782c1.535,0,2.782,1.248,2.782,2.782
			C38.633,44.819,37.385,46.068,35.851,46.068L35.851,46.068z"/>
		<path fill="#FCE8CB" d="M67.411,43.287c0,1.791-1.453,3.243-3.246,3.243c-1.79,0-3.244-1.452-3.244-3.243
			c0-1.793,1.454-3.244,3.244-3.244C65.958,40.043,67.411,41.494,67.411,43.287L67.411,43.287z"/>
		<path fill="#3A312A" d="M64.165,39.58c-2.042,0-3.706,1.662-3.706,3.706c0,2.043,1.664,3.706,3.706,3.706
			c2.044,0,3.708-1.663,3.708-3.706C67.873,41.242,66.209,39.58,64.165,39.58L64.165,39.58z M64.165,46.068
			c-1.533,0-2.78-1.25-2.78-2.782c0-1.534,1.248-2.782,2.78-2.782c1.535,0,2.783,1.248,2.783,2.782
			C66.948,44.819,65.7,46.068,64.165,46.068L64.165,46.068z"/>
		<path fill="#FCE8CB" d="M50.009,27.33c-7.941,0-14.381,6.438-14.381,14.381s7.955,20.133,14.381,20.133
			c6.731,0,14.38-12.19,14.38-20.133C64.389,33.769,57.952,27.33,50.009,27.33L50.009,27.33z"/>
		<path fill="#3A312A" d="M50.009,26.868c-8.183,0-14.843,6.66-14.843,14.843c0,3.869,1.862,8.969,4.863,13.309
			c3.152,4.563,6.883,7.289,9.979,7.289c7.024,0,14.844-12.276,14.844-20.598C64.852,33.527,58.193,26.868,50.009,26.868
			L50.009,26.868z M50.009,61.383c-2.792,0-6.239-2.576-9.22-6.89c-2.899-4.195-4.7-9.091-4.7-12.782
			c0-7.674,6.245-13.919,13.92-13.919S63.93,34.038,63.93,41.711C63.93,49.479,56.463,61.383,50.009,61.383L50.009,61.383z"/>
		<path fill="#3A312A" d="M44.933,40.146c-0.776,0-1.404,0.628-1.404,1.403c0,0.776,0.628,1.404,1.404,1.404
			c0.773,0,1.403-0.627,1.403-1.404C46.335,40.774,45.706,40.146,44.933,40.146L44.933,40.146z"/>
		<path fill="#3A312A" d="M55.085,40.146c-0.772,0-1.403,0.628-1.403,1.403c0,0.776,0.631,1.404,1.403,1.404
			c0.776,0,1.403-0.627,1.403-1.404C56.488,40.774,55.861,40.146,55.085,40.146L55.085,40.146z"/>
		<path fill="#F5978A" d="M42.127,43.914c-1.336,0-2.419,0.81-2.419,1.807c0,1,1.083,1.808,2.419,1.808
			c1.333,0,2.416-0.809,2.416-1.808C44.543,44.724,43.46,43.914,42.127,43.914L42.127,43.914z"/>
		<path fill="#F5978A" d="M57.891,43.914c-1.334,0-2.418,0.81-2.418,1.807c0,1,1.084,1.808,2.418,1.808
			c1.336,0,2.42-0.809,2.42-1.808C60.311,44.724,59.227,43.914,57.891,43.914L57.891,43.914z"/>
		<path fill="#CCAE8B" d="M54.137,63.725v-2.711c-1.363,0.813-2.764,1.282-4.125,1.282c-1.359,0-2.76-0.494-4.127-1.331v2.76
			c0,0.137-0.063,0.266-0.167,0.353c1.429,1.001,2.892,1.597,4.293,1.597c1.426,0,2.901-0.582,4.333-1.568
			C54.218,64.021,54.137,63.881,54.137,63.725L54.137,63.725z"/>
		<path fill="#87796F" d="M65.061,38.388c0-7.861-6.664-14.231-14.885-14.231s-14.885,6.37-14.885,14.231
			c0,0.832,0.15,1.451,0.431,2.225c0.131,0.366,2.262-0.8,2.445-0.928c0.906-0.639,1.649-1.505,2.202-2.462
			c0.231-0.398,0.421-0.804,0.575-1.209c0.49-1.292,1.824-4.89,3.177-4.608c1.814,0.38,3.871,0.593,6.055,0.593
			c2.182,0,4.239-0.212,6.055-0.593c1.354-0.282,2.688,3.316,3.179,4.608c0.151,0.405,0.347,0.811,0.573,1.209
			c0.914,1.584,2.461,3.091,4.344,3.366c0.007-0.09,0.122-0.122,0.207-0.152C65.146,40.211,65.061,38.881,65.061,38.388
			L65.061,38.388z"/>
		<path fill="#3A312A" d="M65.523,38.547l-0.002-0.159c0-8.103-6.888-14.693-15.348-14.693c-8.461,0-15.347,6.591-15.347,14.693
			c0,0.928,0.175,1.6,0.457,2.383c0.058,0.164,0.192,0.288,0.364,0.343c0.056,0.018,0.121,0.026,0.194,0.026
			c0.821,0,2.571-1.065,2.587-1.076c0.915-0.644,1.721-1.547,2.338-2.611c0.237-0.412,0.44-0.84,0.607-1.275l0.03-0.081
			c1.461-3.858,2.267-4.31,2.619-4.238c1.915,0.4,3.985,0.601,6.15,0.601c2.164,0,4.233-0.201,6.147-0.601
			c0.352-0.072,1.158,0.379,2.619,4.238l0.033,0.081c0.164,0.435,0.367,0.863,0.604,1.276c1.149,1.99,2.899,3.333,4.679,3.592
			c0.128,0.019,0.262-0.018,0.357-0.1c0.027-0.023,0.056-0.049,0.076-0.078C65.553,40.551,65.534,39.248,65.523,38.547
			L65.523,38.547z M64.352,40.01c-0.065,0.022-0.129,0.05-0.184,0.082c-1.426-0.297-2.826-1.439-3.785-3.1
			c-0.213-0.37-0.396-0.754-0.544-1.141l-0.03-0.081c-0.971-2.559-2.168-5.134-3.674-4.816c-1.854,0.386-3.859,0.583-5.959,0.583
			c-2.102,0-4.106-0.196-5.961-0.583c-1.51-0.315-2.703,2.258-3.674,4.815l-0.03,0.082c-0.147,0.388-0.331,0.771-0.543,1.14
			c-0.548,0.948-1.264,1.75-2.066,2.315c-0.241,0.162-1.34,0.726-1.841,0.878c-0.191-0.577-0.307-1.108-0.307-1.796
			c0-7.592,6.468-13.77,14.423-13.77c7.952,0,14.421,6.177,14.421,13.77l0.002,0.173C64.617,39.814,64.43,39.981,64.352,40.01
			L64.352,40.01z"/>
		<rect x="48.891" y="69.059" fill="#D7E057" width="2.569" height="8.553"/>
		<path fill="#3A312A" d="M51.46,68.596h-2.569c-0.255,0-0.462,0.206-0.462,0.463v3.021c0,0.256,0.207,0.462,0.462,0.462
			s0.461-0.206,0.461-0.462v-2.559h1.643v7.627h-1.643V76.26c0-0.255-0.207-0.462-0.461-0.462c-0.255,0-0.462,0.207-0.462,0.462
			v1.352c0,0.255,0.207,0.462,0.462,0.462h2.569c0.253,0,0.462-0.207,0.462-0.462v-8.553C51.922,68.802,51.713,68.596,51.46,68.596
			L51.46,68.596z"/>
		<path fill="#D7E057" d="M41.588,63.742l2.937-2.213l5.665,7.517l-2.937,2.213L41.588,63.742z"/>
		<path fill="#3A312A" d="M50.557,68.771l-5.665-7.519c-0.155-0.204-0.444-0.244-0.647-0.092l-2.937,2.215
			c-0.098,0.072-0.163,0.185-0.18,0.304c-0.016,0.12,0.014,0.244,0.089,0.344l5.665,7.516c0.073,0.1,0.183,0.164,0.302,0.182
			c0.023,0.002,0.044,0.004,0.065,0.004c0.101,0,0.199-0.033,0.278-0.095l2.935-2.212C50.67,69.262,50.71,68.973,50.557,68.771
			L50.557,68.771z M47.342,70.611l-5.107-6.775l2.197-1.656l5.107,6.778L47.342,70.611z"/>
		<path fill="#D7E057" d="M50.165,69.051l5.663-7.517l2.938,2.213L53.1,71.264L50.165,69.051z"/>
		<path fill="#3A312A" d="M59.221,63.68c-0.018-0.119-0.082-0.229-0.18-0.305l-2.936-2.213c-0.205-0.152-0.492-0.112-0.647,0.092
			l-5.665,7.518c-0.152,0.201-0.112,0.49,0.092,0.646l2.938,2.212c0.084,0.063,0.181,0.095,0.274,0.095
			c0.144,0,0.279-0.063,0.369-0.186l5.666-7.516C59.205,63.925,59.238,63.801,59.221,63.68L59.221,63.68z M53.007,70.611
			l-2.198-1.653l5.109-6.778l2.197,1.656L53.007,70.611z"/>
		<path fill="#3A312A" d="M38.583,73.072c-0.256,0-0.461,0.207-0.461,0.462v5.907c0,0.254,0.206,0.461,0.461,0.461
			c0.254,0,0.462-0.207,0.462-0.461v-5.907C39.045,73.279,38.837,73.072,38.583,73.072L38.583,73.072z"/>
		<path fill="#3A312A" d="M61.768,73.072c-0.254,0-0.463,0.207-0.463,0.462v5.907c0,0.254,0.209,0.461,0.463,0.461
			s0.463-0.207,0.463-0.461v-5.907C62.229,73.279,62.021,73.072,61.768,73.072L61.768,73.072z"/>
		<path fill="#87796F" d="M52.927,50.623c-1.474-1.555-2.929-0.399-2.929,0.664c0,1.064,1.395,2.299,3.611,2.299
			c1.645,0,4.018-1.424,4.018-2.486C57.626,50.033,55.13,52.945,52.927,50.623L52.927,50.623z"/>
		<path fill="#3A312A" d="M57.802,50.499c-0.335-0.223-0.722-0.06-1.212,0.147c-0.906,0.381-2.146,0.902-3.328-0.342
			c-0.773-0.815-1.685-1.096-2.506-0.769c-0.718,0.286-1.22,1.006-1.22,1.75c0,1.328,1.56,2.763,4.075,2.763
			c1.811,0,4.479-1.555,4.479-2.952C58.088,50.759,57.934,50.584,57.802,50.499L57.802,50.499z M53.609,53.123
			c-2.028,0-3.15-1.085-3.15-1.837c0-0.362,0.273-0.745,0.641-0.892c0.11-0.045,0.229-0.066,0.346-0.066
			c0.367,0,0.765,0.21,1.146,0.613c1.622,1.709,3.401,0.959,4.357,0.557c0.021-0.008,0.043-0.018,0.063-0.027
			C56.518,52.167,54.914,53.123,53.609,53.123L53.609,53.123z"/>
		<path fill="#87796F" d="M47.068,50.623c-2.204,2.322-4.701-0.589-4.701,0.475c0,1.064,2.373,2.487,4.016,2.487
			c2.218,0,3.615-1.233,3.615-2.299C49.998,50.223,48.542,49.068,47.068,50.623L47.068,50.623z"/>
		<g>
			<g>
				<g>
					<defs>
						<rect id="SVGID_1_" x="24.033" y="16.816" width="44.732" height="63.086"/>
					</defs>
					<clipPath id="SVGID_2_">
						<use xlink:href="#SVGID_1_"  overflow="visible"/>
					</clipPath>
					<path clip-path="url(#SVGID_2_)" fill="#3A312A" d="M49.239,49.537c-0.821-0.327-1.733-0.046-2.506,0.769
						c-1.181,1.246-2.422,0.721-3.328,0.342c-0.491-0.208-0.877-0.373-1.212-0.148c-0.131,0.086-0.287,0.26-0.287,0.6
						c0,1.396,2.671,2.95,4.478,2.95c2.518,0,4.076-1.435,4.076-2.763C50.459,50.542,49.958,49.823,49.239,49.537L49.239,49.537z
						 M46.383,53.123c-1.304,0-2.906-0.956-3.401-1.652c0.022,0.01,0.042,0.021,0.063,0.027c0.957,0.402,2.735,1.152,4.359-0.557
						c0.505-0.534,1.036-0.729,1.491-0.546c0.366,0.146,0.64,0.53,0.64,0.892C49.536,52.038,48.413,53.123,46.383,53.123
						L46.383,53.123z"/>
				</g>
			</g>
			<g>
				<g>
					<defs>
						<rect id="SVGID_3_" x="24.033" y="16.816" width="44.732" height="63.086"/>
					</defs>
					<clipPath id="SVGID_4_">
						<use xlink:href="#SVGID_3_"  overflow="visible"/>
					</clipPath>
					<path clip-path="url(#SVGID_4_)" fill="#87796F" d="M49.906,18.99c-10.138,5.964-16.022-5.501-16.022-0.271
						c0,1.652,0.666,3.3,1.54,4.799l2.42,3.431c2.44,3.073,5.361,6.35,8.889,7.354c5.681,1.616,15.733-0.399,15.733-8.576
						C62.466,20.499,58.085,14.18,49.906,18.99L49.906,18.99z"/>
				</g>
			</g>
			<g>
				<g>
					<defs>
						<rect id="SVGID_5_" x="24.033" y="16.816" width="44.732" height="63.086"/>
					</defs>
					<clipPath id="SVGID_6_">
						<use xlink:href="#SVGID_5_"  overflow="visible"/>
					</clipPath>
					<path clip-path="url(#SVGID_6_)" fill="#3A312A" d="M58.75,17.705c-1.75-1.002-4.746-1.66-9.079,0.887
						c-5.874,3.457-10.251,0.831-12.866-0.737c-1.262-0.756-2.094-1.254-2.755-0.88c-0.558,0.315-0.628,1.098-0.628,1.746
						c0,1.536,0.525,3.182,1.603,5.033c0.129,0.22,0.41,0.293,0.63,0.166c0.221-0.129,0.296-0.413,0.167-0.632
						c-0.995-1.706-1.478-3.2-1.478-4.567c0-0.814,0.158-0.94,0.162-0.94c0.192-0.112,1.172,0.479,1.822,0.868
						c2.608,1.564,7.464,4.477,13.813,0.742c3.125-1.839,5.944-2.145,8.15-0.884c2.564,1.467,3.712,4.684,3.712,7.222
						c0,2.573-1.03,4.658-3.063,6.192c-3.395,2.563-8.647,2.917-12.083,1.939c-3.335-0.947-6.13-4.018-8.653-7.196
						c-0.159-0.201-0.449-0.235-0.649-0.075c-0.199,0.158-0.233,0.45-0.075,0.649c2.618,3.298,5.538,6.492,9.124,7.511
						c1.205,0.342,2.618,0.53,4.105,0.53c3.027,0,6.352-0.779,8.787-2.619c2.246-1.697,3.432-4.092,3.432-6.931
						C62.93,22.923,61.637,19.354,58.75,17.705L58.75,17.705z"/>
				</g>
			</g>
		</g>
		<path fill="#6B5B51" d="M58.292,18.505c-1.37-0.783-2.976-0.961-4.747-0.545c0.459,0.123,0.898,0.309,1.314,0.545
			c2.566,1.466,3.714,4.684,3.714,7.223c0,2.572-1.029,4.655-3.063,6.192c-1.814,1.368-4.158,2.108-6.472,2.348
			c3.226,0.347,7.168-0.281,9.901-2.348c2.033-1.537,3.063-3.62,3.063-6.192C62.004,23.189,60.855,19.972,58.292,18.505
			L58.292,18.505z"/>
	</g>
</g>
<g id="Layer_2" display="none">
	<circle display="inline" fill="#C5E1A5" cx="50" cy="50" r="50"/>
	<g display="inline">
		<path fill="#87796F" d="M36.458,47.658c-0.175,0.031-0.356,0.046-0.544,0.046c-0.538,0-1.042-0.132-1.487-0.362v19.73
			c1.47-1.373,3.442-2.217,5.613-2.217h5.435v-3.545h0.094C41.683,58.57,38.002,52.908,36.458,47.658L36.458,47.658z"/>
		<path fill="#3A312A" d="M45.836,60.934c-3.709-2.613-7.382-8.125-8.936-13.405c-0.065-0.226-0.29-0.365-0.521-0.325
			c-0.147,0.026-0.305,0.04-0.464,0.04c-0.448,0-0.876-0.106-1.276-0.311c-0.143-0.075-0.313-0.069-0.451,0.014
			c-0.138,0.083-0.221,0.233-0.221,0.396v19.73c0,0.184,0.108,0.35,0.278,0.424c0.059,0.024,0.122,0.037,0.183,0.037
			c0.115,0,0.228-0.041,0.315-0.123c1.444-1.351,3.324-2.095,5.299-2.095h5.434c0.256,0,0.461-0.202,0.461-0.461V61.59
			c0.032-0.043,0.058-0.088,0.075-0.143C46.07,61.258,46,61.047,45.836,60.934L45.836,60.934z M45.014,64.395H40.04
			c-1.871,0-3.666,0.6-5.152,1.695V48.019c0.399,0.117,0.822,0.163,1.241,0.14c1.624,5.21,5.208,10.585,8.885,13.317V64.395z"/>
		<path fill="#87796F" d="M64.168,47.704c-0.18,0-0.35-0.015-0.52-0.043c-1.502,5.267-5.1,10.938-9.041,13.671v3.523h5.435
			c2.17,0,4.146,0.844,5.612,2.217v-19.73C65.211,47.572,64.701,47.704,64.168,47.704L64.168,47.704z"/>
		<path fill="#3A312A" d="M65.896,46.947c-0.14-0.084-0.312-0.09-0.453-0.015c-0.523,0.271-1.109,0.374-1.721,0.274
			c-0.231-0.037-0.453,0.103-0.519,0.329c-1.522,5.344-5.165,10.861-8.858,13.418c-0.125,0.086-0.197,0.227-0.197,0.379v3.523
			c0,0.258,0.205,0.465,0.459,0.465h5.436c1.975,0,3.855,0.74,5.298,2.09c0.087,0.082,0.201,0.123,0.315,0.123
			c0.063,0,0.125-0.012,0.185-0.037c0.167-0.072,0.276-0.24,0.276-0.424v-19.73C66.116,47.18,66.032,47.03,65.896,46.947
			L65.896,46.947z M65.193,66.09c-1.485-1.098-3.282-1.695-5.151-1.695h-4.974v-2.826c3.757-2.695,7.287-8.014,8.912-13.406
			c0.408,0.022,0.819-0.027,1.213-0.141V66.09z"/>
		<path fill="#87796F" d="M45.569,61.311c1.499,1.057,3.025,1.674,4.474,1.674c1.509,0,3.063-0.611,4.564-1.65v-0.021h-9.04
			L45.569,61.311L45.569,61.311z"/>
		<path fill="#3A312A" d="M54.607,60.848h-9.04c-0.199,0-0.378,0.129-0.438,0.324c-0.061,0.189,0.009,0.396,0.174,0.514
			c1.658,1.168,3.251,1.76,4.738,1.76c1.541,0,3.166-0.584,4.827-1.732c0.125-0.086,0.197-0.229,0.197-0.379v-0.021
			C55.068,61.055,54.861,60.848,54.607,60.848L54.607,60.848z M50.043,62.523c-0.889,0-1.834-0.254-2.826-0.752h5.754
			C51.957,62.27,50.977,62.523,50.043,62.523L50.043,62.523z"/>
		<path fill="#FCE8CB" d="M60.044,64.859h-5.437v-3.549h-9.132v3.549h-5.436c-4.542,0-8.225,3.68-8.225,8.225v7.455h36.458v-7.455
			C68.271,68.539,64.587,64.859,60.044,64.859L60.044,64.859z"/>
		<path fill="#3A312A" d="M60.044,64.398h-4.976v-3.088c0-0.256-0.207-0.461-0.461-0.461h-9.132c-0.255,0-0.461,0.205-0.461,0.461
			v3.088h-4.975c-4.789,0-8.686,3.895-8.686,8.686v7.455c0,0.254,0.206,0.461,0.461,0.461h36.458c0.254,0,0.461-0.207,0.461-0.461
			v-7.455C68.73,68.293,64.833,64.398,60.044,64.398L60.044,64.398z M67.811,80.078H32.275v-6.994c0-4.281,3.483-7.764,7.764-7.764
			h5.436c0.256,0,0.461-0.207,0.461-0.461v-3.088h8.21v3.088c0,0.254,0.205,0.461,0.461,0.461h5.437c4.281,0,7.767,3.48,7.767,7.764
			V80.078z"/>
		<path fill="#FCE8CB" d="M45.569,61.311c1.499,1.057,3.025,1.674,4.474,1.674c1.509,0,3.063-0.611,4.564-1.65v-0.021h-9.04
			L45.569,61.311L45.569,61.311z"/>
		<path fill="#3A312A" d="M54.607,60.848h-9.04c-0.199,0-0.378,0.129-0.438,0.324c-0.061,0.189,0.009,0.396,0.174,0.514
			c1.658,1.168,3.251,1.76,4.738,1.76c1.541,0,3.166-0.584,4.827-1.732c0.125-0.086,0.197-0.229,0.197-0.379v-0.021
			C55.068,61.055,54.861,60.848,54.607,60.848L54.607,60.848z M50.043,62.523c-0.889,0-1.834-0.254-2.826-0.752h5.754
			C51.957,62.27,50.977,62.523,50.043,62.523L50.043,62.523z"/>
		<rect x="38.4" y="73.273" fill="#F16C7A" width="23.28" height="7.266"/>
		<path fill="#3A312A" d="M61.682,72.813h-3.893c-0.257,0-0.461,0.207-0.461,0.461s0.204,0.461,0.461,0.461h3.432v6.346h-22.36
			v-6.346h14.86c0.254,0,0.461-0.207,0.461-0.461s-0.207-0.461-0.461-0.461H38.4c-0.255,0-0.461,0.207-0.461,0.461v7.268
			c0,0.254,0.206,0.461,0.461,0.461h23.28c0.258,0,0.463-0.207,0.463-0.461v-7.268C62.145,73.02,61.938,72.813,61.682,72.813
			L61.682,72.813z"/>
		<path fill="#FCE8CB" d="M39.152,44.467c0,1.788-1.449,3.237-3.235,3.237c-1.789,0-3.237-1.449-3.237-3.237
			c0-1.788,1.448-3.236,3.237-3.236C37.704,41.231,39.152,42.68,39.152,44.467L39.152,44.467z"/>
		<path fill="#3A312A" d="M35.917,40.769c-2.041,0-3.698,1.659-3.698,3.698c0,2.039,1.657,3.699,3.698,3.699
			c2.038,0,3.696-1.659,3.696-3.699C39.613,42.428,37.955,40.769,35.917,40.769L35.917,40.769z M35.917,47.244
			c-1.532,0-2.776-1.247-2.776-2.777c0-1.53,1.244-2.776,2.776-2.776c1.53,0,2.774,1.246,2.774,2.776
			C38.691,45.998,37.447,47.244,35.917,47.244L35.917,47.244z"/>
		<path fill="#FCE8CB" d="M65.406,41.477c-1.65-0.685-3.543,0.099-4.229,1.752c-0.685,1.651,0.101,3.544,1.753,4.228
			c1.647,0.683,3.545-0.101,4.229-1.752S67.059,42.161,65.406,41.477L65.406,41.477z"/>
		<path fill="#3A312A" d="M64.168,40.769c-2.04,0-3.699,1.659-3.699,3.698c0,2.039,1.659,3.699,3.699,3.699
			c2.036,0,3.695-1.659,3.695-3.699C67.863,42.428,66.204,40.769,64.168,40.769L64.168,40.769z M64.168,47.244
			c-1.531,0-2.775-1.247-2.775-2.777c0-1.53,1.244-2.776,2.775-2.776c1.529,0,2.773,1.246,2.773,2.776
			C66.941,45.998,65.697,47.244,64.168,47.244L64.168,47.244z"/>
		<path fill="#FCE8CB" d="M50.042,28.548c-7.925,0-14.35,6.423-14.35,14.347c0,7.923,7.938,20.089,14.35,20.089
			c6.717,0,14.349-12.166,14.349-20.089C64.391,34.971,57.966,28.548,50.042,28.548L50.042,28.548z"/>
		<path fill="#3A312A" d="M50.042,28.087c-8.166,0-14.811,6.644-14.811,14.809c0,3.86,1.859,8.946,4.852,13.278
			c3.147,4.553,6.869,7.271,9.958,7.271c7.009,0,14.811-12.248,14.811-20.55C64.852,34.73,58.206,28.087,50.042,28.087
			L50.042,28.087z M50.042,62.523c-2.787,0-6.227-2.57-9.2-6.873c-2.892-4.188-4.689-9.072-4.689-12.753
			c0-7.658,6.23-13.888,13.889-13.888c7.656,0,13.888,6.23,13.888,13.888C63.93,50.645,56.48,62.523,50.042,62.523L50.042,62.523z"
			/>
		<path fill="#3A312A" d="M44.976,41.334c-0.774,0-1.4,0.627-1.4,1.4s0.626,1.401,1.4,1.401s1.4-0.627,1.4-1.401
			C46.376,41.961,45.75,41.334,44.976,41.334L44.976,41.334z"/>
		<path fill="#3A312A" d="M55.107,41.334c-0.774,0-1.399,0.627-1.399,1.4s0.625,1.401,1.399,1.401c0.771,0,1.399-0.627,1.399-1.401
			C56.509,41.961,55.881,41.334,55.107,41.334L55.107,41.334z"/>
		<path fill="#F5978A" d="M42.176,45.095c-1.332,0-2.412,0.809-2.412,1.803c0,0.996,1.081,1.803,2.412,1.803
			c1.331,0,2.412-0.807,2.412-1.803C44.588,45.903,43.508,45.095,42.176,45.095L42.176,45.095z"/>
		<path fill="#F5978A" d="M57.904,45.095c-1.331,0-2.41,0.809-2.41,1.803c0,0.996,1.079,1.803,2.41,1.803
			c1.332,0,2.414-0.807,2.414-1.803C60.318,45.903,59.238,45.095,57.904,45.095L57.904,45.095z"/>
		<path fill="#CCAE8B" d="M54.16,64.859v-2.703c-1.36,0.807-2.758,1.279-4.117,1.279c-1.355,0-2.752-0.492-4.117-1.328v2.752
			c0,0.139-0.064,0.266-0.166,0.348c1.426,1.002,2.886,1.596,4.283,1.596c1.425,0,2.896-0.58,4.323-1.566
			C54.24,65.154,54.16,65.016,54.16,64.859L54.16,64.859z"/>
		<path fill="#3A312A" d="M54.1,51.766c-0.238-0.09-0.504,0.031-0.595,0.271c-0.278,0.748-1.377,2.164-3.524,2.164
			c-1.679,0-2.837-0.721-3.542-2.201c-0.109-0.23-0.385-0.328-0.615-0.219c-0.23,0.109-0.328,0.385-0.219,0.615
			c0.861,1.811,2.333,2.727,4.375,2.727c2.305,0,3.89-1.432,4.388-2.762C54.459,52.121,54.338,51.855,54.1,51.766L54.1,51.766z"/>
		<path fill="#87796F" d="M69.359,40.644c-0.262-1.692-0.649-3.358-1.258-4.971c-2.819-7.525-8.149-13.29-16.224-14.228
			c0.396,2.886,0.979,5.756,2.242,8.374c0.864,1.796,2.03,3.435,3.286,4.988c3.438,4.27,7.646,8.023,12.412,10.691
			C69.732,43.869,69.605,42.243,69.359,40.644L69.359,40.644z"/>
		<path fill="#3A312A" d="M69.814,40.575c-0.289-1.886-0.709-3.542-1.279-5.062c-3.184-8.493-9.079-13.651-16.602-14.525
			c-0.145-0.017-0.283,0.034-0.387,0.135c-0.098,0.102-0.146,0.244-0.126,0.385c0.354,2.609,0.906,5.659,2.282,8.511
			c0.764,1.583,1.824,3.197,3.343,5.077c3.63,4.508,7.972,8.243,12.55,10.805c0.069,0.04,0.147,0.058,0.227,0.058
			c0.085,0,0.169-0.023,0.242-0.07c0.145-0.089,0.226-0.249,0.217-0.416C70.207,44.114,70.087,42.331,69.814,40.575L69.814,40.575z
			 M57.766,34.518c-1.472-1.825-2.498-3.382-3.229-4.9c-1.217-2.522-1.764-5.239-2.113-7.637c6.878,1.033,12.277,5.93,15.249,13.855
			c0.55,1.46,0.952,3.057,1.233,4.878c0.21,1.373,0.328,2.771,0.404,3.958C65.105,42.187,61.127,38.691,57.766,34.518L57.766,34.518
			z"/>
		<path fill="#87796F" d="M49.505,21.306c-9.897,0-19.48,8.311-19.24,18.544c0.021,1.042,0.098,2.088,0.219,3.13
			c10.579-4.572,20.897-10.503,27.987-19.43C55.912,22.114,52.927,21.306,49.505,21.306L49.505,21.306z"/>
		<path fill="#3A312A" d="M58.925,23.462c-0.028-0.134-0.108-0.248-0.229-0.313c-2.721-1.529-5.813-2.304-9.189-2.304
			c-5.22,0-10.612,2.33-14.425,6.232c-3.511,3.593-5.385,8.133-5.276,12.783c0.021,1.022,0.095,2.09,0.221,3.173
			c0.018,0.144,0.103,0.272,0.229,0.346c0.071,0.041,0.151,0.062,0.23,0.062c0.063,0,0.125-0.013,0.184-0.038
			C43.781,37.736,52.73,31.52,58.832,23.838C58.915,23.732,58.95,23.595,58.925,23.462L58.925,23.462z M30.875,42.307
			c-0.082-0.841-0.133-1.668-0.15-2.467c-0.101-4.401,1.68-8.704,5.014-12.118c3.644-3.729,8.789-5.954,13.767-5.954
			c3.018,0,5.794,0.648,8.26,1.927C51.861,30.943,43.29,36.877,30.875,42.307L30.875,42.307z"/>
		<path fill="#6B5B51" d="M55.238,22.625c-5.594,6.562-13.468,12.039-24.523,17.058v0.005c-0.004,0.05,0,0.104,0,0.153
			c0.014,0.803,0.067,1.638,0.154,2.482c12.428-5.432,21.009-11.374,26.914-18.633C56.971,23.267,56.12,22.912,55.238,22.625
			L55.238,22.625z"/>
		<path fill="#6B5B51" d="M69.016,41.411c-0.004-0.002-0.011-0.006-0.014-0.009c-0.031-0.23-0.063-0.458-0.098-0.689
			c-0.28-1.819-0.684-3.415-1.232-4.877c-2.015-5.374-5.146-9.352-9.097-11.682c-0.277,0.34-0.56,0.682-0.851,1.018
			c3.231,2.394,5.817,6.007,7.563,10.664c0.547,1.462,0.948,3.058,1.229,4.877c0.035,0.231,0.067,0.458,0.098,0.689
			c0.006,0.003,0.009,0.006,0.017,0.009c0.072,0.563,0.136,1.12,0.185,1.66c0.824,0.584,1.664,1.123,2.51,1.624
			C69.264,43.702,69.17,42.561,69.016,41.411L69.016,41.411z"/>
		<path fill="#F16C7A" d="M31.916,21.839c-1.629-1.188-3.617-1.237-4.442-0.107c-0.824,1.129-0.17,3.007,1.458,4.195
			c1.63,1.189,3.618,1.237,4.441,0.109C34.198,24.905,33.546,23.028,31.916,21.839L31.916,21.839z"/>
		<path fill="#3A312A" d="M32.188,21.466c-1.832-1.337-4.113-1.339-5.083-0.006c-0.491,0.672-0.582,1.56-0.255,2.499
			c0.306,0.88,0.95,1.711,1.813,2.341c0.864,0.63,1.851,0.989,2.783,1.012c0.031,0,0.063,0,0.094,0c0.952,0,1.733-0.355,2.207-1.006
			C34.718,24.974,34.019,22.803,32.188,21.466L32.188,21.466z M33.002,25.763c-0.307,0.42-0.853,0.644-1.535,0.626
			c-0.747-0.019-1.55-0.315-2.262-0.835c-0.713-0.521-1.24-1.195-1.485-1.899c-0.225-0.646-0.178-1.233,0.128-1.652
			c0.304-0.418,0.836-0.623,1.461-0.623c0.729,0,1.583,0.281,2.336,0.831C33.041,23.23,33.662,24.857,33.002,25.763L33.002,25.763z"
			/>
		<g>
			<g>
				<g>
					<defs>
						<rect id="SVGID_7_" x="24.264" y="18.333" width="46.038" height="62.667"/>
					</defs>
					<clipPath id="SVGID_8_">
						<use xlink:href="#SVGID_7_"  overflow="visible"/>
					</clipPath>
					<path clip-path="url(#SVGID_8_)" fill="#F16C7A" d="M36.309,18.88c-1.329-0.434-2.915,0.767-3.541,2.684
						s-0.058,3.822,1.269,4.257c1.33,0.433,2.915-0.768,3.542-2.684C38.205,21.221,37.637,19.314,36.309,18.88L36.309,18.88z"/>
				</g>
			</g>
			<g>
				<g>
					<defs>
						<rect id="SVGID_9_" x="24.264" y="18.333" width="46.038" height="62.667"/>
					</defs>
					<clipPath id="SVGID_10_">
						<use xlink:href="#SVGID_9_"  overflow="visible"/>
					</clipPath>
					<path clip-path="url(#SVGID_10_)" fill="#3A312A" d="M38.118,20.321c-0.284-0.953-0.875-1.621-1.667-1.879
						c-1.566-0.512-3.416,0.823-4.121,2.979c-0.705,2.154-0.002,4.325,1.564,4.838c0.23,0.075,0.469,0.114,0.71,0.114
						c0.583,0,1.184-0.219,1.745-0.645c0.742-0.562,1.335-1.432,1.666-2.448C38.349,22.265,38.385,21.214,38.118,20.321
						L38.118,20.321z M37.141,22.993c-0.275,0.839-0.753,1.549-1.348,2c-0.544,0.413-1.118,0.55-1.611,0.389
						c-1.066-0.349-1.512-2.032-0.976-3.674c0.472-1.438,1.566-2.455,2.546-2.455c0.141,0,0.28,0.022,0.413,0.065
						c0.496,0.161,0.875,0.611,1.07,1.265C37.448,21.299,37.415,22.155,37.141,22.993L37.141,22.993z"/>
				</g>
			</g>
		</g>
		<path fill="#F16C7A" d="M38.104,23.864c-2.017-0.004-3.654,1.125-3.657,2.523c-0.003,1.398,1.629,2.533,3.646,2.537
			c2.017,0.005,3.655-1.125,3.656-2.523C41.752,25.003,40.121,23.867,38.104,23.864L38.104,23.864z"/>
		<path fill="#3A312A" d="M40.947,24.23c-0.764-0.532-1.774-0.827-2.843-0.828h-0.012c-2.26,0-4.103,1.336-4.107,2.983
			c-0.002,1.65,1.839,2.995,4.107,2.999h0.012c1.063,0,2.069-0.29,2.834-0.817c0.818-0.564,1.27-1.334,1.271-2.165
			C42.212,25.57,41.763,24.799,40.947,24.23L40.947,24.23z M41.289,26.4c-0.002,0.52-0.312,1.02-0.875,1.408
			c-0.613,0.423-1.442,0.67-2.319,0.654c-1.73-0.003-3.188-0.954-3.187-2.075c0.002-1.121,1.46-2.063,3.185-2.063h0.008
			c0.883,0.002,1.707,0.237,2.319,0.663C40.982,25.377,41.289,25.88,41.289,26.4L41.289,26.4z"/>
		<path fill="#F16C7A" d="M37.566,29.647c-0.619-1.919-2.2-3.125-3.529-2.697c-1.332,0.43-1.907,2.333-1.287,4.252
			c0.619,1.919,2.2,3.126,3.529,2.698C37.608,33.47,38.185,31.566,37.566,29.647L37.566,29.647z"/>
		<path fill="#3A312A" d="M38.004,29.506c-0.696-2.158-2.54-3.501-4.109-2.994c-0.793,0.255-1.386,0.921-1.674,1.873
			c-0.271,0.891-0.238,1.943,0.088,2.959c0.599,1.85,2.038,3.101,3.426,3.101c0.231,0,0.46-0.034,0.685-0.107
			c0.791-0.254,1.386-0.92,1.675-1.872C38.365,31.574,38.333,30.522,38.004,29.506L38.004,29.506z M37.213,32.199
			c-0.198,0.654-0.581,1.102-1.076,1.261c-1.066,0.345-2.418-0.754-2.949-2.399c-0.27-0.84-0.301-1.695-0.085-2.41
			c0.199-0.653,0.582-1.101,1.076-1.261c0.133-0.043,0.269-0.064,0.409-0.064c0.98,0,2.074,1.022,2.54,2.464
			C37.397,30.628,37.428,31.484,37.213,32.199L37.213,32.199z"/>
		<path fill="#F16C7A" d="M33.371,26.734c-0.817-1.133-2.805-1.093-4.439,0.089c-1.635,1.182-2.293,3.059-1.477,4.19
			c0.82,1.132,2.808,1.093,4.442-0.089C33.531,29.742,34.191,27.866,33.371,26.734L33.371,26.734z"/>
		<path fill="#3A312A" d="M33.746,26.463c-0.966-1.337-3.248-1.343-5.084-0.014c-1.837,1.33-2.545,3.499-1.579,4.833
			c0.475,0.656,1.259,1.014,2.221,1.014c0.025,0,0.051,0,0.077,0c0.932-0.019,1.922-0.374,2.787-1
			c0.866-0.625,1.513-1.454,1.822-2.334C34.32,28.024,34.234,27.137,33.746,26.463L33.746,26.463z M33.12,28.656
			c-0.247,0.704-0.777,1.376-1.492,1.893c-0.715,0.518-1.519,0.81-2.265,0.826c-0.68,0.012-1.227-0.211-1.532-0.632l0,0
			c-0.658-0.908-0.029-2.531,1.371-3.545c0.752-0.545,1.6-0.822,2.329-0.822c0.626,0,1.164,0.207,1.469,0.629
			C33.304,27.425,33.347,28.012,33.12,28.656L33.12,28.656z"/>
		<path fill="#D7E057" d="M34.576,25.396c-0.546-0.399-1.313-0.278-1.712,0.268c-0.398,0.546-0.28,1.312,0.268,1.711
			c0.547,0.398,1.314,0.278,1.711-0.268C35.243,26.56,35.122,25.794,34.576,25.396L34.576,25.396z"/>
		<path fill="#3A312A" d="M35.52,26.125c-0.07-0.445-0.309-0.836-0.672-1.101c-0.363-0.267-0.811-0.375-1.255-0.305
			c-0.444,0.069-0.836,0.308-1.101,0.672c-0.547,0.751-0.381,1.808,0.368,2.355c0.292,0.213,0.637,0.324,0.991,0.324
			c0.088,0,0.177-0.007,0.265-0.021c0.444-0.069,0.834-0.307,1.1-0.671C35.482,27.014,35.59,26.569,35.52,26.125L35.52,26.125z
			 M34.47,26.835c-0.12,0.164-0.298,0.272-0.498,0.304c-0.203,0.032-0.403-0.017-0.57-0.138c-0.338-0.248-0.413-0.727-0.166-1.067
			c0.121-0.166,0.298-0.273,0.5-0.305c0.201-0.031,0.403,0.018,0.569,0.139c0.163,0.12,0.272,0.296,0.304,0.498
			C34.64,26.468,34.591,26.67,34.47,26.835L34.47,26.835z"/>
	</g>
</g>
<g id="Layer_3">
	<circle fill="#B2EBF2" cx="49.832" cy="49.833" r="49.498"/>
	<g>
		<g>
			<path fill="#FF889E" d="M64.414,76.416L64.414,76.416l-0.593-0.833l0.239-0.834c-0.321-1.257-0.734-2.379-1.19-3.365
				l-1.019-0.671l0.217-0.872c-1.698-2.918-3.578-4.291-3.578-4.291H43.405c0,0-1.881,1.372-3.579,4.291l-0.006,1.005l-0.792,0.536
				c-0.46,0.987-0.875,2.107-1.196,3.367l0.371,1.159l-0.723,0.508c-0.201,1.183-0.319,2.465-0.319,3.858h6.099l0.666-0.562
				l0.921,0.562h5.306l0.792-0.562l0.795,0.562h5.308l0.921-0.562l0.668,0.562h6.097C64.734,78.881,64.617,77.6,64.414,76.416
				L64.414,76.416z"/>
			<path fill="#FF748F" d="M40.523,75.678c0-4.066,1.869-8.166,4.577-10.128h-1.695c0,0-1.881,1.373-3.578,4.292l-0.007,1.005
				l-0.792,0.535c-0.46,0.988-0.875,2.107-1.196,3.367l0.371,1.16l-0.724,0.507c-0.201,1.184-0.319,2.466-0.319,3.859h3.702
				C40.587,78.893,40.523,77.33,40.523,75.678z"/>
			<path fill="#5C586F" d="M28.831,47.674c0-13.044,9.921-23.659,22.116-23.659c12.195,0,22.115,10.615,22.115,23.659H28.831z"/>
			<g>
				<ellipse fill="#FFBD86" cx="69.274" cy="48.833" rx="5.175" ry="5.538"/>
			</g>
			<path fill="#4F4C5F" d="M35.717,45.778c0-8.337,3.338-15.778,8.568-20.662c-8.95,3.03-15.454,11.997-15.454,22.558h6.944
				C35.735,47.049,35.717,46.415,35.717,45.778z"/>
			<path fill="#FED2A4" d="M68.825,43.336c-0.322-1.514-1.319-2.752-2.67-3.316c-4.358-1.827-7.232-6.363-7.232-6.363
				c-3.824,6.928-12.405,7.095-12.405,7.095c2.574-2.756,1.013-7.095,1.013-7.095c-2.975,3.664-7.485,5.07-10.766,5.607
				c-1.7,0.278-3.092,1.594-3.533,3.371c-0.411,1.647-0.624,3.38-0.611,5.171c0.063,10.681,8.213,19.404,18.198,19.477
				c10.183,0.076,18.456-8.73,18.456-19.608C69.274,46.184,69.117,44.731,68.825,43.336z"/>
			<path fill="#FFBD86" d="M43.325,65.496c-4.673-4.875-7.607-11.902-7.607-19.72c0-2.219,0.238-4.373,0.683-6.434
				c-1.533,0.394-2.759,1.641-3.168,3.289c-0.057,0.228-0.109,0.456-0.158,0.687c-0.141-0.016-0.292-0.024-0.454-0.024
				c-2.859,0-5.174,2.478-5.174,5.537c0,3.058,2.315,5.537,5.174,5.537c0.429,0,0.773-0.057,1.051-0.162
				C35.335,59.208,38.849,63.286,43.325,65.496L43.325,65.496z"/>
			<g>
				<g>
					<g>
						<ellipse fill="#FF9DB0" cx="39.82" cy="51.517" rx="4.106" ry="3.497"/>
					</g>
					<g>
						<ellipse fill="#FF9DB0" cx="62.074" cy="51.517" rx="4.104" ry="3.497"/>
					</g>
				</g>
			</g>
		</g>
		<g>
			<path d="M41.418,46.354v1.797c0,0.466,0.357,0.847,0.793,0.847c0.438,0,0.794-0.381,0.794-0.847v-1.797
				c0-0.467-0.356-0.849-0.794-0.849C41.774,45.505,41.418,45.886,41.418,46.354z"/>
			<path d="M59.681,45.505c-0.439,0-0.795,0.381-0.795,0.849v1.797c0,0.467,0.355,0.848,0.795,0.848
				c0.437,0,0.794-0.381,0.794-0.848v-1.797C60.475,45.886,60.117,45.505,59.681,45.505z"/>
			<path d="M52.649,47.539c-0.428,0.527-1.051,0.83-1.703,0.83c-0.654,0-1.274-0.303-1.704-0.83c-0.29-0.354-0.79-0.39-1.121-0.083
				c-0.33,0.312-0.364,0.845-0.078,1.201c0.732,0.897,1.79,1.412,2.902,1.412c1.112,0,2.167-0.515,2.901-1.412
				c0.288-0.356,0.254-0.889-0.076-1.201C53.44,47.149,52.939,47.185,52.649,47.539z"/>
			<path fill="#3A312A" d="M66.215,29.42c-4.207-4.032-9.632-6.253-15.269-6.253c-4.477,0-8.816,1.39-12.553,4.018
				c-0.365,0.258-0.466,0.784-0.228,1.175c0.242,0.394,0.736,0.5,1.101,0.243c3.476-2.445,7.515-3.736,11.681-3.736
				c5.249,0,10.297,2.064,14.209,5.819c3.424,3.284,5.755,7.62,6.671,12.372c-0.741-0.375-1.59-0.59-2.424-0.607
				c-0.493-1.431-1.554-2.635-2.957-3.222c-2.635-1.104-5.37-3.722-6.867-6.049c-0.322-0.511-1.041-0.495-1.338,0.046
				c-2.086,3.775-6.038,5.811-10.07,6.491c1.316-2.896,0.161-6.199,0.102-6.363c-0.212-0.591-0.947-0.739-1.34-0.253
				c-2.548,3.138-6.477,4.704-10.286,5.326c-2.045,0.334-3.685,1.931-4.189,4.024c-0.799,0.022-1.638,0.227-2.389,0.607
				c0.925-4.789,3.282-9.154,6.749-12.445c0.326-0.313,0.354-0.847,0.066-1.199c-0.291-0.353-0.792-0.382-1.12-0.071
				c-4.155,3.943-6.822,9.323-7.529,15.168c-0.983,1.138-1.583,2.656-1.583,4.323c0,3.741,3.008,6.707,6.522,6.357
				c1.683,4.515,4.828,8.248,8.798,10.526c-3.312,3.259-5.605,8.404-5.605,14.559c0,0.468,0.356,0.848,0.795,0.848h27.572
				c0.439,0,0.796-0.38,0.796-0.848c0-6.086-2.256-11.25-5.592-14.54c1.454-0.83,2.809-1.863,4.038-3.09
				c0.321-0.317,0.34-0.858,0.041-1.197c-0.302-0.347-0.802-0.364-1.123-0.045c-3.633,3.622-8.339,5.287-12.958,5
				C39.005,65.73,31.135,54.398,33.999,42.85c0.358-1.443,1.492-2.52,2.886-2.75c3.712-0.605,7.47-2.052,10.223-4.764
				c0.197,1.338,0.198,3.366-1.153,4.812c-0.493,0.529-0.154,1.458,0.577,1.448c1.178-0.021,3.182-0.36,4.999-0.989
				c2.948-1.02,5.614-2.805,7.44-5.483c1.809,2.374,4.241,4.572,6.898,5.684c1.886,0.789,2.173,2.687,2.178,2.701
				c1.115,5.048,0.155,10.862-3.112,15.479c-0.266,0.374-0.198,0.907,0.151,1.188c0.35,0.283,0.852,0.211,1.112-0.165
				c1.061-1.496,1.911-3.116,2.543-4.821c5.442,0.519,8.589-6.426,4.921-10.683C72.959,38.704,70.32,33.355,66.215,29.42
				L66.215,29.42z M57.049,67.069v2.772H51.74v-1.727C53.615,68.03,55.408,67.66,57.049,67.069z M63.242,74.749h-4.608v-3.21h3.421
				C62.548,72.56,62.941,73.63,63.242,74.749z M57.049,74.749H51.74v-3.21h5.309V74.749z M39.84,71.539h3.419v3.21h-4.606
				C38.951,73.63,39.349,72.56,39.84,71.539z M44.847,71.539h5.306v3.21h-5.306V71.539z M44.847,67.061
				c1.711,0.62,3.487,0.975,5.306,1.051v1.73h-5.306V67.061z M50.153,76.446v2.977h-5.306v-2.977H50.153z M51.74,76.446h5.309v2.977
				H51.74V76.446z M43.259,66.764v3.078h-2.487C41.554,68.589,42.407,67.564,43.259,66.764z M38.279,76.446h4.98v2.977h-5.29
				C38.004,78.403,38.111,77.409,38.279,76.446z M58.634,79.423v-2.977h4.981c0.167,0.963,0.271,1.957,0.309,2.977H58.634z
				 M61.121,69.842h-2.487v-3.078C59.477,67.556,60.336,68.586,61.121,69.842z M32.625,53.52c-3.993,0-5.878-5.227-2.996-8.111
				c0.065-0.047,0.936-1.038,2.475-1.23C31.617,47.206,31.754,50.421,32.625,53.52z M69.278,53.52
				c0.862-3.098,0.996-6.34,0.511-9.343c2.177,0.271,3.87,2.26,3.87,4.654C73.659,51.416,71.693,53.518,69.278,53.52z"/>
		</g>
	</g>
</g>
<g id="Layer_4" display="none">
	<circle display="inline" fill="#F0F4C3" cx="50.083" cy="50.011" r="50.083"/>
	<g display="inline">
		<g>
			<g>
				<g>
					<defs>
						<rect id="SVGID_11_" x="28.229" y="16.367" width="47.921" height="65.494"/>
					</defs>
					<clipPath id="SVGID_12_">
						<use xlink:href="#SVGID_11_"  overflow="visible"/>
					</clipPath>
					<path clip-path="url(#SVGID_12_)" fill="#FCE8CB" d="M69.238,64.682c-0.008,0-0.01-0.002-0.016-0.008l-5.074-18.96l-0.041-0.09
						v-0.003c-0.041-0.131-0.086-0.259-0.14-0.386c-0.052-0.125-0.106-0.249-0.163-0.37l-0.125-0.239
						c-0.025-0.047-0.052-0.093-0.078-0.137c-0.139-0.222-0.279-0.438-0.445-0.643c-0.118-0.146-0.243-0.287-0.374-0.421
						c-1.003-1.019-2.394-1.651-3.935-1.651H55.21c-0.005,0-0.01-0.003-0.01-0.01v-2.359c0-0.003-0.005-0.006-0.005-0.009
						c-0.002,0-0.006-0.003-0.006-0.003h-6.082c0,0-0.003,0.003-0.006,0.003c0,0.003-0.002,0.006-0.002,0.009v2.359
						c0,0.006-0.007,0.01-0.012,0.01h-3.634c-1.542,0-2.935,0.632-3.937,1.651c-0.132,0.134-0.256,0.274-0.374,0.421
						c-0.164,0.206-0.31,0.421-0.446,0.643c-0.028,0.044-0.054,0.089-0.078,0.137l-0.125,0.239c-0.056,0.121-0.115,0.245-0.167,0.37
						c-0.052,0.127-0.096,0.255-0.139,0.386v0.003l-0.04,0.09l-5.076,18.96c-0.002,0.006-0.007,0.008-0.013,0.008
						c0,0-6.441,3.985-6.312,6.473c0.047,0.529,0.52,0.986,1.277,0.604c0,0,7.744-4.271,8.159-4.686
						c0.098-0.093,0.185-0.195,0.26-0.308v-0.005c0.08-0.108,0.146-0.228,0.204-0.354c0,0,0,0,0-0.002l5.388-18.98
						c0-0.002,0-0.002,0.005-0.002c0.001-0.002,0.002,11.926,0.005,14.174h16.202c0.002-2.248,0.004-14.177,0.006-14.174
						c0.003,0,0.003,0,0.003,0.002l5.391,18.98c0,0.002,0,0.002,0,0.002c0.058,0.129,0.125,0.246,0.205,0.354v0.005
						c0.074,0.11,0.162,0.215,0.258,0.308c0.416,0.415,8.16,4.686,8.16,4.686c0.758,0.382,1.229-0.075,1.275-0.604
						C75.68,68.667,69.238,64.682,69.238,64.682L69.238,64.682z"/>
				</g>
			</g>
			<g>
				<g>
					<defs>
						<rect id="SVGID_13_" x="28.229" y="16.367" width="47.921" height="65.494"/>
					</defs>
					<clipPath id="SVGID_14_">
						<use xlink:href="#SVGID_13_"  overflow="visible"/>
					</clipPath>
					<path clip-path="url(#SVGID_14_)" fill="#3A312A" d="M69.639,64.366L64.609,45.59c-0.006-0.027-0.017-0.053-0.026-0.078
						l-0.026-0.056c-0.043-0.136-0.089-0.269-0.143-0.404c-0.057-0.132-0.118-0.264-0.186-0.409l-0.125-0.241
						c-0.029-0.056-0.061-0.111-0.096-0.166c-0.162-0.267-0.32-0.494-0.48-0.691c-0.127-0.159-0.262-0.312-0.402-0.458
						c-1.139-1.156-2.658-1.792-4.277-1.792H55.68v-1.891c0-0.049-0.009-0.101-0.021-0.149c-0.041-0.133-0.14-0.241-0.265-0.298
						c-0.063-0.028-0.133-0.044-0.203-0.044h-6.081c-0.07,0-0.14,0.016-0.203,0.044c-0.125,0.056-0.221,0.166-0.262,0.297
						c-0.015,0.049-0.023,0.101-0.023,0.15v1.891h-3.168c-1.62,0-3.139,0.637-4.277,1.794c-0.141,0.144-0.277,0.296-0.404,0.456
						c-0.16,0.198-0.317,0.424-0.481,0.691c-0.033,0.055-0.064,0.11-0.094,0.167l-0.133,0.254c-0.061,0.129-0.122,0.262-0.178,0.397
						c-0.053,0.132-0.099,0.265-0.142,0.4l-0.026,0.054c-0.012,0.025-0.022,0.052-0.029,0.08l-1.373,5.123
						c-0.067,0.253,0.086,0.518,0.341,0.586c0.254,0.066,0.519-0.084,0.587-0.339l1.359-5.082l0.025-0.051
						c0.012-0.026,0.022-0.053,0.029-0.082c0.035-0.112,0.075-0.223,0.117-0.329c0.047-0.117,0.101-0.232,0.148-0.332l0.124-0.237
						c0.02-0.036,0.039-0.073,0.06-0.108c0.146-0.236,0.277-0.425,0.414-0.593c0.108-0.135,0.223-0.265,0.34-0.386
						c0.958-0.973,2.235-1.507,3.594-1.507h3.636c0.266,0,0.488-0.224,0.488-0.489V39.87h5.143v1.892
						c0,0.265,0.226,0.489,0.489,0.489h3.638c1.36,0,2.635,0.535,3.592,1.505c0.121,0.123,0.233,0.253,0.344,0.388
						c0.136,0.168,0.27,0.357,0.413,0.593c0.021,0.035,0.042,0.072,0.06,0.105l0.116,0.225c0.056,0.113,0.106,0.229,0.153,0.343
						c0.043,0.108,0.08,0.217,0.117,0.328c0.008,0.028,0.019,0.057,0.028,0.084l0.024,0.051l5.064,18.921
						c0.021,0.073,0.059,0.142,0.106,0.197c0.038,0.04,0.082,0.075,0.132,0.102c2.396,1.485,6.152,4.431,6.07,6.015
						c-0.012,0.127-0.067,0.234-0.147,0.279c-0.099,0.055-0.253,0.032-0.421-0.052c-2.91-1.604-7.671-4.274-8.061-4.608
						c-0.063-0.063-0.123-0.132-0.176-0.207c-0.008-0.012-0.017-0.023-0.024-0.037c-0.058-0.08-0.104-0.164-0.144-0.244
						l-5.379-18.946l0,0c-0.076-0.26-0.387-0.423-0.646-0.317c-0.2,0.084-0.266,0.11-0.286,0.446h-0.007
						c0,0.019,0,0.038,0.004,0.056c-0.008,0.155-0.008,0.37-0.008,0.669l-0.004,12.967H44.527l-0.002-12.967
						c0-0.299-0.002-0.514-0.008-0.669c0.002-0.019,0.003-0.038,0.003-0.056h-0.007c-0.02-0.336-0.086-0.362-0.284-0.446
						c-0.262-0.106-0.575,0.057-0.648,0.317l-5.378,18.942c-0.042,0.093-0.089,0.17-0.143,0.248
						c-0.01,0.014-0.019,0.023-0.026,0.037c-0.054,0.075-0.113,0.146-0.175,0.203c-0.388,0.338-5.149,3.01-8.044,4.605
						c-0.185,0.091-0.34,0.111-0.437,0.059c-0.08-0.045-0.139-0.152-0.148-0.264c-0.083-1.602,3.671-4.542,6.071-6.03
						c0.049-0.026,0.094-0.062,0.131-0.102c0.049-0.056,0.087-0.124,0.106-0.197l2.573-9.604c0.068-0.254-0.084-0.518-0.338-0.586
						c-0.257-0.066-0.519,0.082-0.588,0.338l-2.521,9.422c-1.145,0.724-6.523,4.262-6.389,6.828c0.04,0.447,0.277,0.832,0.636,1.033
						c0.221,0.123,0.689,0.281,1.35-0.05c1.832-1.009,7.839-4.338,8.262-4.761c0.12-0.115,0.228-0.241,0.321-0.38
						c0.007-0.011,0.014-0.021,0.019-0.033c0.087-0.124,0.162-0.258,0.235-0.42c0.007-0.017,0.012-0.033,0.018-0.05l4.452-15.688
						c0,1.435,0,3.14,0.002,4.755v5.998c0.001,0.262,0.216,0.479,0.48,0.479h16.203c0.265,0,0.479-0.218,0.479-0.479v-5.998
						c0-1.615,0.002-3.32,0.002-4.755l4.461,15.712c0.006,0.019,0.013,0.031,0.019,0.045c0.063,0.146,0.14,0.277,0.226,0.401
						c0.009,0.013,0.015,0.022,0.021,0.033c0.098,0.139,0.204,0.265,0.313,0.375c0.432,0.428,6.438,3.757,8.285,4.772
						c0.282,0.144,0.53,0.191,0.738,0.191c0.268,0,0.471-0.08,0.594-0.148c0.359-0.203,0.6-0.589,0.639-1.052
						C76.161,68.627,70.783,65.089,69.639,64.366L69.639,64.366z"/>
				</g>
			</g>
		</g>
		<path fill="#F16C7A" d="M69.225,64.674l-5.074-18.96l-0.043-0.09v-0.003c-0.041-0.131-0.086-0.259-0.137-0.386
			c-0.053-0.125-0.107-0.249-0.166-0.37l-0.125-0.239c-0.022-0.047-0.05-0.093-0.078-0.137c-0.137-0.222-0.277-0.438-0.443-0.643
			c-0.118-0.146-0.243-0.287-0.374-0.421c-1.005-1.019-2.394-1.651-3.937-1.651H55.23c-0.555,1.02-1.586,1.767-3.101,1.767
			c-1.519,0-2.55-0.748-3.102-1.767h-3.575c-1.542,0-2.932,0.632-3.935,1.651c-0.132,0.134-0.256,0.274-0.375,0.421
			c-0.166,0.206-0.309,0.421-0.445,0.643c-0.028,0.044-0.054,0.089-0.079,0.137l-0.123,0.239c-0.059,0.121-0.115,0.245-0.167,0.37
			c-0.052,0.127-0.096,0.255-0.139,0.386v0.003l-0.041,0.09l-5.076,18.96c-0.001,0.006-0.006,0.008-0.012,0.008
			c0,0,3.53,1.854,3.588,1.727c0,0,0,0,0-0.004l5.388-18.979c0-0.002,0-0.002,0.005-0.002c0.001-0.002,0.001,11.928,0.003,14.176
			h16.203c0.002-2.248,0.002-14.179,0.006-14.176c0.003,0,0.003,0,0.003,0.002l5.392,18.979c0,0.004,0,0.004,0,0.004
			c0.057,0.129,3.588-1.727,3.588-1.727C69.23,64.682,69.229,64.68,69.225,64.674L69.225,64.674z"/>
		<g>
			<g>
				<g>
					<defs>
						<rect id="SVGID_15_" x="28.229" y="16.367" width="47.921" height="65.494"/>
					</defs>
					<clipPath id="SVGID_16_">
						<use xlink:href="#SVGID_15_"  overflow="visible"/>
					</clipPath>
					<path clip-path="url(#SVGID_16_)" fill="#3A312A" d="M69.703,64.564c-0.01-0.035-0.021-0.069-0.039-0.104L64.609,45.59
						c-0.006-0.027-0.017-0.053-0.026-0.078l-0.026-0.056c-0.043-0.136-0.089-0.269-0.143-0.404
						c-0.057-0.132-0.118-0.264-0.186-0.409l-0.125-0.241c-0.029-0.056-0.061-0.111-0.096-0.166c-0.162-0.267-0.32-0.494-0.48-0.691
						c-0.127-0.159-0.262-0.312-0.402-0.458c-1.139-1.156-2.658-1.792-4.277-1.792H55.23c-0.176,0-0.338,0.096-0.422,0.25
						c-0.531,0.977-1.48,1.516-2.679,1.516s-2.149-0.539-2.681-1.516c-0.083-0.154-0.244-0.25-0.42-0.25h-3.575
						c-1.62,0-3.139,0.637-4.277,1.794c-0.141,0.144-0.277,0.296-0.404,0.456c-0.16,0.198-0.317,0.424-0.481,0.691
						c-0.033,0.055-0.064,0.11-0.094,0.167l-0.133,0.254c-0.061,0.129-0.122,0.262-0.178,0.397c-0.053,0.132-0.099,0.265-0.142,0.4
						l-0.026,0.054c-0.012,0.025-0.022,0.052-0.029,0.08l-1.373,5.123c-0.067,0.253,0.086,0.518,0.341,0.586
						c0.254,0.066,0.519-0.084,0.587-0.339l1.359-5.082l0.025-0.051c0.012-0.026,0.022-0.053,0.029-0.082
						c0.035-0.112,0.075-0.223,0.117-0.329c0.047-0.117,0.101-0.232,0.148-0.332l0.124-0.237c0.02-0.036,0.039-0.073,0.06-0.108
						c0.146-0.236,0.277-0.425,0.414-0.593c0.108-0.135,0.223-0.265,0.34-0.386c0.958-0.973,2.235-1.507,3.594-1.507h3.302
						c0.726,1.141,1.912,1.767,3.375,1.767c1.46,0,2.646-0.625,3.371-1.767h3.347c1.36,0,2.637,0.535,3.594,1.505
						c0.121,0.123,0.231,0.253,0.342,0.388c0.136,0.168,0.268,0.357,0.413,0.593c0.021,0.035,0.042,0.072,0.06,0.105l0.116,0.225
						c0.054,0.113,0.108,0.229,0.153,0.343c0.043,0.108,0.082,0.217,0.117,0.328c0.008,0.028,0.019,0.057,0.028,0.084l0.024,0.051
						l4.969,18.563c-1.04,0.543-2.12,1.084-2.693,1.349l-5.25-18.492l0,0c-0.072-0.26-0.387-0.423-0.646-0.317
						c-0.202,0.084-0.268,0.11-0.288,0.446h-0.006c0,0.019,0,0.038,0.004,0.056c-0.009,0.155-0.009,0.37-0.009,0.669l-0.004,12.967
						H44.527l-0.002-12.967c0-0.299,0-0.514-0.008-0.669c0.002-0.019,0.003-0.038,0.003-0.056h-0.006
						c-0.021-0.336-0.085-0.362-0.285-0.446c-0.262-0.106-0.575,0.057-0.648,0.317l-5.25,18.492
						c-0.575-0.265-1.655-0.806-2.695-1.349l2.474-9.246c0.069-0.254-0.084-0.518-0.338-0.586c-0.257-0.066-0.519,0.082-0.587,0.338
						l-2.548,9.52c-0.015,0.032-0.029,0.066-0.039,0.104c-0.052,0.215,0.047,0.438,0.244,0.541c3.589,1.885,3.728,1.838,3.959,1.758
						c0.133-0.045,0.243-0.149,0.295-0.278c0.007-0.017,0.012-0.033,0.018-0.05l4.452-15.688c0.002,1.434,0.002,3.139,0.002,4.754
						l0.001,5.998c0,0.262,0.215,0.479,0.479,0.479h16.203c0.267,0,0.479-0.217,0.479-0.479l0.002-5.998c0-1.615,0-3.32,0-4.754
						l4.461,15.711c0.007,0.018,0.013,0.03,0.02,0.045c0.055,0.121,0.162,0.219,0.287,0.262c0.043,0.017,0.083,0.029,0.143,0.029
						c0.26,0,0.899-0.259,3.817-1.789C69.656,65.002,69.756,64.779,69.703,64.564L69.703,64.564z"/>
				</g>
			</g>
			<g>
				<g>
					<defs>
						<rect id="SVGID_17_" x="28.229" y="16.367" width="47.921" height="65.494"/>
					</defs>
					<clipPath id="SVGID_18_">
						<use xlink:href="#SVGID_17_"  overflow="visible"/>
					</clipPath>
					<path clip-path="url(#SVGID_18_)" fill="#FCE8CB" d="M73.784,75.727L53.738,63.518c-0.975-0.595-2.199-0.595-3.174,0
						L30.518,75.727c-2.633,1.604-1.495,5.653,1.587,5.653h40.092C75.279,81.382,76.417,77.33,73.784,75.727L73.784,75.727z"/>
				</g>
			</g>
		</g>
		<path fill="#3A312A" d="M74.032,75.318L53.986,63.107c-1.133-0.689-2.539-0.689-3.67,0L30.27,75.318
			c-1.388,0.845-2.001,2.399-1.563,3.967c0.439,1.563,1.773,2.576,3.398,2.576h35.333c0.265,0,0.479-0.217,0.479-0.479
			c0-0.265-0.215-0.479-0.479-0.479H32.105c-1.439,0-2.233-1.012-2.476-1.875c-0.243-0.865-0.091-2.145,1.138-2.894l20.045-12.21
			c0.824-0.502,1.852-0.502,2.676,0l20.046,12.21c1.229,0.749,1.382,2.026,1.139,2.894c-0.243,0.863-1.038,1.875-2.478,1.875h-0.641
			c-0.267,0-0.479,0.216-0.479,0.479c0,0.263,0.214,0.479,0.479,0.479h0.641c1.625,0,2.959-1.014,3.397-2.576
			C76.033,77.721,75.421,76.163,74.032,75.318L74.032,75.318z"/>
		<path fill="#87796F" d="M51.992,50.336c-2.549,0-4.616,2.066-4.616,4.617c0,2.549,2.066,4.615,4.616,4.615
			c2.55,0,4.615-2.066,4.615-4.615C56.607,52.402,54.542,50.336,51.992,50.336L51.992,50.336z"/>
		<path fill="#3A312A" d="M51.992,49.858c-2.809,0-5.094,2.285-5.094,5.095s2.285,5.094,5.094,5.094
			c2.811,0,5.096-2.283,5.096-5.094S54.803,49.858,51.992,49.858L51.992,49.858z M51.992,59.089c-2.281,0-4.137-1.854-4.137-4.136
			c0-2.282,1.856-4.137,4.137-4.137s4.137,1.854,4.137,4.137C56.129,57.234,54.273,59.089,51.992,59.089L51.992,59.089z"/>
		<path fill="#FCE8CB" d="M44.198,63.84c-1,0-1.81,0.811-1.81,1.811c0,0.998,0.81,1.81,1.81,1.81s1.81-0.812,1.81-1.81
			C46.008,64.65,45.198,63.84,44.198,63.84L44.198,63.84z"/>
		<path fill="#3A312A" d="M44.198,63.359c-1.262,0-2.289,1.026-2.289,2.291c0,1.261,1.027,2.289,2.289,2.289
			c1.262,0,2.289-1.028,2.289-2.289C46.487,64.389,45.46,63.359,44.198,63.359L44.198,63.359z M44.198,66.98
			c-0.733,0-1.331-0.6-1.331-1.33c0-0.734,0.598-1.332,1.331-1.332c0.735,0,1.332,0.598,1.332,1.332
			C45.529,66.383,44.933,66.98,44.198,66.98L44.198,66.98z"/>
		<path fill="#FCE8CB" d="M59.994,63.84c-0.999,0-1.809,0.811-1.809,1.811c0,0.998,0.81,1.81,1.809,1.81s1.811-0.812,1.811-1.81
			C61.805,64.65,60.993,63.84,59.994,63.84L59.994,63.84z"/>
		<path fill="#3A312A" d="M59.994,63.359c-1.262,0-2.29,1.026-2.29,2.291c0,1.261,1.028,2.289,2.29,2.289s2.289-1.028,2.289-2.289
			C62.283,64.389,61.256,63.359,59.994,63.359L59.994,63.359z M59.994,66.98c-0.732,0-1.332-0.6-1.332-1.33
			c0-0.734,0.6-1.332,1.332-1.332s1.331,0.598,1.331,1.332C61.325,66.383,60.729,66.98,59.994,66.98L59.994,66.98z"/>
		<path fill="#FCE8CB" d="M52.096,56.749c-4.43,0-8.021,3.591-8.021,8.021c0,4.435,4.438,11.234,8.021,11.234
			c3.756,0,8.022-6.802,8.022-11.234C60.118,60.34,56.525,56.749,52.096,56.749L52.096,56.749z"/>
		<path fill="#3A312A" d="M52.096,56.27c-4.688,0-8.5,3.813-8.5,8.5c0,4.625,4.559,11.713,8.5,11.713
			c4.023,0,8.504-6.979,8.504-11.713C60.6,60.082,56.784,56.27,52.096,56.27L52.096,56.27z M52.096,75.523
			c-3.329,0-7.542-6.666-7.542-10.754c0-4.16,3.384-7.543,7.542-7.543c4.161,0,7.545,3.383,7.545,7.543
			C59.641,68.918,55.521,75.523,52.096,75.523L52.096,75.523z"/>
		<path fill="#3A312A" d="M54.443,69.523c-0.248-0.094-0.523,0.033-0.617,0.281c-0.16,0.428-0.764,1.064-1.766,1.064
			c-0.854,0-1.42-0.354-1.782-1.104c-0.113-0.238-0.399-0.342-0.639-0.228c-0.238,0.112-0.34,0.397-0.225,0.639
			c0.521,1.097,1.412,1.65,2.646,1.65c1.395,0,2.357-0.875,2.662-1.688C54.816,69.893,54.689,69.618,54.443,69.523L54.443,69.523z"
			/>
		<path fill="#87796F" d="M61.751,63.813c-0.129-0.84-0.321-1.666-0.624-2.47c-1.4-3.739-4.05-6.604-8.063-7.071
			c0.197,1.437,0.484,2.861,1.111,4.162c0.434,0.895,1.014,1.707,1.635,2.479c1.709,2.122,3.801,3.985,6.17,5.313
			C61.938,65.416,61.873,64.607,61.751,63.813L61.751,63.813z"/>
		<path fill="#3A312A" d="M62.227,63.742c-0.146-0.956-0.358-1.794-0.649-2.566c-1.615-4.313-4.618-6.935-8.455-7.381
			c-0.146-0.016-0.293,0.035-0.396,0.143c-0.104,0.104-0.154,0.252-0.134,0.399c0.183,1.315,0.458,2.854,1.155,4.304
			c0.391,0.808,0.926,1.623,1.691,2.572c1.824,2.264,4.004,4.143,6.312,5.432c0.073,0.039,0.151,0.062,0.231,0.062
			c0.088,0,0.177-0.022,0.254-0.072c0.147-0.092,0.234-0.259,0.226-0.432C62.423,65.521,62.361,64.629,62.227,63.742L62.227,63.742z
			 M56.186,60.611c-0.721-0.891-1.222-1.648-1.576-2.387c-0.531-1.106-0.803-2.3-0.977-3.384c3.165,0.604,5.652,2.95,7.047,6.669
			c0.266,0.713,0.463,1.488,0.6,2.376c0.076,0.495,0.129,1,0.164,1.464C59.529,64.15,57.727,62.525,56.186,60.611L56.186,60.611z"/>
		<path fill="#87796F" d="M51.884,54.202c-4.918,0-9.679,4.131-9.562,9.216c0.011,0.52,0.049,1.037,0.109,1.557
			c5.258-2.271,10.385-5.22,13.909-9.654C55.068,54.604,53.584,54.202,51.884,54.202L51.884,54.202z"/>
		<path fill="#3A312A" d="M56.811,55.225c-0.026-0.137-0.11-0.254-0.232-0.322c-1.393-0.781-2.971-1.18-4.691-1.18
			c-2.699,0-5.375,1.157-7.348,3.174c-1.792,1.834-2.748,4.152-2.695,6.53c0.012,0.517,0.049,1.058,0.114,1.603
			c0.016,0.15,0.105,0.283,0.237,0.359c0.073,0.043,0.156,0.064,0.238,0.064c0.065,0,0.13-0.014,0.191-0.04
			c6.557-2.833,11.034-5.946,14.093-9.797C56.803,55.507,56.838,55.363,56.811,55.225L56.811,55.225z M42.843,64.27
			c-0.022-0.293-0.038-0.582-0.042-0.859c-0.049-2.12,0.81-4.194,2.42-5.844c1.765-1.806,4.255-2.885,6.662-2.885
			c1.348,0,2.594,0.269,3.713,0.793C52.746,58.873,48.667,61.688,42.843,64.27L42.843,64.27z"/>
		<path fill="#3A312A" d="M49.9,64.682c0,0.433-0.352,0.781-0.784,0.781c-0.433,0-0.782-0.352-0.782-0.781
			c0-0.436,0.349-0.785,0.782-0.785C49.548,63.896,49.9,64.246,49.9,64.682L49.9,64.682z"/>
		<path fill="#3A312A" d="M54.781,63.896c-0.436,0-0.783,0.35-0.783,0.783c0,0.432,0.35,0.781,0.783,0.781
			c0.432,0,0.783-0.352,0.783-0.781C55.564,64.246,55.213,63.896,54.781,63.896L54.781,63.896z"/>
		<path fill="#F5978A" d="M47.55,66c-0.745,0-1.348,0.451-1.348,1.01c0,0.557,0.603,1.008,1.348,1.008
			c0.747,0,1.349-0.451,1.349-1.008C48.899,66.451,48.297,66,47.55,66L47.55,66z"/>
		<path fill="#F5978A" d="M56.346,66c-0.742,0-1.349,0.451-1.349,1.01c0,0.557,0.604,1.008,1.349,1.008
			c0.745,0,1.35-0.451,1.35-1.008C57.693,66.451,57.091,66,56.346,66L56.346,66z"/>
		<path fill="#FCE8CB" d="M50.051,76.068H38.269v5.312h11.782c1.467,0,2.655-1.188,2.655-2.653
			C52.706,77.26,51.518,76.068,50.051,76.068L50.051,76.068z"/>
		<path fill="#3A312A" d="M50.051,75.593H38.269c-0.264,0-0.479,0.214-0.479,0.478c0,0.267,0.215,0.48,0.479,0.48h11.782
			c1.199,0,2.176,0.975,2.176,2.176c0,1.2-0.977,2.174-2.176,2.174H38.269c-0.264,0-0.479,0.219-0.479,0.479
			c0,0.265,0.215,0.479,0.479,0.479h11.782c1.729,0,3.135-1.403,3.135-3.133C53.186,76.996,51.777,75.593,50.051,75.593
			L50.051,75.593z"/>
		<path fill="#FCE8CB" d="M50.646,76.068c-1.916,0-3.466,1.189-3.466,2.658c0,1.465,1.552,2.651,3.466,2.651h15.386v-5.312H50.646
			V76.068z"/>
		<path fill="#3A312A" d="M66.032,80.902H50.646c-1.647,0-2.988-0.978-2.988-2.176c0-1.203,1.341-2.178,2.988-2.178h15.386
			c0.265,0,0.479-0.216,0.479-0.48c0-0.262-0.216-0.478-0.479-0.478H50.646c-2.175,0-3.945,1.403-3.945,3.136
			c0,1.729,1.77,3.135,3.945,3.135h15.386c0.265,0,0.479-0.217,0.479-0.479C66.514,81.117,66.297,80.902,66.032,80.902
			L66.032,80.902z"/>
		<path fill="#F16C7A" d="M52.15,16.846c-4.626,0-8.441,3.488-8.95,7.977c1.308-3.454,4.953-5.935,8.694-5.935
			c0.643,0,1.248,0.06,1.822,0.173c0.032,0.005,0.061,0.015,0.09,0.02c0.182,0.039,0.357,0.08,0.531,0.128
			c0.063,0.017,0.122,0.034,0.182,0.054c0.142,0.041,0.281,0.086,0.418,0.134c0.066,0.024,0.139,0.049,0.205,0.076
			c0.127,0.049,0.248,0.102,0.371,0.157c0.168,0.075,0.332,0.155,0.498,0.239c0.053,0.031,0.112,0.061,0.174,0.092
			c2.143,1.195,3.666,3.292,4.606,5.801c0.124,0.33,0.229,0.667,0.317,1.007c0.033-0.312,0.051-0.617,0.051-0.911
			C61.162,20.881,57.129,16.846,52.15,16.846L52.15,16.846z"/>
		<path fill="#3A312A" d="M52.15,16.367c-4.832,0-8.882,3.612-9.427,8.402c-0.028,0.24,0.128,0.462,0.361,0.519
			c0.235,0.057,0.477-0.071,0.562-0.295c1.236-3.26,4.705-5.627,8.249-5.627c0.597,0,1.179,0.055,1.758,0.17
			c0.024,0.007,0.054,0.012,0.057,0.012c0.172,0.037,0.34,0.075,0.521,0.127c0.049,0.013,0.098,0.027,0.158,0.046
			c0.131,0.039,0.262,0.082,0.389,0.126l0.048,0.017c0.049,0.018,0.098,0.035,0.147,0.055c0.115,0.044,0.229,0.095,0.348,0.148
			c0.16,0.07,0.316,0.146,0.457,0.218c0.037,0.021,0.076,0.041,0.115,0.061l0.063,0.033c1.91,1.066,3.43,2.986,4.393,5.552
			c0.113,0.299,0.213,0.613,0.305,0.96c0.057,0.212,0.246,0.358,0.464,0.358c0.013,0,0.022-0.001,0.034-0.002
			c0.229-0.017,0.416-0.196,0.441-0.427c0.035-0.329,0.055-0.654,0.055-0.962C61.645,20.625,57.385,16.367,52.15,16.367
			L52.15,16.367z M56.414,19.54l-0.086-0.045c-0.028-0.014-0.057-0.028-0.1-0.052c-0.172-0.089-0.346-0.172-0.518-0.249
			c-0.131-0.06-0.263-0.117-0.396-0.167c-0.058-0.022-0.114-0.043-0.174-0.064l-0.045-0.017c-0.145-0.052-0.293-0.101-0.433-0.14
			c-0.06-0.019-0.117-0.036-0.198-0.059c-0.183-0.05-0.369-0.095-0.586-0.141c-0.031-0.007-0.061-0.014-0.07-0.015
			c-0.615-0.121-1.261-0.182-1.918-0.182c-2.625,0-5.212,1.173-7.052,3.033c1.502-2.485,4.23-4.117,7.31-4.117
			c3.996,0,7.361,2.764,8.283,6.48C59.415,21.908,58.049,20.452,56.414,19.54L56.414,19.54z"/>
		<path fill="#FCE8CB" d="M46.104,30.53c0,0.992-0.806,1.797-1.798,1.797c-0.992,0-1.797-0.805-1.797-1.797
			c0-0.993,0.805-1.797,1.797-1.797C45.299,28.733,46.104,29.537,46.104,30.53L46.104,30.53z"/>
		<path fill="#3A312A" d="M44.307,28.253c-1.255,0-2.277,1.021-2.277,2.277c0,1.254,1.022,2.276,2.277,2.276
			c1.255,0,2.276-1.021,2.276-2.276C46.583,29.274,45.562,28.253,44.307,28.253L44.307,28.253z M44.307,31.848
			c-0.727,0-1.32-0.591-1.32-1.317c0-0.728,0.594-1.319,1.32-1.319s1.318,0.591,1.318,1.319
			C45.625,31.257,45.034,31.848,44.307,31.848L44.307,31.848z"/>
		<path fill="#FCE8CB" d="M61.792,30.53c0,0.992-0.804,1.797-1.797,1.797c-0.991,0-1.798-0.805-1.798-1.797
			c0-0.993,0.807-1.797,1.798-1.797C60.988,28.733,61.792,29.537,61.792,30.53L61.792,30.53z"/>
		<path fill="#3A312A" d="M59.995,28.253c-1.257,0-2.277,1.021-2.277,2.277c0,1.254,1.021,2.276,2.277,2.276
			c1.254,0,2.276-1.021,2.276-2.276C62.271,29.274,61.249,28.253,59.995,28.253L59.995,28.253z M59.995,31.848
			c-0.728,0-1.319-0.591-1.319-1.317c0-0.728,0.592-1.319,1.319-1.319s1.317,0.591,1.317,1.319
			C61.313,31.257,60.723,31.848,59.995,31.848L59.995,31.848z"/>
		<path fill="#FCE8CB" d="M52.15,21.689c-4.4,0-7.968,3.566-7.968,7.968c0,4.402,4.408,11.156,7.968,11.156
			c3.729,0,7.968-6.755,7.968-11.156C60.118,25.256,56.553,21.689,52.15,21.689L52.15,21.689z"/>
		<path fill="#3A312A" d="M52.15,21.21c-4.656,0-8.448,3.79-8.448,8.447c0,4.594,4.533,11.634,8.448,11.634
			c3.996,0,8.447-6.935,8.447-11.634C60.6,25,56.809,21.21,52.15,21.21L52.15,21.21z M52.15,40.334
			c-3.304,0-7.489-6.619-7.489-10.677c0-4.129,3.359-7.489,7.489-7.489c4.129,0,7.488,3.359,7.488,7.489
			C59.641,33.776,55.551,40.334,52.15,40.334L52.15,40.334z"/>
		<path fill="#3A312A" d="M54.482,34.375c-0.248-0.094-0.522,0.033-0.615,0.28c-0.16,0.425-0.758,1.058-1.751,1.058
			c-0.849,0-1.409-0.348-1.765-1.095c-0.114-0.239-0.399-0.34-0.637-0.227c-0.238,0.115-0.342,0.4-0.227,0.639
			c0.518,1.089,1.404,1.641,2.629,1.641c1.386,0,2.344-0.871,2.646-1.679C54.855,34.744,54.729,34.467,54.482,34.375L54.482,34.375z
			"/>
		<path fill="#3A312A" d="M49.191,28.79c-0.43,0-0.778,0.349-0.778,0.777c0,0.43,0.349,0.778,0.778,0.778
			c0.429,0,0.777-0.348,0.777-0.778C49.969,29.139,49.621,28.79,49.191,28.79L49.191,28.79z"/>
		<path fill="#3A312A" d="M54.818,28.79c-0.432,0-0.779,0.349-0.779,0.777c0,0.43,0.35,0.778,0.779,0.778
			c0.428,0,0.777-0.348,0.777-0.778C55.596,29.139,55.246,28.79,54.818,28.79L54.818,28.79z"/>
		<path fill="#F5978A" d="M47.637,30.878c-0.742,0-1.34,0.449-1.34,1.001c0,0.552,0.599,1.002,1.34,1.002
			c0.74,0,1.339-0.449,1.339-1.002C48.976,31.326,48.377,30.878,47.637,30.878L47.637,30.878z"/>
		<path fill="#F5978A" d="M56.373,30.878c-0.741,0-1.341,0.449-1.341,1.001c0,0.552,0.6,1.002,1.341,1.002
			c0.738,0,1.338-0.449,1.338-1.002C57.711,31.326,57.111,30.878,56.373,30.878L56.373,30.878z"/>
		<path fill="#87796F" d="M61.395,28.141c-0.123-0.809-0.312-1.607-0.601-2.378c-1.351-3.602-3.899-6.359-7.763-6.809
			c0.188,1.381,0.468,2.754,1.07,4.007c0.416,0.86,0.975,1.644,1.572,2.387c1.646,2.044,3.657,3.841,5.941,5.115
			C61.574,29.684,61.514,28.905,61.395,28.141L61.395,28.141z"/>
		<path fill="#3A312A" d="M61.867,28.067c-0.143-0.92-0.346-1.729-0.626-2.473c-1.56-4.159-4.455-6.686-8.155-7.117
			c-0.146-0.019-0.293,0.034-0.396,0.141c-0.104,0.105-0.15,0.253-0.133,0.4c0.164,1.193,0.438,2.745,1.115,4.15
			c0.375,0.775,0.891,1.563,1.631,2.479c1.756,2.182,3.859,3.991,6.08,5.234c0.073,0.04,0.152,0.06,0.232,0.06
			c0.089,0,0.176-0.024,0.254-0.071c0.148-0.094,0.234-0.26,0.225-0.434C62.059,29.782,62,28.92,61.867,28.067L61.867,28.067z
			 M56.048,25.047c-0.69-0.858-1.173-1.588-1.513-2.295c-0.51-1.056-0.77-2.19-0.936-3.227c3.027,0.588,5.408,2.84,6.743,6.405
			c0.257,0.682,0.446,1.428,0.577,2.283c0.071,0.464,0.12,0.936,0.155,1.373C59.249,28.434,57.523,26.879,56.048,25.047
			L56.048,25.047z"/>
		<path fill="#87796F" d="M51.895,18.888c-4.734,0-9.319,3.977-9.207,8.874c0.01,0.498,0.048,0.998,0.106,1.497
			c5.062-2.188,9.999-5.025,13.392-9.297C54.96,19.275,53.531,18.888,51.895,18.888L51.895,18.888z"/>
		<path fill="#3A312A" d="M56.654,19.869c-0.028-0.138-0.112-0.257-0.234-0.325c-1.343-0.754-2.865-1.135-4.525-1.135
			c-2.604,0-5.187,1.114-7.085,3.059c-1.729,1.77-2.651,4.007-2.599,6.302c0.01,0.495,0.048,1.014,0.109,1.542
			c0.018,0.151,0.106,0.284,0.236,0.359c0.074,0.043,0.156,0.064,0.241,0.064c0.063,0,0.128-0.013,0.189-0.039
			c6.314-2.729,10.628-5.728,13.578-9.438C56.646,20.149,56.682,20.007,56.654,19.869L56.654,19.869z M43.206,28.554
			c-0.02-0.272-0.034-0.542-0.04-0.804c-0.047-2.035,0.778-4.029,2.326-5.612c1.696-1.735,4.089-2.771,6.402-2.771
			c1.285,0,2.476,0.252,3.545,0.75C52.702,23.376,48.785,26.076,43.206,28.554L43.206,28.554z"/>
		<path fill="#CCAE8B" d="M52.15,41.292c-0.846,0-1.719-0.333-2.569-0.891v0.878c0.85,0.559,1.724,0.891,2.569,0.891
			c0.854,0,1.725-0.32,2.567-0.859v-0.878C53.875,40.973,53.004,41.292,52.15,41.292L52.15,41.292z"/>
		<path fill="#6B5B51" d="M51.991,50.816c-0.253,0-0.501,0.021-0.741,0.064c1.639,0.303,2.941,1.57,3.292,3.192
			c0.019,0.005,0.037,0.011,0.058,0.017c0.18,0.051,0.354,0.104,0.53,0.162c0.041,0.018,0.082,0.033,0.123,0.045
			c0.174,0.063,0.343,0.133,0.509,0.204c0.038,0.019,0.081,0.035,0.118,0.054c0.079,0.033,0.159,0.068,0.233,0.105
			C55.965,52.516,54.176,50.816,51.991,50.816L51.991,50.816z"/>
		<path fill="#6B5B51" d="M61.277,63.885c-0.135-0.888-0.332-1.662-0.602-2.371c-0.945-2.531-2.402-4.425-4.23-5.568
			c-0.137,0.164-0.275,0.328-0.416,0.488c1.503,1.162,2.709,2.881,3.533,5.08c0.27,0.709,0.467,1.483,0.601,2.371
			c0.032,0.217,0.063,0.436,0.087,0.65c0.395,0.289,0.792,0.563,1.193,0.814C61.408,64.889,61.354,64.383,61.277,63.885
			L61.277,63.885z"/>
		<path fill="#6B5B51" d="M53.639,54.846c-2.574,2.821-6.063,5.236-10.784,7.469c-0.045,0.359-0.064,0.728-0.055,1.094
			c0.006,0.283,0.022,0.568,0.046,0.861c5.822-2.582,9.901-5.396,12.75-8.797C54.982,55.184,54.328,54.973,53.639,54.846
			L53.639,54.846z"/>
		<path fill="#6B5B51" d="M53.396,19.491c-2.424,2.733-5.714,5.07-10.179,7.222c-0.042,0.341-0.061,0.689-0.052,1.037
			c0.007,0.262,0.019,0.53,0.039,0.805c5.579-2.481,9.497-5.178,12.23-8.438C54.8,19.82,54.117,19.61,53.396,19.491L53.396,19.491z"
			/>
		<path fill="#6B5B51" d="M60.92,28.213c-0.13-0.855-0.318-1.599-0.574-2.283c-0.908-2.427-2.305-4.242-4.058-5.344
			c-0.146,0.176-0.291,0.349-0.438,0.517c1.409,1.118,2.547,2.749,3.325,4.827c0.255,0.684,0.442,1.427,0.576,2.283
			c0.026,0.169,0.05,0.338,0.067,0.504c0.412,0.309,0.832,0.599,1.257,0.868C61.042,29.149,60.993,28.679,60.92,28.213L60.92,28.213
			z"/>
	</g>
</g>
</svg>
