<?xml version="1.0" encoding="utf-8"?>
<!-- Generator: Adobe Illustrator 16.0.0, SVG Export Plug-In . SVG Version: 6.00 Build 0)  -->
<!DOCTYPE svg PUBLIC "-//W3C//DTD SVG 1.1//EN" "http://www.w3.org/Graphics/SVG/1.1/DTD/svg11.dtd">
<svg version="1.1" id="Layer_1" xmlns="http://www.w3.org/2000/svg" xmlns:xlink="http://www.w3.org/1999/xlink" x="0px" y="0px"
	 width="100px" height="100px" viewBox="0 0 100 100" enable-background="new 0 0 100 100" xml:space="preserve">
<circle fill="#FFF59D" cx="49.999" cy="49.87" r="50"/>
<g>
	<path fill="#FCE8CB" d="M60.033,63.721h-5.447v-3.555h-9.153v3.555h-5.448c-4.554,0-8.246,3.692-8.246,8.246v7.473h36.537v-7.473
		C68.276,67.413,64.588,63.721,60.033,63.721L60.033,63.721z M60.033,63.721"/>
	<path fill="#3A312A" d="M60.033,63.259h-4.985v-3.093c0-0.254-0.208-0.463-0.463-0.463h-9.152c-0.257,0-0.463,0.209-0.463,0.463
		v3.093h-4.987c-4.8,0-8.705,3.905-8.705,8.708v7.473c0,0.255,0.206,0.461,0.461,0.461h36.537c0.255,0,0.464-0.206,0.464-0.461
		v-7.473C68.74,67.164,64.833,63.259,60.033,63.259L60.033,63.259z M67.814,78.978H32.202v-7.011c0-4.292,3.491-7.783,7.783-7.783
		h5.448c0.255,0,0.461-0.204,0.461-0.463v-3.093h8.229v3.093c0,0.259,0.207,0.463,0.462,0.463h5.447
		c4.294,0,7.783,3.491,7.783,7.783v7.011H67.814z M67.814,78.978"/>
	<path fill="#8AC6DD" d="M60.033,63.721H58.73l0.034,0.024l-5.667,7.517l-2.922-2.203l-2.925,2.203l-5.665-7.517l0.034-0.024h-1.637
		c-4.551,0-8.243,3.692-8.243,8.243v7.478h36.537v-7.478C68.276,67.413,64.588,63.721,60.033,63.721L60.033,63.721z M60.033,63.721"
		/>
	<path fill="#3A312A" d="M60.033,63.259H58.73c-0.2,0-0.377,0.13-0.438,0.32c-0.005,0.013-0.01,0.029-0.012,0.042l-5.273,6.993
		l-2.554-1.927c-0.164-0.124-0.391-0.124-0.556,0l-2.555,1.927l-5.271-6.993c-0.003-0.013-0.008-0.029-0.011-0.042
		c-0.063-0.19-0.239-0.32-0.439-0.32h-1.637c-4.8,0-8.705,3.905-8.705,8.708v7.475c0,0.255,0.206,0.462,0.461,0.462h36.539
		c0.256,0,0.462-0.207,0.462-0.462v-7.475C68.74,67.164,64.833,63.259,60.033,63.259L60.033,63.259z M67.814,78.978H32.201v-7.014
		c0-4.289,3.489-7.78,7.781-7.78h1.354l5.546,7.354c0.152,0.204,0.443,0.246,0.647,0.091l2.646-1.994l2.646,1.994
		c0.203,0.155,0.493,0.113,0.646-0.091l5.547-7.354h1.02c4.294,0,7.783,3.491,7.783,7.78v7.014H67.814z M67.814,78.978"/>
	<path fill-rule="evenodd" clip-rule="evenodd" fill="#FCE8CB" d="M38.146,40.993c-1.268-1.268-3.323-1.268-4.588-0.001
		c-1.268,1.268-1.268,3.322,0,4.588c1.265,1.267,3.32,1.267,4.588,0C39.412,44.313,39.412,42.26,38.146,40.993L38.146,40.993z
		 M38.146,40.993"/>
	<path fill="#3A312A" d="M35.851,39.58c-2.044,0-3.705,1.662-3.705,3.706c0,2.043,1.66,3.706,3.705,3.706
		c2.043,0,3.707-1.663,3.707-3.706C39.557,41.242,37.894,39.58,35.851,39.58L35.851,39.58z M35.851,46.068
		c-1.533,0-2.781-1.25-2.781-2.782c0-1.534,1.248-2.782,2.781-2.782c1.535,0,2.782,1.248,2.782,2.782
		C38.633,44.819,37.385,46.068,35.851,46.068L35.851,46.068z M35.851,46.068"/>
	<path fill-rule="evenodd" clip-rule="evenodd" fill="#FCE8CB" d="M67.411,43.287c0,1.791-1.453,3.243-3.246,3.243
		c-1.79,0-3.244-1.452-3.244-3.243c0-1.793,1.454-3.244,3.244-3.244C65.958,40.043,67.411,41.494,67.411,43.287L67.411,43.287z
		 M67.411,43.287"/>
	<path fill="#3A312A" d="M64.165,39.58c-2.042,0-3.706,1.662-3.706,3.706c0,2.043,1.664,3.706,3.706,3.706
		c2.044,0,3.708-1.663,3.708-3.706C67.873,41.242,66.209,39.58,64.165,39.58L64.165,39.58z M64.165,46.068
		c-1.533,0-2.78-1.25-2.78-2.782c0-1.534,1.248-2.782,2.78-2.782c1.535,0,2.783,1.248,2.783,2.782
		C66.948,44.819,65.7,46.068,64.165,46.068L64.165,46.068z M64.165,46.068"/>
	<path fill="#FCE8CB" d="M50.009,27.33c-7.941,0-14.381,6.438-14.381,14.381c0,7.943,7.955,20.133,14.381,20.133
		c6.731,0,14.38-12.19,14.38-20.133C64.389,33.769,57.952,27.33,50.009,27.33L50.009,27.33z M50.009,27.33"/>
	<path fill="#3A312A" d="M50.009,26.868c-8.183,0-14.843,6.66-14.843,14.843c0,3.869,1.862,8.968,4.863,13.309
		c3.152,4.563,6.883,7.288,9.979,7.288c7.024,0,14.843-12.277,14.843-20.597C64.852,33.527,58.193,26.868,50.009,26.868
		L50.009,26.868z M50.009,61.383c-2.792,0-6.239-2.576-9.22-6.89c-2.899-4.195-4.7-9.091-4.7-12.782
		c0-7.674,6.245-13.919,13.92-13.919s13.92,6.246,13.92,13.919C63.929,49.479,56.463,61.383,50.009,61.383L50.009,61.383z
		 M50.009,61.383"/>
	<path fill="#3A312A" d="M44.933,40.146c-0.776,0-1.404,0.628-1.404,1.403c0,0.776,0.628,1.404,1.404,1.404
		c0.773,0,1.403-0.627,1.403-1.404C46.335,40.774,45.706,40.146,44.933,40.146L44.933,40.146z M44.933,40.146"/>
	<path fill="#3A312A" d="M55.085,40.146c-0.773,0-1.403,0.628-1.403,1.403c0,0.776,0.63,1.404,1.403,1.404
		c0.776,0,1.404-0.627,1.404-1.404C56.489,40.774,55.861,40.146,55.085,40.146L55.085,40.146z M55.085,40.146"/>
	<path fill="#F5978A" d="M42.127,43.914c-1.336,0-2.419,0.81-2.419,1.807c0,1,1.083,1.808,2.419,1.808
		c1.333,0,2.416-0.809,2.416-1.808C44.543,44.724,43.46,43.914,42.127,43.914L42.127,43.914z M42.127,43.914"/>
	<path fill="#F5978A" d="M57.891,43.914c-1.334,0-2.418,0.81-2.418,1.807c0,1,1.084,1.808,2.418,1.808
		c1.335,0,2.419-0.809,2.419-1.808C60.31,44.724,59.227,43.914,57.891,43.914L57.891,43.914z M57.891,43.914"/>
	<path fill="#CCAE8B" d="M54.136,63.724v-2.71c-1.363,0.812-2.763,1.282-4.125,1.282c-1.359,0-2.76-0.494-4.127-1.331v2.759
		c0,0.138-0.063,0.265-0.167,0.352c1.429,1.001,2.892,1.597,4.293,1.597c1.425,0,2.901-0.582,4.333-1.57
		C54.218,64.021,54.136,63.881,54.136,63.724L54.136,63.724z M54.136,63.724"/>
	<path fill="#87796F" d="M65.061,38.388c0-7.861-6.665-14.231-14.885-14.231c-8.221,0-14.885,6.37-14.885,14.231
		c0,0.832,0.15,1.451,0.431,2.225c0.131,0.366,2.262-0.8,2.445-0.928c0.906-0.639,1.649-1.505,2.202-2.462
		c0.231-0.398,0.421-0.804,0.575-1.209c0.49-1.292,1.824-4.89,3.177-4.608c1.814,0.38,3.871,0.593,6.055,0.593
		c2.182,0,4.239-0.212,6.054-0.593c1.354-0.282,2.688,3.316,3.178,4.608c0.152,0.405,0.347,0.811,0.575,1.209
		c0.913,1.584,2.46,3.091,4.342,3.366c0.007-0.09,0.122-0.122,0.207-0.152C65.146,40.211,65.061,38.881,65.061,38.388L65.061,38.388
		z M65.061,38.388"/>
	<path fill="#3A312A" d="M65.524,38.547l-0.003-0.159c0-8.103-6.886-14.693-15.346-14.693c-8.461,0-15.347,6.591-15.347,14.693
		c0,0.928,0.175,1.6,0.457,2.383c0.058,0.164,0.192,0.288,0.364,0.343c0.056,0.018,0.121,0.026,0.194,0.026
		c0.821,0,2.571-1.065,2.587-1.076c0.915-0.644,1.721-1.547,2.338-2.611c0.237-0.412,0.44-0.84,0.607-1.275l0.03-0.081
		c1.461-3.858,2.267-4.31,2.619-4.238c1.915,0.4,3.985,0.601,6.15,0.601c2.164,0,4.233-0.201,6.148-0.601
		c0.351-0.072,1.158,0.379,2.62,4.238l0.032,0.081c0.164,0.435,0.368,0.863,0.604,1.276c1.151,1.99,2.9,3.333,4.679,3.592
		c0.128,0.019,0.26-0.018,0.358-0.1c0.028-0.023,0.055-0.049,0.076-0.078C65.553,40.551,65.534,39.248,65.524,38.547L65.524,38.547z
		 M64.352,40.01c-0.067,0.022-0.13,0.05-0.184,0.082c-1.426-0.297-2.826-1.439-3.785-3.1c-0.213-0.37-0.396-0.754-0.544-1.141
		l-0.031-0.081c-0.97-2.559-2.168-5.134-3.673-4.816c-1.854,0.386-3.859,0.583-5.959,0.583c-2.102,0-4.106-0.196-5.961-0.583
		c-1.51-0.315-2.703,2.258-3.674,4.815l-0.03,0.082c-0.147,0.388-0.331,0.771-0.543,1.14c-0.548,0.948-1.264,1.75-2.066,2.315
		c-0.241,0.162-1.34,0.726-1.841,0.878c-0.191-0.577-0.307-1.108-0.307-1.796c0-7.592,6.468-13.77,14.423-13.77
		c7.952,0,14.421,6.177,14.421,13.77l0.002,0.173C64.617,39.814,64.43,39.981,64.352,40.01L64.352,40.01z M64.352,40.01"/>
	<rect x="48.891" y="69.059" fill="#D7E057" width="2.569" height="8.552"/>
	<path fill="#3A312A" d="M51.46,68.596h-2.569c-0.255,0-0.462,0.206-0.462,0.463v3.021c0,0.256,0.207,0.462,0.462,0.462
		c0.255,0,0.461-0.206,0.461-0.462v-2.559h1.643v7.628h-1.643v-0.888c0-0.255-0.207-0.462-0.461-0.462
		c-0.255,0-0.462,0.207-0.462,0.462v1.35c0,0.255,0.207,0.462,0.462,0.462h2.569c0.253,0,0.462-0.207,0.462-0.462v-8.552
		C51.922,68.802,51.713,68.596,51.46,68.596L51.46,68.596z M51.46,68.596"/>
	<path fill="#D7E057" d="M41.588,63.742l2.937-2.212l5.665,7.516l-2.937,2.213L41.588,63.742z M41.588,63.742"/>
	<path fill="#3A312A" d="M50.557,68.771l-5.665-7.517c-0.155-0.204-0.444-0.244-0.647-0.092l-2.937,2.215
		c-0.098,0.072-0.163,0.183-0.18,0.302c-0.016,0.122,0.014,0.246,0.089,0.345l5.665,7.515c0.073,0.099,0.183,0.164,0.302,0.181
		c0.023,0.002,0.044,0.004,0.065,0.004c0.101,0,0.199-0.033,0.278-0.094l2.935-2.212C50.67,69.262,50.71,68.973,50.557,68.771
		L50.557,68.771z M47.342,70.612l-5.107-6.776l2.197-1.656l5.107,6.778L47.342,70.612z M47.342,70.612"/>
	<path fill="#D7E057" d="M50.165,69.051l5.663-7.517l2.937,2.213l-5.666,7.517L50.165,69.051z M50.165,69.051"/>
	<path fill="#3A312A" d="M59.22,63.679c-0.017-0.119-0.081-0.229-0.179-0.304l-2.936-2.213c-0.204-0.152-0.492-0.112-0.647,0.092
		l-5.665,7.517c-0.152,0.202-0.112,0.491,0.092,0.646l2.937,2.212c0.084,0.063,0.181,0.094,0.276,0.094
		c0.142,0,0.279-0.063,0.369-0.185l5.666-7.515C59.205,63.925,59.238,63.801,59.22,63.679L59.22,63.679z M53.007,70.612
		l-2.198-1.654l5.109-6.778l2.197,1.656L53.007,70.612z M53.007,70.612"/>
	<path fill="#3A312A" d="M38.583,73.072c-0.256,0-0.461,0.207-0.461,0.462v5.907c0,0.255,0.206,0.462,0.461,0.462
		c0.254,0,0.462-0.207,0.462-0.462v-5.907C39.045,73.279,38.837,73.072,38.583,73.072L38.583,73.072z M38.583,73.072"/>
	<path fill="#3A312A" d="M61.768,73.072c-0.255,0-0.464,0.207-0.464,0.462v5.907c0,0.255,0.209,0.462,0.464,0.462
		c0.254,0,0.462-0.207,0.462-0.462v-5.907C62.229,73.279,62.021,73.072,61.768,73.072L61.768,73.072z M61.768,73.072"/>
	<path fill="#87796F" d="M52.927,50.623c-1.474-1.555-2.929-0.399-2.929,0.664c0,1.064,1.394,2.299,3.612,2.299
		c1.644,0,4.017-1.424,4.017-2.487C57.626,50.033,55.13,52.945,52.927,50.623L52.927,50.623z M52.927,50.623"/>
	<path fill="#3A312A" d="M57.802,50.499c-0.335-0.223-0.722-0.06-1.212,0.147c-0.907,0.381-2.146,0.904-3.328-0.342
		c-0.773-0.815-1.685-1.096-2.506-0.769c-0.718,0.286-1.22,1.006-1.22,1.75c0,1.328,1.559,2.763,4.076,2.763
		c1.81,0,4.479-1.555,4.479-2.952C58.088,50.759,57.933,50.584,57.802,50.499L57.802,50.499z M53.609,53.123
		c-2.028,0-3.15-1.085-3.15-1.837c0-0.362,0.274-0.745,0.64-0.892c0.111-0.045,0.228-0.066,0.347-0.066
		c0.367,0,0.763,0.21,1.146,0.613c1.622,1.71,3.401,0.959,4.357,0.557c0.021-0.008,0.043-0.018,0.063-0.027
		C56.518,52.167,54.914,53.123,53.609,53.123L53.609,53.123z M53.609,53.123"/>
	<path fill="#87796F" d="M47.068,50.623c-2.204,2.323-4.701-0.589-4.701,0.475c0,1.063,2.373,2.487,4.016,2.487
		c2.218,0,3.615-1.234,3.615-2.299C49.998,50.223,48.542,49.068,47.068,50.623L47.068,50.623z M47.068,50.623"/>
	<g>
		<defs>
			<rect id="SVGID_1_" x="24.033" y="16.816" width="44.733" height="63.087"/>
		</defs>
		<clipPath id="SVGID_2_">
			<use xlink:href="#SVGID_1_"  overflow="visible"/>
		</clipPath>
		<path clip-path="url(#SVGID_2_)" fill="#3A312A" d="M49.239,49.537c-0.821-0.327-1.733-0.046-2.506,0.769
			c-1.181,1.246-2.422,0.722-3.328,0.342c-0.491-0.208-0.877-0.371-1.212-0.148c-0.131,0.086-0.287,0.26-0.287,0.599
			c0,1.397,2.671,2.951,4.478,2.951c2.518,0,4.076-1.435,4.076-2.763C50.459,50.542,49.958,49.823,49.239,49.537L49.239,49.537z
			 M46.383,53.123c-1.304,0-2.906-0.956-3.401-1.652c0.022,0.01,0.042,0.02,0.063,0.027c0.957,0.402,2.735,1.153,4.359-0.557
			c0.505-0.534,1.036-0.728,1.491-0.546c0.366,0.146,0.64,0.53,0.64,0.892C49.536,52.038,48.413,53.123,46.383,53.123L46.383,53.123
			z M46.383,53.123"/>
		<path clip-path="url(#SVGID_2_)" fill="#87796F" d="M49.906,18.99c-10.138,5.964-16.022-5.501-16.022-0.271
			c0,1.652,0.666,3.3,1.54,4.799l2.42,3.431c2.44,3.073,5.361,6.35,8.889,7.354c5.681,1.616,15.733-0.399,15.733-8.576
			C62.466,20.499,58.085,14.18,49.906,18.99L49.906,18.99z M49.906,18.99"/>
		<path clip-path="url(#SVGID_2_)" fill="#3A312A" d="M58.75,17.705c-1.75-1.002-4.746-1.66-9.079,0.887
			c-5.874,3.457-10.251,0.831-12.866-0.737c-1.262-0.756-2.094-1.254-2.755-0.88c-0.558,0.315-0.628,1.098-0.628,1.746
			c0,1.536,0.525,3.182,1.603,5.033c0.129,0.22,0.41,0.293,0.63,0.166c0.221-0.129,0.296-0.413,0.167-0.632
			c-0.995-1.706-1.478-3.2-1.478-4.567c0-0.814,0.158-0.94,0.162-0.94c0.192-0.112,1.172,0.479,1.822,0.868
			c2.608,1.564,7.464,4.477,13.813,0.742c3.125-1.839,5.944-2.145,8.15-0.884c2.564,1.467,3.712,4.684,3.712,7.222
			c0,2.573-1.031,4.658-3.063,6.192c-3.395,2.563-8.649,2.917-12.083,1.939c-3.335-0.947-6.13-4.018-8.653-7.196
			c-0.159-0.201-0.449-0.235-0.649-0.075c-0.199,0.158-0.233,0.45-0.075,0.649c2.618,3.298,5.538,6.492,9.124,7.511
			c1.205,0.342,2.618,0.53,4.105,0.53c3.028,0,6.351-0.779,8.787-2.619c2.246-1.697,3.432-4.092,3.432-6.931
			C62.93,22.923,61.637,19.354,58.75,17.705L58.75,17.705z M58.75,17.705"/>
	</g>
	<path fill="#6B5B51" d="M58.292,18.505c-1.37-0.783-2.975-0.961-4.747-0.545c0.459,0.123,0.899,0.309,1.315,0.545
		c2.567,1.466,3.713,4.684,3.713,7.223c0,2.572-1.029,4.655-3.063,6.192c-1.815,1.368-4.159,2.108-6.472,2.348
		c3.225,0.347,7.168-0.281,9.902-2.348c2.032-1.537,3.063-3.62,3.063-6.192C62.004,23.189,60.855,19.972,58.292,18.505
		L58.292,18.505z M58.292,18.505"/>
</g>
</svg>
