<?xml version="1.0" encoding="utf-8"?>
<!-- Generator: Adobe Illustrator 16.0.0, SVG Export Plug-In . SVG Version: 6.00 Build 0)  -->
<!DOCTYPE svg PUBLIC "-//W3C//DTD SVG 1.1//EN" "http://www.w3.org/Graphics/SVG/1.1/DTD/svg11.dtd">
<svg version="1.1" xmlns="http://www.w3.org/2000/svg" xmlns:xlink="http://www.w3.org/1999/xlink" x="0px" y="0px" width="100px"
	 height="100px" viewBox="0 0 100 100" enable-background="new 0 0 100 100" xml:space="preserve">
<g id="Layer_1" display="none">
	<circle display="inline" fill="#FFF59D" cx="49.999" cy="49.87" r="50"/>
	<g display="inline">
		<path fill="#FCE8CB" d="M60.033,63.721h-5.447v-3.555h-9.153v3.555h-5.448c-4.554,0-8.246,3.692-8.246,8.246v7.473h36.537v-7.473
			C68.276,67.413,64.588,63.721,60.033,63.721L60.033,63.721z M60.033,63.721"/>
		<path fill="#3A312A" d="M60.033,63.259h-4.985v-3.093c0-0.254-0.208-0.463-0.463-0.463h-9.152c-0.257,0-0.463,0.209-0.463,0.463
			v3.093h-4.987c-4.8,0-8.705,3.905-8.705,8.708v7.473c0,0.255,0.206,0.461,0.461,0.461h36.537c0.255,0,0.464-0.206,0.464-0.461
			v-7.473C68.74,67.164,64.833,63.259,60.033,63.259L60.033,63.259z M67.814,78.978H32.202v-7.011c0-4.292,3.491-7.783,7.783-7.783
			h5.448c0.255,0,0.461-0.204,0.461-0.463v-3.093h8.229v3.093c0,0.259,0.207,0.463,0.462,0.463h5.447
			c4.294,0,7.783,3.491,7.783,7.783v7.011H67.814z M67.814,78.978"/>
		<path fill="#8AC6DD" d="M60.033,63.721H58.73l0.034,0.024l-5.667,7.517l-2.922-2.203l-2.925,2.203l-5.665-7.517l0.034-0.024
			h-1.637c-4.551,0-8.243,3.692-8.243,8.243v7.478h36.537v-7.478C68.276,67.413,64.588,63.721,60.033,63.721L60.033,63.721z
			 M60.033,63.721"/>
		<path fill="#3A312A" d="M60.033,63.259H58.73c-0.2,0-0.377,0.13-0.438,0.32c-0.005,0.013-0.01,0.029-0.012,0.042l-5.273,6.993
			l-2.554-1.927c-0.164-0.124-0.391-0.124-0.556,0l-2.555,1.927l-5.271-6.993c-0.003-0.013-0.008-0.029-0.011-0.042
			c-0.063-0.19-0.239-0.32-0.439-0.32h-1.637c-4.8,0-8.705,3.905-8.705,8.708v7.475c0,0.255,0.206,0.462,0.461,0.462h36.539
			c0.256,0,0.462-0.207,0.462-0.462v-7.475C68.74,67.164,64.833,63.259,60.033,63.259L60.033,63.259z M67.814,78.978H32.201v-7.014
			c0-4.289,3.489-7.78,7.781-7.78h1.354l5.546,7.354c0.152,0.204,0.443,0.246,0.647,0.091l2.646-1.994l2.646,1.994
			c0.203,0.155,0.493,0.113,0.646-0.091l5.547-7.354h1.02c4.294,0,7.783,3.491,7.783,7.78v7.014H67.814z M67.814,78.978"/>
		<path fill-rule="evenodd" clip-rule="evenodd" fill="#FCE8CB" d="M38.146,40.993c-1.268-1.268-3.323-1.268-4.588-0.001
			c-1.268,1.268-1.268,3.322,0,4.588c1.265,1.267,3.32,1.267,4.588,0C39.412,44.313,39.412,42.26,38.146,40.993L38.146,40.993z
			 M38.146,40.993"/>
		<path fill="#3A312A" d="M35.851,39.58c-2.044,0-3.705,1.662-3.705,3.706c0,2.043,1.66,3.706,3.705,3.706
			c2.043,0,3.707-1.663,3.707-3.706C39.557,41.242,37.894,39.58,35.851,39.58L35.851,39.58z M35.851,46.068
			c-1.533,0-2.781-1.25-2.781-2.782c0-1.534,1.248-2.782,2.781-2.782c1.535,0,2.782,1.248,2.782,2.782
			C38.633,44.819,37.385,46.068,35.851,46.068L35.851,46.068z M35.851,46.068"/>
		<path fill-rule="evenodd" clip-rule="evenodd" fill="#FCE8CB" d="M67.411,43.287c0,1.791-1.453,3.243-3.246,3.243
			c-1.79,0-3.244-1.452-3.244-3.243c0-1.793,1.454-3.244,3.244-3.244C65.958,40.043,67.411,41.494,67.411,43.287L67.411,43.287z
			 M67.411,43.287"/>
		<path fill="#3A312A" d="M64.165,39.58c-2.042,0-3.706,1.662-3.706,3.706c0,2.043,1.664,3.706,3.706,3.706
			c2.044,0,3.708-1.663,3.708-3.706C67.873,41.242,66.209,39.58,64.165,39.58L64.165,39.58z M64.165,46.068
			c-1.533,0-2.78-1.25-2.78-2.782c0-1.534,1.248-2.782,2.78-2.782c1.535,0,2.783,1.248,2.783,2.782
			C66.948,44.819,65.7,46.068,64.165,46.068L64.165,46.068z M64.165,46.068"/>
		<path fill="#FCE8CB" d="M50.009,27.33c-7.941,0-14.381,6.438-14.381,14.381c0,7.943,7.955,20.133,14.381,20.133
			c6.731,0,14.38-12.19,14.38-20.133C64.389,33.769,57.952,27.33,50.009,27.33L50.009,27.33z M50.009,27.33"/>
		<path fill="#3A312A" d="M50.009,26.868c-8.183,0-14.843,6.66-14.843,14.843c0,3.869,1.862,8.968,4.863,13.309
			c3.152,4.563,6.883,7.288,9.979,7.288c7.024,0,14.843-12.277,14.843-20.597C64.852,33.527,58.193,26.868,50.009,26.868
			L50.009,26.868z M50.009,61.383c-2.792,0-6.239-2.576-9.22-6.89c-2.899-4.195-4.7-9.091-4.7-12.782
			c0-7.674,6.245-13.919,13.92-13.919s13.92,6.246,13.92,13.919C63.929,49.479,56.463,61.383,50.009,61.383L50.009,61.383z
			 M50.009,61.383"/>
		<path fill="#3A312A" d="M44.933,40.146c-0.776,0-1.404,0.628-1.404,1.403c0,0.776,0.628,1.404,1.404,1.404
			c0.773,0,1.403-0.627,1.403-1.404C46.335,40.774,45.706,40.146,44.933,40.146L44.933,40.146z M44.933,40.146"/>
		<path fill="#3A312A" d="M55.085,40.146c-0.773,0-1.403,0.628-1.403,1.403c0,0.776,0.63,1.404,1.403,1.404
			c0.776,0,1.404-0.627,1.404-1.404C56.489,40.774,55.861,40.146,55.085,40.146L55.085,40.146z M55.085,40.146"/>
		<path fill="#F5978A" d="M42.127,43.914c-1.336,0-2.419,0.81-2.419,1.807c0,1,1.083,1.808,2.419,1.808
			c1.333,0,2.416-0.809,2.416-1.808C44.543,44.724,43.46,43.914,42.127,43.914L42.127,43.914z M42.127,43.914"/>
		<path fill="#F5978A" d="M57.891,43.914c-1.334,0-2.418,0.81-2.418,1.807c0,1,1.084,1.808,2.418,1.808
			c1.335,0,2.419-0.809,2.419-1.808C60.31,44.724,59.227,43.914,57.891,43.914L57.891,43.914z M57.891,43.914"/>
		<path fill="#CCAE8B" d="M54.136,63.724v-2.71c-1.363,0.812-2.763,1.282-4.125,1.282c-1.359,0-2.76-0.494-4.127-1.331v2.759
			c0,0.138-0.063,0.265-0.167,0.352c1.429,1.001,2.892,1.597,4.293,1.597c1.425,0,2.901-0.582,4.333-1.57
			C54.218,64.021,54.136,63.881,54.136,63.724L54.136,63.724z M54.136,63.724"/>
		<path fill="#87796F" d="M65.061,38.388c0-7.861-6.665-14.231-14.885-14.231c-8.221,0-14.885,6.37-14.885,14.231
			c0,0.832,0.15,1.451,0.431,2.225c0.131,0.366,2.262-0.8,2.445-0.928c0.906-0.639,1.649-1.505,2.202-2.462
			c0.231-0.398,0.421-0.804,0.575-1.209c0.49-1.292,1.824-4.89,3.177-4.608c1.814,0.38,3.871,0.593,6.055,0.593
			c2.182,0,4.239-0.212,6.054-0.593c1.354-0.282,2.688,3.316,3.178,4.608c0.152,0.405,0.347,0.811,0.575,1.209
			c0.913,1.584,2.46,3.091,4.342,3.366c0.007-0.09,0.122-0.122,0.207-0.152C65.146,40.211,65.061,38.881,65.061,38.388
			L65.061,38.388z M65.061,38.388"/>
		<path fill="#3A312A" d="M65.524,38.547l-0.003-0.159c0-8.103-6.886-14.693-15.346-14.693c-8.461,0-15.347,6.591-15.347,14.693
			c0,0.928,0.175,1.6,0.457,2.383c0.058,0.164,0.192,0.288,0.364,0.343c0.056,0.018,0.121,0.026,0.194,0.026
			c0.821,0,2.571-1.065,2.587-1.076c0.915-0.644,1.721-1.547,2.338-2.611c0.237-0.412,0.44-0.84,0.607-1.275l0.03-0.081
			c1.461-3.858,2.267-4.31,2.619-4.238c1.915,0.4,3.985,0.601,6.15,0.601c2.164,0,4.233-0.201,6.148-0.601
			c0.351-0.072,1.158,0.379,2.62,4.238l0.032,0.081c0.164,0.435,0.368,0.863,0.604,1.276c1.151,1.99,2.9,3.333,4.679,3.592
			c0.128,0.019,0.26-0.018,0.358-0.1c0.028-0.023,0.055-0.049,0.076-0.078C65.553,40.551,65.534,39.248,65.524,38.547L65.524,38.547
			z M64.352,40.01c-0.067,0.022-0.13,0.05-0.184,0.082c-1.426-0.297-2.826-1.439-3.785-3.1c-0.213-0.37-0.396-0.754-0.544-1.141
			l-0.031-0.081c-0.97-2.559-2.168-5.134-3.673-4.816c-1.854,0.386-3.859,0.583-5.959,0.583c-2.102,0-4.106-0.196-5.961-0.583
			c-1.51-0.315-2.703,2.258-3.674,4.815l-0.03,0.082c-0.147,0.388-0.331,0.771-0.543,1.14c-0.548,0.948-1.264,1.75-2.066,2.315
			c-0.241,0.162-1.34,0.726-1.841,0.878c-0.191-0.577-0.307-1.108-0.307-1.796c0-7.592,6.468-13.77,14.423-13.77
			c7.952,0,14.421,6.177,14.421,13.77l0.002,0.173C64.617,39.814,64.43,39.981,64.352,40.01L64.352,40.01z M64.352,40.01"/>
		<rect x="48.891" y="69.059" fill="#D7E057" width="2.569" height="8.552"/>
		<path fill="#3A312A" d="M51.46,68.596h-2.569c-0.255,0-0.462,0.206-0.462,0.463v3.021c0,0.256,0.207,0.462,0.462,0.462
			c0.255,0,0.461-0.206,0.461-0.462v-2.559h1.643v7.628h-1.643v-0.888c0-0.255-0.207-0.462-0.461-0.462
			c-0.255,0-0.462,0.207-0.462,0.462v1.35c0,0.255,0.207,0.462,0.462,0.462h2.569c0.253,0,0.462-0.207,0.462-0.462v-8.552
			C51.922,68.802,51.713,68.596,51.46,68.596L51.46,68.596z M51.46,68.596"/>
		<path fill="#D7E057" d="M41.588,63.742l2.937-2.212l5.665,7.516l-2.937,2.213L41.588,63.742z M41.588,63.742"/>
		<path fill="#3A312A" d="M50.557,68.771l-5.665-7.517c-0.155-0.204-0.444-0.244-0.647-0.092l-2.937,2.215
			c-0.098,0.072-0.163,0.183-0.18,0.302c-0.016,0.122,0.014,0.246,0.089,0.345l5.665,7.515c0.073,0.099,0.183,0.164,0.302,0.181
			c0.023,0.002,0.044,0.004,0.065,0.004c0.101,0,0.199-0.033,0.278-0.094l2.935-2.212C50.67,69.262,50.71,68.973,50.557,68.771
			L50.557,68.771z M47.342,70.612l-5.107-6.776l2.197-1.656l5.107,6.778L47.342,70.612z M47.342,70.612"/>
		<path fill="#D7E057" d="M50.165,69.051l5.663-7.517l2.937,2.213l-5.666,7.517L50.165,69.051z M50.165,69.051"/>
		<path fill="#3A312A" d="M59.22,63.679c-0.017-0.119-0.081-0.229-0.179-0.304l-2.936-2.213c-0.204-0.152-0.492-0.112-0.647,0.092
			l-5.665,7.517c-0.152,0.202-0.112,0.491,0.092,0.646l2.937,2.212c0.084,0.063,0.181,0.094,0.276,0.094
			c0.142,0,0.279-0.063,0.369-0.185l5.666-7.515C59.205,63.925,59.238,63.801,59.22,63.679L59.22,63.679z M53.007,70.612
			l-2.198-1.654l5.109-6.778l2.197,1.656L53.007,70.612z M53.007,70.612"/>
		<path fill="#3A312A" d="M38.583,73.072c-0.256,0-0.461,0.207-0.461,0.462v5.907c0,0.255,0.206,0.462,0.461,0.462
			c0.254,0,0.462-0.207,0.462-0.462v-5.907C39.045,73.279,38.837,73.072,38.583,73.072L38.583,73.072z M38.583,73.072"/>
		<path fill="#3A312A" d="M61.768,73.072c-0.255,0-0.464,0.207-0.464,0.462v5.907c0,0.255,0.209,0.462,0.464,0.462
			c0.254,0,0.462-0.207,0.462-0.462v-5.907C62.229,73.279,62.021,73.072,61.768,73.072L61.768,73.072z M61.768,73.072"/>
		<path fill="#87796F" d="M52.927,50.623c-1.474-1.555-2.929-0.399-2.929,0.664c0,1.064,1.394,2.299,3.612,2.299
			c1.644,0,4.017-1.424,4.017-2.487C57.626,50.033,55.13,52.945,52.927,50.623L52.927,50.623z M52.927,50.623"/>
		<path fill="#3A312A" d="M57.802,50.499c-0.335-0.223-0.722-0.06-1.212,0.147c-0.907,0.381-2.146,0.904-3.328-0.342
			c-0.773-0.815-1.685-1.096-2.506-0.769c-0.718,0.286-1.22,1.006-1.22,1.75c0,1.328,1.559,2.763,4.076,2.763
			c1.81,0,4.479-1.555,4.479-2.952C58.088,50.759,57.933,50.584,57.802,50.499L57.802,50.499z M53.609,53.123
			c-2.028,0-3.15-1.085-3.15-1.837c0-0.362,0.274-0.745,0.64-0.892c0.111-0.045,0.228-0.066,0.347-0.066
			c0.367,0,0.763,0.21,1.146,0.613c1.622,1.71,3.401,0.959,4.357,0.557c0.021-0.008,0.043-0.018,0.063-0.027
			C56.518,52.167,54.914,53.123,53.609,53.123L53.609,53.123z M53.609,53.123"/>
		<path fill="#87796F" d="M47.068,50.623c-2.204,2.323-4.701-0.589-4.701,0.475c0,1.063,2.373,2.487,4.016,2.487
			c2.218,0,3.615-1.234,3.615-2.299C49.998,50.223,48.542,49.068,47.068,50.623L47.068,50.623z M47.068,50.623"/>
		<g>
			<defs>
				<rect id="SVGID_1_" x="24.033" y="16.816" width="44.733" height="63.087"/>
			</defs>
			<clipPath id="SVGID_2_">
				<use xlink:href="#SVGID_1_"  overflow="visible"/>
			</clipPath>
			<path clip-path="url(#SVGID_2_)" fill="#3A312A" d="M49.239,49.537c-0.821-0.327-1.733-0.046-2.506,0.769
				c-1.181,1.246-2.422,0.722-3.328,0.342c-0.491-0.208-0.877-0.371-1.212-0.148c-0.131,0.086-0.287,0.26-0.287,0.599
				c0,1.397,2.671,2.951,4.478,2.951c2.518,0,4.076-1.435,4.076-2.763C50.459,50.542,49.958,49.823,49.239,49.537L49.239,49.537z
				 M46.383,53.123c-1.304,0-2.906-0.956-3.401-1.652c0.022,0.01,0.042,0.02,0.063,0.027c0.957,0.402,2.735,1.153,4.359-0.557
				c0.505-0.534,1.036-0.728,1.491-0.546c0.366,0.146,0.64,0.53,0.64,0.892C49.536,52.038,48.413,53.123,46.383,53.123
				L46.383,53.123z M46.383,53.123"/>
			<path clip-path="url(#SVGID_2_)" fill="#87796F" d="M49.906,18.99c-10.138,5.964-16.022-5.501-16.022-0.271
				c0,1.652,0.666,3.3,1.54,4.799l2.42,3.431c2.44,3.073,5.361,6.35,8.889,7.354c5.681,1.616,15.733-0.399,15.733-8.576
				C62.466,20.499,58.085,14.18,49.906,18.99L49.906,18.99z M49.906,18.99"/>
			<path clip-path="url(#SVGID_2_)" fill="#3A312A" d="M58.75,17.705c-1.75-1.002-4.746-1.66-9.079,0.887
				c-5.874,3.457-10.251,0.831-12.866-0.737c-1.262-0.756-2.094-1.254-2.755-0.88c-0.558,0.315-0.628,1.098-0.628,1.746
				c0,1.536,0.525,3.182,1.603,5.033c0.129,0.22,0.41,0.293,0.63,0.166c0.221-0.129,0.296-0.413,0.167-0.632
				c-0.995-1.706-1.478-3.2-1.478-4.567c0-0.814,0.158-0.94,0.162-0.94c0.192-0.112,1.172,0.479,1.822,0.868
				c2.608,1.564,7.464,4.477,13.813,0.742c3.125-1.839,5.944-2.145,8.15-0.884c2.564,1.467,3.712,4.684,3.712,7.222
				c0,2.573-1.031,4.658-3.063,6.192c-3.395,2.563-8.649,2.917-12.083,1.939c-3.335-0.947-6.13-4.018-8.653-7.196
				c-0.159-0.201-0.449-0.235-0.649-0.075c-0.199,0.158-0.233,0.45-0.075,0.649c2.618,3.298,5.538,6.492,9.124,7.511
				c1.205,0.342,2.618,0.53,4.105,0.53c3.028,0,6.351-0.779,8.787-2.619c2.246-1.697,3.432-4.092,3.432-6.931
				C62.93,22.923,61.637,19.354,58.75,17.705L58.75,17.705z M58.75,17.705"/>
		</g>
		<path fill="#6B5B51" d="M58.292,18.505c-1.37-0.783-2.975-0.961-4.747-0.545c0.459,0.123,0.899,0.309,1.315,0.545
			c2.567,1.466,3.713,4.684,3.713,7.223c0,2.572-1.029,4.655-3.063,6.192c-1.815,1.368-4.159,2.108-6.472,2.348
			c3.225,0.347,7.168-0.281,9.902-2.348c2.032-1.537,3.063-3.62,3.063-6.192C62.004,23.189,60.855,19.972,58.292,18.505
			L58.292,18.505z M58.292,18.505"/>
	</g>
</g>
<g id="Layer_2" display="none">
	<circle display="inline" fill="#C5E1A5" cx="50" cy="50" r="50"/>
	<g display="inline">
		<path fill="#87796F" d="M36.458,47.658c-0.175,0.031-0.356,0.046-0.544,0.046c-0.538,0-1.042-0.132-1.487-0.362v19.73
			c1.47-1.373,3.442-2.217,5.613-2.217h5.435v-3.545h0.094C41.683,58.57,38.002,52.908,36.458,47.658L36.458,47.658z M36.458,47.658
			"/>
		<path fill="#3A312A" d="M45.836,60.934c-3.709-2.613-7.382-8.125-8.936-13.405c-0.065-0.226-0.29-0.365-0.521-0.325
			c-0.147,0.026-0.305,0.04-0.464,0.04c-0.448,0-0.876-0.106-1.276-0.311c-0.143-0.075-0.313-0.069-0.451,0.014
			c-0.138,0.083-0.221,0.233-0.221,0.396v19.73c0,0.184,0.108,0.35,0.278,0.424c0.059,0.025,0.122,0.037,0.183,0.037
			c0.115,0,0.228-0.041,0.315-0.123c1.444-1.35,3.324-2.094,5.299-2.094h5.434c0.256,0,0.461-0.203,0.461-0.461V61.59
			c0.032-0.043,0.058-0.088,0.075-0.143C46.07,61.258,46,61.047,45.836,60.934L45.836,60.934z M45.014,64.395H40.04
			c-1.871,0-3.666,0.598-5.152,1.695V48.019c0.399,0.117,0.822,0.163,1.241,0.14c1.624,5.21,5.208,10.585,8.885,13.317V64.395z
			 M45.014,64.395"/>
		<path fill="#87796F" d="M64.168,47.704c-0.179,0-0.35-0.015-0.52-0.043c-1.501,5.267-5.098,10.939-9.041,13.671v3.523h5.435
			c2.17,0,4.145,0.844,5.613,2.217v-19.73C65.211,47.572,64.701,47.704,64.168,47.704L64.168,47.704z M64.168,47.704"/>
		<path fill="#3A312A" d="M65.896,46.947c-0.138-0.084-0.31-0.09-0.452-0.015c-0.524,0.271-1.11,0.374-1.722,0.274
			c-0.231-0.037-0.452,0.103-0.517,0.329c-1.524,5.344-5.165,10.861-8.86,13.418c-0.124,0.086-0.197,0.227-0.197,0.379v3.523
			c0,0.258,0.205,0.465,0.46,0.465h5.435c1.974,0,3.855,0.74,5.298,2.09c0.087,0.082,0.201,0.123,0.315,0.123
			c0.063,0,0.125-0.012,0.185-0.037c0.167-0.072,0.276-0.24,0.276-0.424v-19.73C66.116,47.18,66.032,47.03,65.896,46.947
			L65.896,46.947z M65.194,66.09c-1.486-1.098-3.283-1.695-5.152-1.695h-4.973v-2.826c3.756-2.697,7.286-8.014,8.912-13.408
			c0.407,0.022,0.82-0.027,1.213-0.141V66.09z M65.194,66.09"/>
		<path fill="#87796F" d="M45.569,61.311c1.499,1.055,3.025,1.674,4.474,1.674c1.509,0,3.062-0.613,4.564-1.652v-0.021H45.569z
			 M45.569,61.311"/>
		<path fill="#3A312A" d="M54.607,60.848h-9.038c-0.199,0-0.378,0.129-0.438,0.324c-0.061,0.189,0.009,0.396,0.174,0.514
			c1.658,1.168,3.251,1.76,4.738,1.76c1.541,0,3.166-0.584,4.827-1.734c0.125-0.086,0.199-0.229,0.199-0.379v-0.021
			C55.069,61.055,54.862,60.848,54.607,60.848L54.607,60.848z M50.043,62.523c-0.889,0-1.834-0.254-2.826-0.752h5.753
			C51.957,62.27,50.977,62.523,50.043,62.523L50.043,62.523z M50.043,62.523"/>
		<path fill="#FCE8CB" d="M60.044,64.859h-5.436v-3.549h-9.133v3.549h-5.436c-4.542,0-8.225,3.68-8.225,8.225v7.455h36.457v-7.455
			C68.271,68.539,64.587,64.859,60.044,64.859L60.044,64.859z M60.044,64.859"/>
		<path fill="#3A312A" d="M60.044,64.398h-4.975v-3.088c0-0.256-0.207-0.461-0.461-0.461h-9.133c-0.255,0-0.461,0.205-0.461,0.461
			v3.088h-4.975c-4.789,0-8.686,3.895-8.686,8.686v7.455c0,0.254,0.206,0.461,0.461,0.461h36.457c0.255,0,0.461-0.207,0.461-0.461
			v-7.455C68.731,68.293,64.833,64.398,60.044,64.398L60.044,64.398z M67.81,80.078H32.275v-6.994c0-4.281,3.483-7.764,7.764-7.764
			h5.436c0.256,0,0.461-0.207,0.461-0.461v-3.088h8.211v3.088c0,0.254,0.205,0.461,0.461,0.461h5.436
			c4.281,0,7.766,3.482,7.766,7.764V80.078z M67.81,80.078"/>
		<path fill="#FCE8CB" d="M45.569,61.311c1.499,1.055,3.025,1.674,4.474,1.674c1.509,0,3.062-0.613,4.564-1.652v-0.021H45.569z
			 M45.569,61.311"/>
		<path fill="#3A312A" d="M54.607,60.848h-9.038c-0.199,0-0.378,0.129-0.438,0.324c-0.061,0.189,0.009,0.396,0.174,0.514
			c1.658,1.168,3.251,1.76,4.738,1.76c1.541,0,3.166-0.584,4.827-1.734c0.125-0.086,0.199-0.229,0.199-0.379v-0.021
			C55.069,61.055,54.862,60.848,54.607,60.848L54.607,60.848z M50.043,62.523c-0.889,0-1.834-0.254-2.826-0.752h5.753
			C51.957,62.27,50.977,62.523,50.043,62.523L50.043,62.523z M50.043,62.523"/>
		<rect x="38.4" y="73.273" fill="#F16C7A" width="23.28" height="7.266"/>
		<path fill="#3A312A" d="M61.681,72.813h-3.892c-0.257,0-0.461,0.207-0.461,0.461s0.204,0.461,0.461,0.461h3.431v6.344H38.861
			v-6.344h14.86c0.254,0,0.461-0.207,0.461-0.461s-0.207-0.461-0.461-0.461H38.4c-0.255,0-0.461,0.207-0.461,0.461v7.266
			c0,0.254,0.206,0.461,0.461,0.461h23.28c0.257,0,0.463-0.207,0.463-0.461v-7.266C62.144,73.02,61.938,72.813,61.681,72.813
			L61.681,72.813z M61.681,72.813"/>
		<path fill-rule="evenodd" clip-rule="evenodd" fill="#FCE8CB" d="M39.152,44.467c0,1.788-1.449,3.237-3.235,3.237
			c-1.789,0-3.237-1.449-3.237-3.237s1.448-3.236,3.237-3.236C37.704,41.231,39.152,42.68,39.152,44.467L39.152,44.467z
			 M39.152,44.467"/>
		<path fill="#3A312A" d="M35.917,40.769c-2.041,0-3.698,1.659-3.698,3.698c0,2.039,1.657,3.699,3.698,3.699
			c2.038,0,3.696-1.659,3.696-3.699C39.613,42.428,37.955,40.769,35.917,40.769L35.917,40.769z M35.917,47.244
			c-1.532,0-2.776-1.247-2.776-2.777c0-1.53,1.244-2.776,2.776-2.776c1.53,0,2.774,1.246,2.774,2.776
			C38.691,45.998,37.447,47.244,35.917,47.244L35.917,47.244z M35.917,47.244"/>
		<path fill-rule="evenodd" clip-rule="evenodd" fill="#FCE8CB" d="M65.406,41.477c-1.65-0.685-3.543,0.099-4.228,1.752
			c-0.685,1.651,0.1,3.544,1.751,4.228c1.649,0.683,3.545-0.101,4.229-1.752C67.842,44.054,67.058,42.161,65.406,41.477
			L65.406,41.477z M65.406,41.477"/>
		<path fill="#3A312A" d="M64.168,40.769c-2.04,0-3.699,1.659-3.699,3.698c0,2.039,1.659,3.699,3.699,3.699
			c2.036,0,3.696-1.659,3.696-3.699C67.864,42.428,66.204,40.769,64.168,40.769L64.168,40.769z M64.168,47.244
			c-1.532,0-2.776-1.247-2.776-2.777c0-1.53,1.244-2.776,2.776-2.776c1.529,0,2.773,1.246,2.773,2.776
			C66.941,45.998,65.697,47.244,64.168,47.244L64.168,47.244z M64.168,47.244"/>
		<path fill="#FCE8CB" d="M50.042,28.548c-7.925,0-14.35,6.423-14.35,14.347s7.938,20.089,14.35,20.089
			c6.717,0,14.348-12.165,14.348-20.089S57.966,28.548,50.042,28.548L50.042,28.548z M50.042,28.548"/>
		<path fill="#3A312A" d="M50.042,28.087c-8.166,0-14.811,6.644-14.811,14.809c0,3.86,1.859,8.946,4.852,13.278
			c3.147,4.553,6.869,7.271,9.958,7.271c7.009,0,14.811-12.248,14.811-20.55C64.851,34.73,58.206,28.087,50.042,28.087
			L50.042,28.087z M50.042,62.523c-2.787,0-6.227-2.57-9.2-6.873c-2.892-4.186-4.689-9.072-4.689-12.753
			c0-7.658,6.23-13.888,13.889-13.888c7.656,0,13.887,6.23,13.887,13.888C63.929,50.645,56.48,62.523,50.042,62.523L50.042,62.523z
			 M50.042,62.523"/>
		<path fill="#3A312A" d="M44.976,41.334c-0.774,0-1.4,0.627-1.4,1.4c0,0.773,0.626,1.401,1.4,1.401c0.774,0,1.4-0.627,1.4-1.401
			C46.376,41.961,45.75,41.334,44.976,41.334L44.976,41.334z M44.976,41.334"/>
		<path fill="#3A312A" d="M55.108,41.334c-0.775,0-1.4,0.627-1.4,1.4c0,0.773,0.625,1.401,1.4,1.401c0.772,0,1.4-0.627,1.4-1.401
			C56.509,41.961,55.881,41.334,55.108,41.334L55.108,41.334z M55.108,41.334"/>
		<path fill="#F5978A" d="M42.176,45.095c-1.332,0-2.412,0.809-2.412,1.803c0,0.996,1.081,1.803,2.412,1.803
			s2.412-0.807,2.412-1.803C44.588,45.903,43.508,45.095,42.176,45.095L42.176,45.095z M42.176,45.095"/>
		<path fill="#F5978A" d="M57.905,45.095c-1.332,0-2.411,0.809-2.411,1.803c0,0.996,1.079,1.803,2.411,1.803
			s2.414-0.807,2.414-1.803C60.319,45.903,59.239,45.095,57.905,45.095L57.905,45.095z M57.905,45.095"/>
		<path fill="#CCAE8B" d="M54.16,64.859v-2.703c-1.36,0.807-2.757,1.279-4.117,1.279c-1.355,0-2.752-0.492-4.117-1.328v2.752
			c0,0.139-0.064,0.266-0.166,0.348c1.426,1.002,2.886,1.596,4.283,1.596c1.425,0,2.896-0.58,4.323-1.566
			C54.24,65.154,54.16,65.016,54.16,64.859L54.16,64.859z M54.16,64.859"/>
		<path fill="#3A312A" d="M54.1,51.766c-0.239-0.09-0.504,0.031-0.595,0.271c-0.279,0.748-1.377,2.164-3.524,2.164
			c-1.679,0-2.837-0.721-3.542-2.201c-0.109-0.23-0.385-0.328-0.615-0.219c-0.23,0.109-0.328,0.385-0.219,0.615
			c0.861,1.811,2.333,2.727,4.375,2.727c2.305,0,3.89-1.432,4.388-2.762C54.459,52.121,54.338,51.855,54.1,51.766L54.1,51.766z
			 M54.1,51.766"/>
		<path fill="#87796F" d="M69.359,40.644c-0.261-1.692-0.649-3.358-1.257-4.971c-2.82-7.525-8.15-13.29-16.223-14.228
			c0.396,2.886,0.979,5.756,2.242,8.374c0.866,1.796,2.032,3.435,3.286,4.988c3.439,4.27,7.646,8.023,12.414,10.691
			C69.733,43.869,69.606,42.243,69.359,40.644L69.359,40.644z M69.359,40.644"/>
		<path fill="#3A312A" d="M69.815,40.575c-0.289-1.886-0.709-3.542-1.28-5.062c-3.183-8.493-9.079-13.651-16.602-14.525
			c-0.143-0.017-0.282,0.034-0.385,0.135c-0.098,0.102-0.145,0.244-0.126,0.385c0.356,2.609,0.906,5.659,2.282,8.511
			c0.764,1.583,1.825,3.197,3.343,5.077c3.63,4.508,7.97,8.243,12.549,10.805c0.07,0.04,0.148,0.058,0.226,0.058
			c0.085,0,0.169-0.023,0.243-0.07c0.144-0.089,0.225-0.249,0.216-0.416C70.207,44.114,70.087,42.331,69.815,40.575L69.815,40.575z
			 M57.766,34.518c-1.472-1.825-2.499-3.382-3.229-4.9c-1.217-2.522-1.764-5.239-2.113-7.637c6.878,1.033,12.277,5.93,15.249,13.855
			c0.549,1.46,0.952,3.057,1.233,4.878c0.21,1.373,0.329,2.771,0.405,3.958C65.106,42.187,61.127,38.691,57.766,34.518
			L57.766,34.518z M57.766,34.518"/>
		<path fill="#87796F" d="M49.505,21.306c-9.897,0-19.48,8.311-19.24,18.544c0.021,1.042,0.098,2.088,0.219,3.13
			c10.579-4.572,20.897-10.503,27.986-19.43C55.912,22.114,52.927,21.306,49.505,21.306L49.505,21.306z M49.505,21.306"/>
		<path fill="#3A312A" d="M58.925,23.462c-0.028-0.134-0.109-0.248-0.229-0.313c-2.722-1.529-5.815-2.304-9.191-2.304
			c-5.22,0-10.612,2.33-14.425,6.232c-3.511,3.593-5.385,8.133-5.276,12.783c0.021,1.022,0.095,2.09,0.221,3.173
			c0.018,0.144,0.103,0.272,0.229,0.346c0.071,0.041,0.151,0.062,0.23,0.062c0.063,0,0.125-0.013,0.184-0.038
			C43.781,37.736,52.73,31.52,58.832,23.838C58.915,23.732,58.95,23.595,58.925,23.462L58.925,23.462z M30.875,42.307
			c-0.082-0.841-0.133-1.668-0.15-2.467c-0.101-4.401,1.68-8.704,5.014-12.118c3.644-3.729,8.789-5.954,13.767-5.954
			c3.018,0,5.794,0.648,8.26,1.927C51.861,30.943,43.29,36.877,30.875,42.307L30.875,42.307z M30.875,42.307"/>
		<path fill="#6B5B51" d="M55.239,22.625c-5.595,6.562-13.469,12.039-24.524,17.058v0.005c-0.004,0.05,0,0.104,0,0.153
			c0.014,0.803,0.067,1.638,0.154,2.482c12.428-5.432,21.009-11.374,26.914-18.633C56.97,23.267,56.12,22.912,55.239,22.625
			L55.239,22.625z M55.239,22.625"/>
		<path fill="#6B5B51" d="M69.015,41.411c-0.004-0.002-0.01-0.006-0.013-0.009c-0.031-0.23-0.063-0.458-0.097-0.689
			c-0.281-1.819-0.684-3.415-1.233-4.877c-2.015-5.374-5.146-9.352-9.097-11.682c-0.277,0.34-0.559,0.682-0.85,1.018
			c3.232,2.394,5.818,6.007,7.564,10.664c0.547,1.462,0.949,3.058,1.231,4.877c0.034,0.231,0.067,0.458,0.096,0.689
			c0.006,0.003,0.009,0.006,0.017,0.009c0.072,0.563,0.135,1.12,0.184,1.66c0.824,0.584,1.663,1.123,2.509,1.624
			C69.264,43.702,69.17,42.561,69.015,41.411L69.015,41.411z M69.015,41.411"/>
		<path fill-rule="evenodd" clip-rule="evenodd" fill="#F16C7A" d="M31.916,21.839c-1.629-1.188-3.617-1.237-4.442-0.107
			c-0.824,1.129-0.17,3.007,1.458,4.195c1.63,1.189,3.618,1.237,4.441,0.109C34.198,24.905,33.546,23.028,31.916,21.839
			L31.916,21.839z M31.916,21.839"/>
		<path fill="#3A312A" d="M32.188,21.466c-1.832-1.337-4.113-1.339-5.083-0.006c-0.491,0.672-0.582,1.56-0.255,2.499
			c0.306,0.88,0.95,1.711,1.813,2.341c0.864,0.63,1.851,0.989,2.783,1.012c0.031,0,0.063,0,0.094,0c0.952,0,1.733-0.355,2.207-1.006
			C34.718,24.974,34.019,22.803,32.188,21.466L32.188,21.466z M33.002,25.763c-0.307,0.42-0.853,0.644-1.535,0.626
			c-0.747-0.019-1.55-0.315-2.262-0.835c-0.713-0.521-1.24-1.195-1.485-1.899c-0.225-0.646-0.178-1.233,0.128-1.652
			c0.304-0.418,0.836-0.623,1.461-0.623c0.729,0,1.583,0.281,2.336,0.831C33.041,23.23,33.662,24.857,33.002,25.763L33.002,25.763z
			 M33.002,25.763"/>
		<g>
			<defs>
				<rect id="SVGID_3_" x="24.264" y="18.333" width="46.038" height="62.667"/>
			</defs>
			<clipPath id="SVGID_4_">
				<use xlink:href="#SVGID_3_"  overflow="visible"/>
			</clipPath>
			<path clip-path="url(#SVGID_4_)" fill-rule="evenodd" clip-rule="evenodd" fill="#F16C7A" d="M36.309,18.88
				c-1.329-0.434-2.915,0.767-3.541,2.684c-0.626,1.917-0.058,3.822,1.269,4.257c1.33,0.433,2.915-0.768,3.542-2.684
				C38.205,21.221,37.637,19.314,36.309,18.88L36.309,18.88z M36.309,18.88"/>
			<path clip-path="url(#SVGID_4_)" fill="#3A312A" d="M38.118,20.321c-0.284-0.953-0.875-1.621-1.667-1.879
				c-1.566-0.512-3.416,0.823-4.121,2.979c-0.705,2.154-0.002,4.325,1.564,4.838c0.23,0.075,0.469,0.114,0.71,0.114
				c0.583,0,1.184-0.219,1.745-0.645c0.742-0.562,1.335-1.432,1.666-2.448C38.349,22.265,38.385,21.214,38.118,20.321L38.118,20.321
				z M37.141,22.993c-0.275,0.839-0.753,1.549-1.348,2c-0.544,0.413-1.118,0.55-1.611,0.389c-1.066-0.349-1.512-2.032-0.976-3.674
				c0.472-1.438,1.566-2.455,2.546-2.455c0.141,0,0.28,0.022,0.413,0.065c0.496,0.161,0.875,0.611,1.07,1.265
				C37.448,21.299,37.415,22.155,37.141,22.993L37.141,22.993z M37.141,22.993"/>
		</g>
		<path fill-rule="evenodd" clip-rule="evenodd" fill="#F16C7A" d="M38.104,23.864c-2.017-0.004-3.654,1.125-3.657,2.523
			s1.629,2.533,3.646,2.537c2.017,0.005,3.655-1.125,3.656-2.523C41.752,25.003,40.121,23.867,38.104,23.864L38.104,23.864z
			 M38.104,23.864"/>
		<path fill="#3A312A" d="M40.947,24.23c-0.764-0.532-1.774-0.827-2.843-0.828h-0.012c-2.26,0-4.103,1.336-4.107,2.983
			c-0.002,1.65,1.839,2.995,4.107,2.999h0.012c1.063,0,2.069-0.29,2.834-0.817c0.818-0.564,1.27-1.334,1.271-2.165
			C42.212,25.57,41.763,24.799,40.947,24.23L40.947,24.23z M41.289,26.4c-0.002,0.52-0.312,1.02-0.875,1.408
			c-0.613,0.423-1.442,0.67-2.319,0.654c-1.73-0.003-3.188-0.954-3.187-2.075c0.002-1.121,1.46-2.063,3.185-2.063h0.008
			c0.883,0.002,1.707,0.237,2.319,0.663C40.982,25.377,41.289,25.88,41.289,26.4L41.289,26.4z M41.289,26.4"/>
		<path fill-rule="evenodd" clip-rule="evenodd" fill="#F16C7A" d="M37.566,29.647c-0.619-1.919-2.2-3.125-3.529-2.697
			c-1.332,0.43-1.907,2.333-1.287,4.252c0.619,1.919,2.2,3.126,3.529,2.698C37.608,33.47,38.185,31.566,37.566,29.647L37.566,29.647
			z M37.566,29.647"/>
		<path fill="#3A312A" d="M38.004,29.506c-0.696-2.158-2.54-3.501-4.109-2.994c-0.793,0.255-1.386,0.921-1.674,1.873
			c-0.271,0.891-0.238,1.943,0.088,2.959c0.599,1.85,2.038,3.101,3.426,3.101c0.231,0,0.46-0.034,0.685-0.107
			c0.791-0.254,1.386-0.92,1.675-1.872C38.365,31.574,38.333,30.522,38.004,29.506L38.004,29.506z M37.213,32.199
			c-0.198,0.654-0.581,1.102-1.076,1.261c-1.066,0.345-2.418-0.754-2.949-2.399c-0.27-0.84-0.301-1.695-0.085-2.41
			c0.199-0.653,0.582-1.101,1.076-1.261c0.133-0.043,0.269-0.064,0.409-0.064c0.98,0,2.074,1.022,2.54,2.464
			C37.397,30.628,37.428,31.484,37.213,32.199L37.213,32.199z M37.213,32.199"/>
		<path fill-rule="evenodd" clip-rule="evenodd" fill="#F16C7A" d="M33.371,26.734c-0.817-1.133-2.805-1.093-4.439,0.089
			c-1.635,1.182-2.293,3.059-1.477,4.19c0.82,1.132,2.808,1.093,4.442-0.089S34.191,27.866,33.371,26.734L33.371,26.734z
			 M33.371,26.734"/>
		<path fill="#3A312A" d="M33.746,26.463c-0.966-1.337-3.248-1.343-5.084-0.014c-1.837,1.33-2.545,3.499-1.579,4.833
			c0.475,0.656,1.259,1.014,2.221,1.014c0.025,0,0.051,0,0.077,0c0.932-0.019,1.922-0.374,2.787-1
			c0.866-0.625,1.513-1.454,1.822-2.334C34.32,28.024,34.234,27.137,33.746,26.463L33.746,26.463z M33.12,28.656
			c-0.247,0.704-0.777,1.376-1.492,1.893c-0.715,0.518-1.519,0.81-2.265,0.826c-0.68,0.012-1.227-0.211-1.532-0.632v0
			c-0.658-0.908-0.029-2.531,1.371-3.545c0.752-0.545,1.6-0.822,2.329-0.822c0.626,0,1.164,0.207,1.469,0.629
			C33.304,27.425,33.347,28.012,33.12,28.656L33.12,28.656z M33.12,28.656"/>
		<path fill-rule="evenodd" clip-rule="evenodd" fill="#D7E057" d="M34.576,25.396c-0.546-0.399-1.313-0.278-1.712,0.268
			c-0.398,0.546-0.28,1.312,0.268,1.711c0.547,0.398,1.314,0.278,1.711-0.268C35.243,26.56,35.122,25.794,34.576,25.396
			L34.576,25.396z M34.576,25.396"/>
		<path fill="#3A312A" d="M35.52,26.125c-0.07-0.445-0.309-0.836-0.672-1.101c-0.363-0.267-0.811-0.375-1.255-0.305
			c-0.444,0.069-0.836,0.308-1.101,0.672c-0.547,0.751-0.381,1.808,0.368,2.355c0.292,0.213,0.637,0.324,0.991,0.324
			c0.088,0,0.177-0.007,0.265-0.021c0.444-0.069,0.834-0.307,1.1-0.671C35.482,27.014,35.59,26.569,35.52,26.125L35.52,26.125z
			 M34.47,26.835c-0.12,0.164-0.298,0.272-0.498,0.304c-0.203,0.032-0.403-0.017-0.57-0.138c-0.338-0.248-0.413-0.727-0.166-1.067
			c0.121-0.166,0.298-0.273,0.5-0.305c0.201-0.031,0.403,0.018,0.569,0.139c0.163,0.12,0.272,0.296,0.304,0.498
			C34.64,26.468,34.591,26.67,34.47,26.835L34.47,26.835z M34.47,26.835"/>
	</g>
</g>
<g id="Layer_3" display="none">
	<circle display="inline" fill="#B2EBF2" cx="49.832" cy="49.833" r="49.833"/>
	<g display="inline">
		<g>
			<path fill="#FF889E" d="M66.96,75.401L66.96,75.401l-0.677-0.889l0.272-0.888c-0.364-1.339-0.837-2.532-1.357-3.584l-1.158-0.717
				l0.245-0.927c-1.935-3.107-4.076-4.569-4.076-4.569H43.02c0,0-2.143,1.462-4.077,4.569l-0.008,1.072l-0.903,0.568
				c-0.523,1.055-0.996,2.246-1.362,3.587l0.422,1.233l-0.824,0.543c-0.229,1.261-0.364,2.625-0.364,4.107h6.952l0.758-0.595
				l1.05,0.595h6.045l0.904-0.595l0.906,0.595h6.047l1.05-0.595l0.76,0.595h6.949C67.324,78.026,67.19,76.662,66.96,75.401
				L66.96,75.401z"/>
			<path fill="#FF748F" d="M39.737,74.614c0-4.332,2.13-8.698,5.213-10.786H43.02c0,0-2.143,1.462-4.077,4.569l-0.008,1.072
				l-0.903,0.568c-0.523,1.055-0.996,2.246-1.362,3.587l0.422,1.233l-0.824,0.543c-0.229,1.261-0.364,2.625-0.364,4.107h4.22
				C39.809,78.038,39.737,76.374,39.737,74.614z"/>
			<path fill="#5C586F" d="M26.414,44.787c0-13.893,11.305-25.198,25.199-25.198c13.897,0,25.2,11.306,25.2,25.198H26.414z"/>
			<g>
				<circle fill="#FFBD86" cx="72.498" cy="46.02" r="5.897"/>
			</g>
			<path fill="#4F4C5F" d="M34.259,42.768c0-8.88,3.804-16.806,9.763-22.007c-10.198,3.227-17.608,12.777-17.608,24.026h7.911
				C34.28,44.122,34.259,43.447,34.259,42.768z"/>
			<path fill="#FED2A4" d="M71.984,40.167c-0.367-1.612-1.502-2.931-3.039-3.532c-4.967-1.946-8.244-6.777-8.244-6.777
				c-4.356,7.378-14.135,7.556-14.135,7.556c2.933-2.936,1.155-7.556,1.155-7.556c-3.389,3.901-8.529,5.4-12.268,5.972
				c-1.937,0.296-3.522,1.698-4.025,3.59c-0.468,1.755-0.71,3.6-0.697,5.508c0.072,11.375,9.359,20.667,20.736,20.745
				c11.604,0.083,21.031-9.299,21.031-20.884C72.498,43.201,72.318,41.653,71.984,40.167z"/>
			<path fill="#FFBD86" d="M42.928,63.77c-5.325-5.191-8.669-12.677-8.669-21.002c0-2.363,0.271-4.658,0.779-6.853
				c-1.746,0.42-3.145,1.749-3.61,3.503c-0.065,0.242-0.124,0.485-0.18,0.732c-0.161-0.017-0.332-0.028-0.518-0.028
				c-3.257,0-5.897,2.641-5.897,5.897c0,3.258,2.64,5.897,5.897,5.897c0.488,0,0.882-0.061,1.197-0.173
				C33.824,57.072,37.828,61.417,42.928,63.77L42.928,63.77z"/>
			<g>
				<g>
					<g>
						<ellipse fill="#FF9DB0" cx="38.934" cy="48.881" rx="4.679" ry="3.725"/>
					</g>
					<g>
						<path fill="#FF9DB0" d="M64.294,45.156c2.583,0,4.675,1.668,4.675,3.724c0,2.059-2.092,3.727-4.675,3.727
							c-2.587,0-4.679-1.668-4.679-3.727C59.615,46.824,61.707,45.156,64.294,45.156z"/>
					</g>
				</g>
			</g>
		</g>
		<g>
			<path d="M40.756,43.381v1.914c0,0.498,0.405,0.903,0.904,0.903c0.5,0,0.905-0.405,0.905-0.903v-1.914
				c0-0.498-0.405-0.904-0.905-0.904C41.162,42.478,40.756,42.884,40.756,43.381z"/>
			<path d="M61.565,42.478c-0.499,0-0.906,0.406-0.906,0.904v1.914c0,0.498,0.407,0.903,0.906,0.903
				c0.498,0,0.904-0.405,0.904-0.903v-1.914C62.47,42.884,62.063,42.478,61.565,42.478z"/>
			<path d="M53.554,44.644c-0.487,0.562-1.196,0.884-1.941,0.884s-1.45-0.322-1.941-0.884c-0.33-0.376-0.9-0.415-1.277-0.088
				c-0.375,0.332-0.415,0.9-0.088,1.279c0.835,0.956,2.039,1.504,3.306,1.504c1.269,0,2.472-0.549,3.306-1.504
				c0.328-0.379,0.289-0.948-0.087-1.279C54.455,44.229,53.883,44.267,53.554,44.644z"/>
			<path fill="#3A312A" d="M69.011,25.344c-4.794-4.294-10.975-6.66-17.398-6.66c-5.1,0-10.045,1.48-14.303,4.278
				c-0.416,0.274-0.533,0.835-0.259,1.252c0.276,0.419,0.836,0.533,1.252,0.259c3.962-2.604,8.563-3.979,13.31-3.979
				c5.98,0,11.731,2.199,16.192,6.197c3.901,3.498,6.557,8.116,7.602,13.178c-0.846-0.399-1.813-0.627-2.762-0.647
				c-0.564-1.523-1.771-2.806-3.371-3.431c-3.004-1.176-6.12-3.965-7.827-6.443c-0.366-0.544-1.184-0.527-1.523,0.048
				c-2.377,4.021-6.881,6.189-11.475,6.913c1.499-3.084,0.183-6.603,0.115-6.777c-0.242-0.63-1.077-0.788-1.526-0.27
				c-2.904,3.343-7.379,5.011-11.721,5.674c-2.332,0.355-4.198,2.057-4.773,4.286c-0.911,0.024-1.867,0.242-2.722,0.647
				c1.054-5.1,3.738-9.749,7.69-13.255c0.372-0.333,0.405-0.903,0.076-1.278c-0.333-0.374-0.903-0.407-1.277-0.076
				c-4.735,4.201-7.772,9.929-8.58,16.156c-1.119,1.212-1.802,2.83-1.802,4.604c0,3.984,3.428,7.142,7.432,6.773
				c1.918,4.806,5.502,8.783,10.026,11.213C37.612,67.475,35,72.957,35,79.509c0,0.499,0.404,0.904,0.904,0.904h31.421
				c0.497,0,0.903-0.405,0.903-0.904c0-6.481-2.569-11.98-6.37-15.486c1.654-0.881,3.199-1.983,4.603-3.287
				c0.366-0.34,0.385-0.914,0.047-1.277c-0.344-0.367-0.915-0.386-1.281-0.047c-4.139,3.856-9.501,5.629-14.765,5.323
				C38.004,64.018,29.036,51.95,32.3,39.651c0.408-1.537,1.699-2.684,3.289-2.929c4.229-0.645,8.512-2.186,11.648-5.074
				c0.224,1.425,0.227,3.585-1.314,5.125c-0.562,0.563-0.176,1.551,0.658,1.542c1.342-0.022,3.625-0.384,5.696-1.054
				c3.36-1.086,6.399-2.987,8.478-5.84c2.061,2.528,4.833,4.869,7.861,6.055c2.147,0.839,2.476,2.861,2.481,2.876
				c1.27,5.377,0.177,11.569-3.547,16.486c-0.303,0.399-0.226,0.965,0.173,1.269c0.399,0.302,0.968,0.222,1.269-0.175
				c1.207-1.596,2.177-3.319,2.897-5.137c6.198,0.554,9.786-6.846,5.606-11.38C76.695,35.233,73.689,29.536,69.011,25.344
				L69.011,25.344z M58.565,65.444v2.953h-6.049v-1.839C54.651,66.47,56.696,66.075,58.565,65.444z M65.623,73.625h-5.252v-3.417
				h3.899C64.83,71.294,65.281,72.434,65.623,73.625z M58.565,73.625h-6.049v-3.417h6.049V73.625z M38.957,70.208h3.898v3.417
				h-5.251C37.944,72.434,38.398,71.294,38.957,70.208z M44.663,70.208h6.045v3.417h-6.045V70.208z M44.663,65.436
				c1.949,0.662,3.974,1.038,6.045,1.121v1.841h-6.045V65.436z M50.708,75.432v3.173h-6.045v-3.173H50.708z M52.517,75.432h6.049
				v3.173h-6.049V75.432z M42.855,65.121v3.276h-2.834C40.911,67.063,41.882,65.973,42.855,65.121z M37.179,75.432h5.676v3.173
				h-6.029C36.867,77.517,36.987,76.457,37.179,75.432z M60.371,78.604v-3.173h5.678c0.19,1.025,0.311,2.085,0.353,3.173H60.371z
				 M63.207,68.397h-2.836v-3.276C61.333,65.963,62.313,67.06,63.207,68.397z M30.735,51.015c-4.549,0-6.697-5.567-3.414-8.641
				c0.075-0.05,1.067-1.105,2.822-1.311C29.587,44.289,29.744,47.714,30.735,51.015z M72.503,51.015
				c0.98-3.3,1.133-6.753,0.58-9.951c2.482,0.289,4.409,2.408,4.409,4.957C77.492,48.773,75.255,51.011,72.503,51.015z"/>
		</g>
	</g>
</g>
<g id="Layer_4">
	<circle fill="#F0F4C3" cx="50.083" cy="50.011" r="50.083"/>
	<g>
		<g>
			<defs>
				<rect id="SVGID_5_" x="28.229" y="16.367" width="47.921" height="65.494"/>
			</defs>
			<clipPath id="SVGID_6_">
				<use xlink:href="#SVGID_5_"  overflow="visible"/>
			</clipPath>
			<path clip-path="url(#SVGID_6_)" fill="#FCE8CB" d="M69.238,64.681c-0.007,0-0.01-0.002-0.015-0.007l-5.074-18.96l-0.042-0.09
				v-0.003c-0.041-0.131-0.086-0.259-0.138-0.386c-0.052-0.125-0.107-0.249-0.165-0.37l-0.125-0.239
				c-0.024-0.047-0.05-0.093-0.078-0.137c-0.137-0.222-0.279-0.438-0.445-0.643c-0.118-0.146-0.243-0.287-0.374-0.421
				c-1.003-1.019-2.393-1.651-3.935-1.651h-3.637c-0.005,0-0.01-0.003-0.01-0.01v-2.359c0-0.003-0.005-0.006-0.005-0.009
				c-0.002,0-0.006-0.003-0.006-0.003h-6.08c0,0-0.003,0.003-0.006,0.003c0,0.003-0.002,0.006-0.002,0.009v2.359
				c0,0.006-0.007,0.01-0.012,0.01h-3.634c-1.542,0-2.935,0.632-3.937,1.651c-0.132,0.134-0.256,0.274-0.374,0.421
				c-0.164,0.206-0.31,0.421-0.446,0.643c-0.028,0.044-0.054,0.089-0.078,0.137l-0.125,0.239c-0.056,0.121-0.115,0.245-0.167,0.37
				c-0.052,0.127-0.096,0.255-0.139,0.386v0.003l-0.04,0.09l-5.076,18.96c-0.002,0.005-0.007,0.007-0.013,0.007
				c0,0-6.441,3.986-6.312,6.473c0.047,0.53,0.52,0.986,1.277,0.605c0,0,7.744-4.271,8.159-4.686
				c0.098-0.092,0.185-0.195,0.26-0.308v-0.003c0.08-0.11,0.146-0.228,0.204-0.356c0,0,0,0,0-0.002l5.388-18.98
				c0-0.002,0-0.002,0.005-0.002c0.001-0.002,0.002,11.926,0.005,14.174h16.202c0.002-2.248,0.004-14.177,0.006-14.174
				c0.003,0,0.003,0,0.003,0.002l5.39,18.98c0,0.002,0,0.002,0,0.002c0.057,0.129,0.125,0.246,0.205,0.356v0.003
				c0.075,0.112,0.161,0.216,0.258,0.308c0.416,0.415,8.159,4.686,8.159,4.686c0.759,0.381,1.231-0.075,1.277-0.605
				C75.68,68.667,69.238,64.681,69.238,64.681L69.238,64.681z M69.238,64.681"/>
			<path clip-path="url(#SVGID_6_)" fill="#3A312A" d="M69.639,64.366L64.61,45.59c-0.007-0.027-0.016-0.053-0.027-0.078
				l-0.026-0.056c-0.043-0.136-0.089-0.269-0.143-0.404c-0.056-0.132-0.118-0.264-0.185-0.409l-0.126-0.241
				c-0.029-0.056-0.059-0.111-0.094-0.166c-0.164-0.267-0.321-0.494-0.481-0.691c-0.127-0.159-0.262-0.312-0.403-0.458
				c-1.139-1.156-2.658-1.792-4.277-1.792h-3.169v-1.891c0-0.049-0.008-0.101-0.021-0.149c-0.041-0.133-0.139-0.241-0.264-0.298
				c-0.063-0.028-0.132-0.044-0.203-0.044h-6.08c-0.07,0-0.14,0.016-0.203,0.044c-0.125,0.056-0.221,0.166-0.262,0.297
				c-0.015,0.049-0.023,0.101-0.023,0.15v1.891h-3.168c-1.62,0-3.139,0.637-4.277,1.794c-0.141,0.144-0.277,0.296-0.404,0.456
				c-0.16,0.198-0.317,0.424-0.481,0.691c-0.033,0.055-0.064,0.11-0.094,0.167l-0.133,0.254c-0.061,0.129-0.122,0.262-0.178,0.397
				c-0.053,0.132-0.099,0.265-0.142,0.4l-0.026,0.054c-0.012,0.025-0.022,0.052-0.029,0.08l-1.373,5.123
				c-0.067,0.253,0.086,0.517,0.341,0.586c0.254,0.066,0.519-0.084,0.587-0.339l1.359-5.082l0.025-0.051
				c0.012-0.026,0.022-0.053,0.029-0.082c0.035-0.112,0.075-0.223,0.117-0.329c0.047-0.117,0.101-0.232,0.148-0.332l0.124-0.237
				c0.02-0.036,0.039-0.073,0.06-0.108c0.146-0.236,0.277-0.425,0.414-0.593c0.108-0.135,0.223-0.265,0.34-0.386
				c0.958-0.973,2.235-1.507,3.594-1.507h3.636c0.266,0,0.488-0.224,0.488-0.489v-1.892h5.143v1.892
				c0,0.265,0.224,0.489,0.489,0.489h3.637c1.361,0,2.636,0.535,3.593,1.505c0.121,0.123,0.233,0.253,0.342,0.388
				c0.136,0.168,0.268,0.357,0.413,0.593c0.021,0.035,0.042,0.072,0.06,0.105l0.116,0.225c0.054,0.113,0.108,0.229,0.154,0.343
				c0.043,0.108,0.081,0.217,0.117,0.328c0.008,0.028,0.018,0.057,0.029,0.084l0.024,0.051l5.065,18.921
				c0.021,0.073,0.058,0.142,0.107,0.197c0.038,0.04,0.082,0.075,0.132,0.102c2.396,1.485,6.153,4.43,6.071,6.015
				c-0.012,0.126-0.068,0.234-0.148,0.279c-0.099,0.054-0.253,0.032-0.421-0.052c-2.91-1.604-7.671-4.275-8.059-4.608
				c-0.063-0.063-0.124-0.132-0.176-0.207c-0.008-0.012-0.017-0.025-0.026-0.037c-0.056-0.08-0.105-0.164-0.143-0.244l-5.379-18.948
				l0,0c-0.075-0.26-0.386-0.423-0.647-0.317c-0.2,0.084-0.265,0.11-0.286,0.446h-0.006c0,0.019,0,0.038,0.003,0.056
				c-0.007,0.155-0.007,0.37-0.007,0.669l-0.004,12.968H44.527l-0.002-12.968c0-0.299-0.002-0.514-0.008-0.669
				c0.002-0.019,0.003-0.038,0.003-0.056h-0.007c-0.02-0.336-0.086-0.362-0.284-0.446c-0.262-0.106-0.575,0.057-0.648,0.317
				l-5.378,18.943c-0.042,0.092-0.089,0.171-0.143,0.249c-0.01,0.012-0.019,0.023-0.026,0.037c-0.054,0.075-0.113,0.144-0.175,0.202
				c-0.388,0.338-5.149,3.01-8.044,4.606c-0.185,0.091-0.34,0.112-0.437,0.059c-0.08-0.045-0.139-0.153-0.148-0.264
				c-0.083-1.601,3.671-4.542,6.071-6.03c0.049-0.026,0.094-0.062,0.131-0.102c0.049-0.056,0.087-0.124,0.106-0.197l2.573-9.604
				c0.068-0.255-0.084-0.518-0.338-0.586c-0.257-0.068-0.519,0.082-0.588,0.338l-2.521,9.421c-1.145,0.723-6.523,4.261-6.389,6.829
				c0.04,0.446,0.277,0.831,0.636,1.033c0.221,0.122,0.689,0.281,1.35-0.05c1.832-1.009,7.839-4.338,8.262-4.761
				c0.12-0.115,0.228-0.241,0.321-0.38c0.007-0.01,0.014-0.021,0.019-0.033c0.087-0.124,0.162-0.258,0.235-0.42
				c0.007-0.017,0.012-0.033,0.018-0.05l4.452-15.688c0,1.434,0,3.139,0.002,4.754v5.998c0.001,0.263,0.216,0.479,0.48,0.479h16.203
				c0.265,0,0.479-0.216,0.479-0.479l0.001-5.998c0-1.615,0.002-3.32,0.002-4.754l4.461,15.712c0.005,0.017,0.012,0.031,0.018,0.045
				c0.064,0.146,0.14,0.277,0.225,0.401c0.008,0.012,0.014,0.023,0.021,0.033c0.096,0.139,0.204,0.265,0.314,0.375
				c0.43,0.428,6.438,3.757,8.285,4.773c0.282,0.143,0.53,0.192,0.738,0.192c0.268,0,0.47-0.08,0.594-0.15
				c0.359-0.202,0.598-0.587,0.638-1.05C76.161,68.627,70.783,65.089,69.639,64.366L69.639,64.366z M69.639,64.366"/>
		</g>
		<path fill="#F16C7A" d="M69.224,64.674l-5.074-18.96l-0.042-0.09v-0.003c-0.041-0.131-0.086-0.259-0.138-0.386
			c-0.052-0.125-0.107-0.249-0.165-0.37l-0.125-0.239c-0.024-0.047-0.05-0.093-0.078-0.137c-0.137-0.222-0.279-0.438-0.445-0.643
			c-0.118-0.146-0.243-0.287-0.374-0.421c-1.003-1.019-2.393-1.651-3.935-1.651h-3.618c-0.553,1.02-1.586,1.767-3.099,1.767
			c-1.517,0-2.55-0.748-3.102-1.767h-3.575c-1.542,0-2.932,0.632-3.935,1.651c-0.132,0.134-0.256,0.274-0.375,0.421
			c-0.166,0.206-0.309,0.421-0.445,0.643c-0.028,0.044-0.054,0.089-0.079,0.137l-0.123,0.239c-0.059,0.121-0.115,0.245-0.167,0.37
			c-0.052,0.127-0.096,0.255-0.139,0.386v0.003l-0.041,0.09l-5.076,18.96c-0.001,0.005-0.006,0.007-0.012,0.007
			c0,0,3.53,1.854,3.588,1.726c0,0,0,0,0-0.002l5.388-18.98c0-0.002,0-0.002,0.005-0.002c0.001-0.002,0.001,11.926,0.003,14.174
			h16.203c0.002-2.248,0.002-14.177,0.006-14.174c0.003,0,0.003,0,0.003,0.002l5.39,18.98c0,0.002,0,0.002,0,0.002
			c0.057,0.129,3.588-1.726,3.588-1.726C69.231,64.681,69.229,64.679,69.224,64.674L69.224,64.674z M69.224,64.674"/>
		<g>
			<defs>
				<rect id="SVGID_7_" x="28.229" y="16.367" width="47.921" height="65.494"/>
			</defs>
			<clipPath id="SVGID_8_">
				<use xlink:href="#SVGID_7_"  overflow="visible"/>
			</clipPath>
			<path clip-path="url(#SVGID_8_)" fill="#3A312A" d="M69.703,64.565c-0.01-0.035-0.021-0.07-0.039-0.103L64.61,45.59
				c-0.007-0.027-0.016-0.053-0.027-0.078l-0.026-0.056c-0.043-0.136-0.089-0.269-0.143-0.404c-0.056-0.132-0.118-0.264-0.185-0.409
				l-0.126-0.241c-0.029-0.056-0.059-0.111-0.094-0.166c-0.164-0.267-0.321-0.494-0.481-0.691c-0.127-0.159-0.262-0.312-0.403-0.458
				c-1.139-1.156-2.658-1.792-4.277-1.792h-3.618c-0.176,0-0.338,0.096-0.421,0.25c-0.532,0.977-1.481,1.516-2.678,1.516
				c-1.197,0-2.149-0.539-2.681-1.516c-0.083-0.154-0.244-0.25-0.42-0.25h-3.575c-1.62,0-3.139,0.637-4.277,1.794
				c-0.141,0.144-0.277,0.296-0.404,0.456c-0.16,0.198-0.317,0.424-0.481,0.691c-0.033,0.055-0.064,0.11-0.094,0.167l-0.133,0.254
				c-0.061,0.129-0.122,0.262-0.178,0.397c-0.053,0.132-0.099,0.265-0.142,0.4l-0.026,0.054c-0.012,0.025-0.022,0.052-0.029,0.08
				l-1.373,5.123c-0.067,0.253,0.086,0.517,0.341,0.586c0.254,0.066,0.519-0.084,0.587-0.339l1.359-5.082l0.025-0.051
				c0.012-0.026,0.022-0.053,0.029-0.082c0.035-0.112,0.075-0.223,0.117-0.329c0.047-0.117,0.101-0.232,0.148-0.332l0.124-0.237
				c0.02-0.036,0.039-0.073,0.06-0.108c0.146-0.236,0.277-0.425,0.414-0.593c0.108-0.135,0.223-0.265,0.34-0.386
				c0.958-0.973,2.235-1.507,3.594-1.507h3.302c0.726,1.141,1.912,1.767,3.375,1.767c1.46,0,2.646-0.625,3.371-1.767h3.346
				c1.361,0,2.636,0.535,3.593,1.505c0.121,0.123,0.233,0.253,0.342,0.388c0.136,0.168,0.268,0.357,0.413,0.593
				c0.021,0.035,0.042,0.072,0.06,0.105l0.116,0.225c0.054,0.113,0.108,0.229,0.154,0.343c0.043,0.108,0.081,0.217,0.117,0.328
				c0.008,0.028,0.018,0.057,0.029,0.084l0.024,0.051l4.969,18.563c-1.04,0.542-2.12,1.084-2.695,1.347l-5.249-18.492l0,0
				c-0.072-0.26-0.386-0.423-0.646-0.317c-0.202,0.084-0.267,0.11-0.288,0.446h-0.006c0,0.019,0,0.038,0.004,0.056
				c-0.008,0.155-0.008,0.37-0.008,0.669l-0.004,12.968H44.527l-0.002-12.968c0-0.299,0-0.514-0.008-0.669
				c0.002-0.019,0.003-0.038,0.003-0.056h-0.006c-0.021-0.336-0.085-0.362-0.285-0.446c-0.262-0.106-0.575,0.057-0.648,0.317
				l-5.25,18.492c-0.575-0.263-1.655-0.805-2.695-1.347l2.474-9.246c0.069-0.255-0.084-0.518-0.338-0.586
				c-0.257-0.068-0.519,0.082-0.587,0.338l-2.548,9.518c-0.015,0.032-0.029,0.067-0.039,0.103c-0.052,0.214,0.047,0.437,0.244,0.54
				c3.589,1.886,3.728,1.839,3.959,1.759c0.133-0.045,0.243-0.15,0.295-0.279c0.007-0.017,0.012-0.033,0.018-0.05l4.452-15.688
				c0.002,1.434,0.002,3.139,0.002,4.754l0.001,5.998c0,0.263,0.215,0.479,0.479,0.479h16.203c0.266,0,0.48-0.216,0.48-0.479
				l0.002-5.998c0-1.615,0-3.32,0-4.754l4.461,15.712c0.006,0.017,0.012,0.031,0.019,0.045c0.055,0.12,0.162,0.219,0.287,0.261
				c0.043,0.017,0.083,0.03,0.143,0.03c0.259,0,0.899-0.258,3.817-1.789C69.656,65.002,69.756,64.779,69.703,64.565L69.703,64.565z
				 M69.703,64.565"/>
			<path clip-path="url(#SVGID_8_)" fill="#FCE8CB" d="M73.784,75.727l-20.045-12.21c-0.976-0.594-2.2-0.594-3.174,0l-20.047,12.21
				c-2.633,1.604-1.495,5.653,1.587,5.653h40.092C75.279,81.382,76.417,77.33,73.784,75.727L73.784,75.727z M73.784,75.727"/>
		</g>
		<path fill="#3A312A" d="M74.032,75.318L53.986,63.107c-1.133-0.689-2.539-0.689-3.67,0L30.27,75.318
			c-1.388,0.845-2.001,2.401-1.563,3.967c0.439,1.563,1.773,2.576,3.398,2.576h35.332c0.264,0,0.479-0.217,0.479-0.479
			c0-0.265-0.215-0.479-0.479-0.479H32.105c-1.439,0-2.233-1.012-2.476-1.876c-0.243-0.866-0.091-2.144,1.138-2.893l20.046-12.21
			c0.824-0.502,1.851-0.502,2.676,0l20.045,12.21c1.229,0.749,1.382,2.026,1.139,2.893c-0.244,0.864-1.038,1.876-2.477,1.876h-0.642
			c-0.265,0-0.479,0.214-0.479,0.479c0,0.263,0.214,0.479,0.479,0.479h0.642c1.624,0,2.959-1.013,3.398-2.576
			C76.033,77.72,75.421,76.163,74.032,75.318L74.032,75.318z M74.032,75.318"/>
		<path fill="#87796F" d="M51.992,50.336c-2.549,0-4.616,2.067-4.616,4.617c0,2.549,2.066,4.615,4.616,4.615
			c2.55,0,4.616-2.066,4.616-4.615C56.608,52.403,54.542,50.336,51.992,50.336L51.992,50.336z M51.992,50.336"/>
		<path fill="#3A312A" d="M51.992,49.858c-2.809,0-5.094,2.284-5.094,5.095c0,2.81,2.285,5.094,5.094,5.094
			c2.811,0,5.096-2.284,5.096-5.094C57.088,52.143,54.803,49.858,51.992,49.858L51.992,49.858z M51.992,59.089
			c-2.281,0-4.137-1.854-4.137-4.136c0-2.282,1.856-4.137,4.137-4.137c2.282,0,4.137,1.855,4.137,4.137
			C56.129,57.234,54.274,59.089,51.992,59.089L51.992,59.089z M51.992,59.089"/>
		<path fill-rule="evenodd" clip-rule="evenodd" fill="#FCE8CB" d="M44.198,63.84c-1,0-1.81,0.811-1.81,1.811
			c0,0.998,0.81,1.808,1.81,1.808c1,0,1.81-0.81,1.81-1.808C46.008,64.65,45.198,63.84,44.198,63.84L44.198,63.84z M44.198,63.84"/>
		<path fill="#3A312A" d="M44.198,63.359c-1.262,0-2.289,1.028-2.289,2.291c0,1.261,1.027,2.289,2.289,2.289
			c1.262,0,2.289-1.028,2.289-2.289C46.487,64.388,45.46,63.359,44.198,63.359L44.198,63.359z M44.198,66.981
			c-0.733,0-1.331-0.599-1.331-1.331c0-0.734,0.598-1.331,1.331-1.331c0.735,0,1.332,0.597,1.332,1.331
			C45.529,66.383,44.933,66.981,44.198,66.981L44.198,66.981z M44.198,66.981"/>
		<path fill-rule="evenodd" clip-rule="evenodd" fill="#FCE8CB" d="M59.994,63.84c-0.999,0-1.809,0.811-1.809,1.811
			c0,0.998,0.81,1.808,1.809,1.808s1.811-0.81,1.811-1.808C61.805,64.65,60.993,63.84,59.994,63.84L59.994,63.84z M59.994,63.84"/>
		<path fill="#3A312A" d="M59.994,63.359c-1.262,0-2.29,1.028-2.29,2.291c0,1.261,1.028,2.289,2.29,2.289s2.289-1.028,2.289-2.289
			C62.283,64.388,61.256,63.359,59.994,63.359L59.994,63.359z M59.994,66.981c-0.733,0-1.332-0.599-1.332-1.331
			c0-0.734,0.599-1.331,1.332-1.331s1.331,0.597,1.331,1.331C61.325,66.383,60.728,66.981,59.994,66.981L59.994,66.981z
			 M59.994,66.981"/>
		<path fill="#FCE8CB" d="M52.096,56.749c-4.43,0-8.022,3.591-8.022,8.021c0,4.433,4.438,11.234,8.022,11.234
			c3.756,0,8.022-6.802,8.022-11.234C60.118,60.34,56.526,56.749,52.096,56.749L52.096,56.749z M52.096,56.749"/>
		<path fill="#3A312A" d="M52.096,56.27c-4.688,0-8.501,3.813-8.501,8.5c0,4.625,4.559,11.713,8.501,11.713
			c4.023,0,8.503-6.981,8.503-11.713C60.599,60.082,56.784,56.27,52.096,56.27L52.096,56.27z M52.096,75.524
			c-3.329,0-7.543-6.667-7.543-10.755c0-4.159,3.384-7.543,7.543-7.543c4.161,0,7.544,3.384,7.544,7.543
			C59.64,68.918,55.521,75.524,52.096,75.524L52.096,75.524z M52.096,75.524"/>
		<path fill="#3A312A" d="M54.443,69.524c-0.248-0.095-0.523,0.032-0.617,0.281c-0.16,0.428-0.764,1.065-1.765,1.065
			c-0.855,0-1.421-0.352-1.781-1.105c-0.113-0.237-0.399-0.34-0.639-0.226c-0.238,0.113-0.34,0.399-0.225,0.639
			c0.521,1.095,1.412,1.65,2.645,1.65c1.394,0,2.358-0.875,2.662-1.688C54.816,69.893,54.689,69.618,54.443,69.524L54.443,69.524z
			 M54.443,69.524"/>
		<path fill="#87796F" d="M61.751,63.813c-0.129-0.841-0.322-1.667-0.624-2.47c-1.401-3.739-4.05-6.604-8.062-7.071
			c0.197,1.435,0.485,2.861,1.112,4.161c0.432,0.894,1.012,1.708,1.634,2.48c1.709,2.122,3.8,3.986,6.17,5.313
			C61.937,65.416,61.873,64.608,61.751,63.813L61.751,63.813z M61.751,63.813"/>
		<path fill="#3A312A" d="M62.226,63.742c-0.146-0.956-0.359-1.794-0.65-2.566c-1.615-4.313-4.618-6.935-8.455-7.381
			c-0.146-0.016-0.293,0.035-0.397,0.142c-0.104,0.105-0.153,0.253-0.132,0.4c0.181,1.315,0.458,2.855,1.155,4.304
			c0.39,0.806,0.926,1.622,1.692,2.572c1.824,2.264,4.005,4.142,6.311,5.431c0.073,0.04,0.152,0.061,0.232,0.061
			c0.089,0,0.176-0.023,0.255-0.072c0.147-0.092,0.233-0.259,0.224-0.432C62.423,65.521,62.361,64.629,62.226,63.742L62.226,63.742z
			 M56.186,60.612c-0.721-0.892-1.222-1.649-1.576-2.387c-0.533-1.107-0.803-2.299-0.977-3.383c3.165,0.605,5.652,2.95,7.046,6.669
			c0.267,0.711,0.464,1.488,0.6,2.376c0.077,0.495,0.128,1,0.165,1.462C59.53,64.15,57.727,62.525,56.186,60.612L56.186,60.612z
			 M56.186,60.612"/>
		<path fill="#87796F" d="M51.884,54.202c-4.918,0-9.679,4.131-9.562,9.216c0.011,0.519,0.049,1.037,0.109,1.557
			c5.258-2.272,10.385-5.22,13.909-9.655C55.068,54.604,53.584,54.202,51.884,54.202L51.884,54.202z M51.884,54.202"/>
		<path fill="#3A312A" d="M56.81,55.225c-0.027-0.137-0.111-0.254-0.233-0.323c-1.392-0.782-2.97-1.179-4.692-1.179
			c-2.698,0-5.375,1.157-7.347,3.173c-1.792,1.835-2.748,4.153-2.695,6.531c0.012,0.517,0.049,1.057,0.114,1.602
			c0.016,0.15,0.105,0.284,0.237,0.359c0.073,0.044,0.156,0.065,0.238,0.065c0.065,0,0.13-0.014,0.191-0.04
			c6.557-2.833,11.034-5.946,14.093-9.797C56.803,55.507,56.838,55.363,56.81,55.225L56.81,55.225z M42.843,64.27
			c-0.022-0.293-0.038-0.582-0.042-0.861c-0.049-2.12,0.81-4.194,2.42-5.843c1.765-1.805,4.255-2.884,6.662-2.884
			c1.348,0,2.594,0.267,3.712,0.792C52.746,58.873,48.667,61.688,42.843,64.27L42.843,64.27z M42.843,64.27"/>
		<path fill="#3A312A" d="M49.9,64.681c0,0.432-0.352,0.782-0.784,0.782c-0.433,0-0.782-0.351-0.782-0.782
			c0-0.435,0.349-0.784,0.782-0.784C49.548,63.896,49.9,64.246,49.9,64.681L49.9,64.681z M49.9,64.681"/>
		<path fill="#3A312A" d="M54.781,63.896c-0.435,0-0.783,0.35-0.783,0.784c0,0.432,0.349,0.782,0.783,0.782
			c0.432,0,0.784-0.351,0.784-0.782C55.565,64.246,55.213,63.896,54.781,63.896L54.781,63.896z M54.781,63.896"/>
		<path fill="#F5978A" d="M47.55,66c-0.745,0-1.348,0.451-1.348,1.01c0,0.557,0.603,1.007,1.348,1.007
			c0.747,0,1.349-0.45,1.349-1.007C48.899,66.451,48.297,66,47.55,66L47.55,66z M47.55,66"/>
		<path fill="#F5978A" d="M56.345,66c-0.742,0-1.348,0.451-1.348,1.01c0,0.557,0.605,1.007,1.348,1.007
			c0.746,0,1.35-0.45,1.35-1.007C57.694,66.451,57.091,66,56.345,66L56.345,66z M56.345,66"/>
		<path fill-rule="evenodd" clip-rule="evenodd" fill="#FCE8CB" d="M50.051,76.069H38.269v5.311h11.782
			c1.467,0,2.655-1.188,2.655-2.653C52.706,77.26,51.518,76.069,50.051,76.069L50.051,76.069z M50.051,76.069"/>
		<path fill="#3A312A" d="M50.051,75.593H38.269c-0.264,0-0.479,0.214-0.479,0.477c0,0.266,0.215,0.481,0.479,0.481h11.782
			c1.199,0,2.176,0.974,2.176,2.176c0,1.2-0.977,2.174-2.176,2.174H38.269c-0.264,0-0.479,0.217-0.479,0.479
			c0,0.265,0.215,0.479,0.479,0.479h11.782c1.728,0,3.134-1.403,3.134-3.132C53.185,76.996,51.778,75.593,50.051,75.593
			L50.051,75.593z M50.051,75.593"/>
		<path fill-rule="evenodd" clip-rule="evenodd" fill="#FCE8CB" d="M50.647,76.069c-1.915,0-3.467,1.19-3.467,2.657
			c0,1.465,1.552,2.653,3.467,2.653h15.385v-5.311H50.647z M50.647,76.069"/>
		<path fill="#3A312A" d="M66.032,80.903H50.647c-1.648,0-2.989-0.977-2.989-2.177c0-1.202,1.341-2.176,2.989-2.176h15.385
			c0.265,0,0.48-0.216,0.48-0.481c0-0.263-0.216-0.477-0.48-0.477H50.647c-2.176,0-3.946,1.403-3.946,3.134
			c0,1.729,1.77,3.135,3.946,3.135h15.385c0.265,0,0.48-0.217,0.48-0.479C66.513,81.117,66.297,80.903,66.032,80.903L66.032,80.903z
			 M66.032,80.903"/>
		<path fill="#F16C7A" d="M52.15,16.846c-4.626,0-8.441,3.488-8.95,7.977c1.308-3.454,4.953-5.935,8.694-5.935
			c0.643,0,1.248,0.06,1.824,0.173c0.032,0.005,0.06,0.015,0.088,0.02c0.183,0.039,0.359,0.08,0.533,0.128
			c0.061,0.017,0.122,0.034,0.181,0.054c0.141,0.041,0.282,0.086,0.418,0.134c0.067,0.024,0.138,0.049,0.204,0.076
			c0.127,0.049,0.249,0.102,0.371,0.157c0.169,0.075,0.333,0.155,0.498,0.239c0.054,0.031,0.114,0.061,0.174,0.092
			c2.143,1.195,3.667,3.292,4.608,5.801c0.124,0.33,0.229,0.667,0.319,1.007c0.032-0.312,0.049-0.617,0.049-0.911
			C61.162,20.881,57.129,16.846,52.15,16.846L52.15,16.846z M52.15,16.846"/>
		<path fill="#3A312A" d="M52.15,16.367c-4.83,0-8.882,3.612-9.427,8.402c-0.028,0.24,0.128,0.462,0.361,0.519
			c0.235,0.057,0.477-0.071,0.562-0.295c1.236-3.26,4.705-5.627,8.248-5.627c0.596,0,1.178,0.055,1.758,0.17
			c0.025,0.007,0.053,0.012,0.056,0.012c0.172,0.037,0.34,0.075,0.521,0.127c0.049,0.013,0.097,0.027,0.157,0.046
			c0.132,0.039,0.263,0.082,0.39,0.126l0.047,0.017c0.049,0.018,0.098,0.035,0.148,0.055c0.116,0.044,0.229,0.095,0.347,0.148
			c0.161,0.07,0.317,0.146,0.458,0.218c0.037,0.021,0.075,0.041,0.114,0.061l0.063,0.033c1.91,1.066,3.43,2.986,4.392,5.552
			c0.114,0.299,0.214,0.613,0.306,0.96c0.055,0.212,0.246,0.358,0.463,0.358c0.012,0,0.023-0.001,0.035-0.002
			c0.229-0.017,0.415-0.196,0.441-0.427c0.035-0.329,0.054-0.654,0.054-0.962C61.644,20.625,57.385,16.367,52.15,16.367
			L52.15,16.367z M56.414,19.54l-0.086-0.045c-0.028-0.014-0.057-0.028-0.099-0.052c-0.172-0.089-0.345-0.172-0.517-0.249
			c-0.131-0.06-0.263-0.117-0.396-0.167c-0.057-0.022-0.115-0.043-0.174-0.064l-0.045-0.017c-0.144-0.052-0.293-0.101-0.432-0.14
			c-0.059-0.019-0.117-0.036-0.198-0.059c-0.183-0.05-0.37-0.095-0.586-0.141c-0.031-0.007-0.061-0.014-0.07-0.015
			c-0.615-0.121-1.261-0.182-1.918-0.182c-2.625,0-5.214,1.173-7.052,3.033c1.502-2.485,4.23-4.117,7.309-4.117
			c3.997,0,7.362,2.764,8.284,6.48C59.415,21.908,58.049,20.452,56.414,19.54L56.414,19.54z M56.414,19.54"/>
		<path fill-rule="evenodd" clip-rule="evenodd" fill="#FCE8CB" d="M46.104,30.53c0,0.992-0.806,1.797-1.798,1.797
			c-0.992,0-1.797-0.805-1.797-1.797c0-0.993,0.805-1.797,1.797-1.797C45.299,28.733,46.104,29.537,46.104,30.53L46.104,30.53z
			 M46.104,30.53"/>
		<path fill="#3A312A" d="M44.307,28.253c-1.255,0-2.277,1.021-2.277,2.277c0,1.254,1.022,2.276,2.277,2.276
			s2.276-1.021,2.276-2.276C46.583,29.274,45.562,28.253,44.307,28.253L44.307,28.253z M44.307,31.848
			c-0.727,0-1.32-0.591-1.32-1.317c0-0.728,0.594-1.319,1.32-1.319s1.318,0.591,1.318,1.319
			C45.625,31.257,45.034,31.848,44.307,31.848L44.307,31.848z M44.307,31.848"/>
		<path fill-rule="evenodd" clip-rule="evenodd" fill="#FCE8CB" d="M61.792,30.53c0,0.992-0.804,1.797-1.797,1.797
			c-0.991,0-1.798-0.805-1.798-1.797c0-0.993,0.807-1.797,1.798-1.797C60.988,28.733,61.792,29.537,61.792,30.53L61.792,30.53z
			 M61.792,30.53"/>
		<path fill="#3A312A" d="M59.995,28.253c-1.256,0-2.277,1.021-2.277,2.277c0,1.254,1.021,2.276,2.277,2.276
			c1.254,0,2.276-1.021,2.276-2.276C62.271,29.274,61.249,28.253,59.995,28.253L59.995,28.253z M59.995,31.848
			c-0.728,0-1.319-0.591-1.319-1.317c0-0.728,0.592-1.319,1.319-1.319s1.318,0.591,1.318,1.319
			C61.313,31.257,60.723,31.848,59.995,31.848L59.995,31.848z M59.995,31.848"/>
		<path fill="#FCE8CB" d="M52.15,21.689c-4.4,0-7.968,3.566-7.968,7.968s4.408,11.156,7.968,11.156
			c3.731,0,7.968-6.755,7.968-11.156C60.118,25.256,56.553,21.689,52.15,21.689L52.15,21.689z M52.15,21.689"/>
		<path fill="#3A312A" d="M52.15,21.21c-4.656,0-8.448,3.79-8.448,8.447c0,4.594,4.533,11.634,8.448,11.634
			c3.997,0,8.448-6.935,8.448-11.634C60.599,25,56.809,21.21,52.15,21.21L52.15,21.21z M52.15,40.334
			c-3.304,0-7.489-6.619-7.489-10.677c0-4.129,3.359-7.489,7.489-7.489c4.13,0,7.489,3.359,7.489,7.489
			C59.64,33.776,55.551,40.334,52.15,40.334L52.15,40.334z M52.15,40.334"/>
		<path fill="#3A312A" d="M54.483,34.375c-0.249-0.094-0.523,0.033-0.616,0.28c-0.16,0.425-0.758,1.058-1.751,1.058
			c-0.849,0-1.409-0.348-1.765-1.095c-0.114-0.239-0.399-0.34-0.637-0.227c-0.238,0.115-0.342,0.4-0.227,0.639
			c0.518,1.089,1.404,1.641,2.629,1.641c1.386,0,2.344-0.871,2.646-1.679C54.855,34.744,54.729,34.467,54.483,34.375L54.483,34.375z
			 M54.483,34.375"/>
		<path fill="#3A312A" d="M49.191,28.79c-0.43,0-0.778,0.349-0.778,0.777c0,0.43,0.349,0.778,0.778,0.778s0.777-0.348,0.777-0.778
			C49.969,29.139,49.621,28.79,49.191,28.79L49.191,28.79z M49.191,28.79"/>
		<path fill="#3A312A" d="M54.818,28.79c-0.432,0-0.779,0.349-0.779,0.777c0,0.43,0.35,0.778,0.779,0.778
			c0.428,0,0.777-0.348,0.777-0.778C55.596,29.139,55.246,28.79,54.818,28.79L54.818,28.79z M54.818,28.79"/>
		<path fill="#F5978A" d="M47.637,30.878c-0.742,0-1.34,0.449-1.34,1.001s0.599,1.002,1.34,1.002c0.74,0,1.339-0.449,1.339-1.002
			S48.377,30.878,47.637,30.878L47.637,30.878z M47.637,30.878"/>
		<path fill="#F5978A" d="M56.373,30.878c-0.741,0-1.341,0.449-1.341,1.001s0.6,1.002,1.341,1.002c0.738,0,1.338-0.449,1.338-1.002
			S57.111,30.878,56.373,30.878L56.373,30.878z M56.373,30.878"/>
		<path fill="#87796F" d="M61.395,28.141c-0.124-0.809-0.312-1.607-0.601-2.378c-1.351-3.602-3.899-6.359-7.763-6.809
			c0.188,1.381,0.468,2.754,1.071,4.007c0.415,0.86,0.974,1.644,1.573,2.387c1.646,2.044,3.657,3.841,5.941,5.115
			C61.574,29.684,61.513,28.905,61.395,28.141L61.395,28.141z M61.395,28.141"/>
		<path fill="#3A312A" d="M61.867,28.067c-0.142-0.92-0.346-1.729-0.626-2.473c-1.559-4.159-4.455-6.686-8.155-7.117
			c-0.146-0.019-0.293,0.034-0.397,0.141c-0.103,0.105-0.151,0.253-0.132,0.4c0.163,1.193,0.437,2.745,1.115,4.15
			c0.375,0.775,0.891,1.563,1.631,2.479c1.756,2.182,3.859,3.991,6.08,5.234c0.073,0.04,0.152,0.06,0.232,0.06
			c0.089,0,0.176-0.024,0.254-0.071c0.148-0.094,0.234-0.26,0.225-0.434C62.059,29.782,62,28.92,61.867,28.067L61.867,28.067z
			 M56.048,25.047c-0.691-0.858-1.173-1.588-1.513-2.295c-0.51-1.056-0.77-2.19-0.936-3.227c3.029,0.588,5.41,2.84,6.745,6.405
			c0.256,0.682,0.446,1.428,0.577,2.283c0.071,0.464,0.12,0.936,0.155,1.373C59.249,28.434,57.523,26.879,56.048,25.047
			L56.048,25.047z M56.048,25.047"/>
		<path fill="#87796F" d="M51.894,18.888c-4.735,0-9.32,3.977-9.206,8.874c0.01,0.498,0.048,0.998,0.106,1.497
			c5.062-2.188,9.999-5.025,13.392-9.297C54.96,19.275,53.531,18.888,51.894,18.888L51.894,18.888z M51.894,18.888"/>
		<path fill="#3A312A" d="M56.654,19.869c-0.028-0.138-0.112-0.257-0.234-0.325c-1.343-0.754-2.866-1.135-4.526-1.135
			c-2.604,0-5.186,1.114-7.086,3.059c-1.729,1.77-2.651,4.007-2.599,6.302c0.01,0.495,0.048,1.014,0.109,1.542
			c0.018,0.151,0.106,0.284,0.236,0.359c0.074,0.043,0.156,0.064,0.241,0.064c0.063,0,0.128-0.013,0.189-0.039
			c6.314-2.729,10.629-5.728,13.577-9.438C56.647,20.149,56.682,20.007,56.654,19.869L56.654,19.869z M43.206,28.554
			c-0.02-0.272-0.034-0.542-0.04-0.804c-0.047-2.035,0.778-4.029,2.326-5.612c1.696-1.735,4.089-2.771,6.402-2.771
			c1.286,0,2.476,0.252,3.545,0.75C52.702,23.376,48.785,26.076,43.206,28.554L43.206,28.554z M43.206,28.554"/>
		<path fill="#CCAE8B" d="M52.15,41.292c-0.846,0-1.719-0.333-2.569-0.891v0.878c0.85,0.559,1.724,0.891,2.569,0.891
			c0.854,0,1.725-0.32,2.569-0.859v-0.878C53.875,40.973,53.004,41.292,52.15,41.292L52.15,41.292z M52.15,41.292"/>
		<path fill="#6B5B51" d="M51.991,50.816c-0.253,0-0.501,0.021-0.741,0.066c1.639,0.301,2.942,1.57,3.292,3.192
			c0.019,0.005,0.037,0.011,0.058,0.017c0.18,0.049,0.354,0.103,0.53,0.162c0.041,0.017,0.082,0.033,0.123,0.045
			c0.174,0.064,0.343,0.131,0.509,0.204c0.038,0.017,0.081,0.035,0.118,0.052c0.079,0.035,0.159,0.07,0.234,0.107
			C55.965,52.516,54.176,50.816,51.991,50.816L51.991,50.816z M51.991,50.816"/>
		<path fill="#6B5B51" d="M61.278,63.885c-0.135-0.888-0.333-1.662-0.601-2.371c-0.947-2.532-2.403-4.425-4.232-5.568
			c-0.136,0.164-0.275,0.327-0.415,0.488c1.502,1.162,2.709,2.88,3.533,5.08c0.269,0.709,0.467,1.483,0.6,2.371
			c0.032,0.216,0.064,0.435,0.087,0.65c0.394,0.289,0.792,0.563,1.193,0.814C61.408,64.888,61.354,64.383,61.278,63.885
			L61.278,63.885z M61.278,63.885"/>
		<path fill="#6B5B51" d="M53.638,54.845c-2.573,2.822-6.062,5.237-10.783,7.47c-0.045,0.359-0.064,0.726-0.055,1.092
			c0.006,0.284,0.022,0.57,0.046,0.863c5.822-2.582,9.901-5.396,12.75-8.797C54.983,55.183,54.328,54.972,53.638,54.845
			L53.638,54.845z M53.638,54.845"/>
		<path fill="#6B5B51" d="M53.396,19.491c-2.423,2.733-5.714,5.07-10.177,7.222c-0.042,0.341-0.061,0.689-0.052,1.037
			c0.007,0.262,0.019,0.53,0.039,0.805c5.579-2.481,9.497-5.178,12.232-8.438C54.8,19.82,54.117,19.61,53.396,19.491L53.396,19.491z
			 M53.396,19.491"/>
		<path fill="#6B5B51" d="M60.92,28.213c-0.13-0.855-0.319-1.599-0.575-2.283c-0.908-2.427-2.304-4.242-4.057-5.344
			c-0.145,0.176-0.291,0.349-0.439,0.517c1.41,1.118,2.548,2.749,3.326,4.827c0.255,0.684,0.442,1.427,0.576,2.283
			c0.026,0.169,0.05,0.338,0.068,0.504c0.411,0.309,0.832,0.599,1.256,0.868C61.042,29.149,60.993,28.679,60.92,28.213L60.92,28.213
			z M60.92,28.213"/>
	</g>
</g>
</svg>
