<?xml version="1.0" encoding="utf-8"?>
<!-- Generator: Adobe Illustrator 16.0.0, SVG Export Plug-In . SVG Version: 6.00 Build 0)  -->
<!DOCTYPE svg PUBLIC "-//W3C//DTD SVG 1.1//EN" "http://www.w3.org/Graphics/SVG/1.1/DTD/svg11.dtd">
<svg version="1.1" id="Capa_1" xmlns="http://www.w3.org/2000/svg" xmlns:xlink="http://www.w3.org/1999/xlink" x="0px" y="0px"
	 width="300px" height="300px" viewBox="0 0 300 300" enable-background="new 0 0 300 300" xml:space="preserve">
<g>
	<g>
		<g>
			<path fill="#757575" d="M150,0C67.158,0,0,67.158,0,150c0,82.842,67.158,150,150,150c82.804-0.094,149.906-67.196,150-150
				C300,67.158,232.842,0,150,0z M150,290c-77.32,0-140-62.68-140-140C10,72.68,72.68,10,150,10
				c77.283,0.088,139.912,62.717,140,140C290,227.32,227.32,290,150,290z"/>
			<path fill="#757575" d="M150,120c-16.569,0-30,13.431-30,30c0,16.568,13.431,30,30,30c16.563-0.016,29.984-13.438,30-30
				C180,133.431,166.568,120,150,120z M150,170c-11.045,0-20-8.955-20-20c0-11.045,8.955-20,20-20c11.045,0,20,8.955,20,20
				C170,161.045,161.045,170,150,170z"/>
			<path fill="#757575" d="M235,120c-16.568,0-30,13.431-30,30c0,16.568,13.432,30,30,30c16.563-0.016,29.984-13.438,30-30
				C265,133.431,251.568,120,235,120z M235,170c-11.045,0-20-8.955-20-20c0-11.045,8.955-20,20-20s20,8.955,20,20
				C255,161.045,246.045,170,235,170z"/>
			<path fill="#757575" d="M65,120c-16.569,0-30,13.431-30,30c0,16.568,13.431,30,30,30c16.562-0.016,29.984-13.438,30-30
				C95,133.431,81.569,120,65,120z M65,170c-11.045,0-20-8.955-20-20c0-11.045,8.955-20,20-20s20,8.955,20,20
				C85,161.045,76.045,170,65,170z"/>
		</g>
	</g>
</g>
</svg>
