<?xml version="1.0" encoding="utf-8"?>
<!-- Generator: Adobe Illustrator 16.0.0, SVG Export Plug-In . SVG Version: 6.00 Build 0)  -->
<!DOCTYPE svg PUBLIC "-//W3C//DTD SVG 1.1//EN" "http://www.w3.org/Graphics/SVG/1.1/DTD/svg11.dtd">
<svg version="1.1" xmlns="http://www.w3.org/2000/svg" xmlns:xlink="http://www.w3.org/1999/xlink" x="0px" y="0px" width="100px"
	 height="100px" viewBox="0 0 100 100" enable-background="new 0 0 100 100" xml:space="preserve">
<g id="Layer_1" display="none">
	<circle display="inline" fill="#FFF59D" cx="49.999" cy="49.87" r="50"/>
	<g display="inline">
		<path fill="#FCE8CB" d="M60.033,63.721h-5.447v-3.555h-9.153v3.555h-5.448c-4.554,0-8.246,3.692-8.246,8.246v7.473h36.537v-7.473
			C68.276,67.413,64.588,63.721,60.033,63.721L60.033,63.721z M60.033,63.721"/>
		<path fill="#3A312A" d="M60.033,63.259h-4.985v-3.093c0-0.254-0.208-0.463-0.463-0.463h-9.152c-0.257,0-0.463,0.209-0.463,0.463
			v3.093h-4.987c-4.8,0-8.705,3.905-8.705,8.708v7.473c0,0.255,0.206,0.461,0.461,0.461h36.537c0.255,0,0.464-0.206,0.464-0.461
			v-7.473C68.74,67.164,64.833,63.259,60.033,63.259L60.033,63.259z M67.814,78.978H32.202v-7.011c0-4.292,3.491-7.783,7.783-7.783
			h5.448c0.255,0,0.461-0.204,0.461-0.463v-3.093h8.229v3.093c0,0.259,0.207,0.463,0.462,0.463h5.447
			c4.294,0,7.783,3.491,7.783,7.783v7.011H67.814z M67.814,78.978"/>
		<path fill="#8AC6DD" d="M60.033,63.721H58.73l0.034,0.024l-5.667,7.517l-2.922-2.203l-2.925,2.203l-5.665-7.517l0.034-0.024
			h-1.637c-4.551,0-8.243,3.692-8.243,8.243v7.478h36.537v-7.478C68.276,67.413,64.588,63.721,60.033,63.721L60.033,63.721z
			 M60.033,63.721"/>
		<path fill="#3A312A" d="M60.033,63.259H58.73c-0.2,0-0.377,0.13-0.438,0.32c-0.005,0.013-0.01,0.029-0.012,0.042l-5.273,6.993
			l-2.554-1.927c-0.164-0.124-0.391-0.124-0.556,0l-2.555,1.927l-5.271-6.993c-0.003-0.013-0.008-0.029-0.011-0.042
			c-0.063-0.19-0.239-0.32-0.439-0.32h-1.637c-4.8,0-8.705,3.905-8.705,8.708v7.475c0,0.255,0.206,0.462,0.461,0.462h36.539
			c0.256,0,0.462-0.207,0.462-0.462v-7.475C68.74,67.164,64.833,63.259,60.033,63.259L60.033,63.259z M67.814,78.978H32.201v-7.014
			c0-4.289,3.489-7.78,7.781-7.78h1.354l5.546,7.354c0.152,0.204,0.443,0.246,0.647,0.091l2.646-1.994l2.646,1.994
			c0.203,0.155,0.493,0.113,0.646-0.091l5.547-7.354h1.02c4.294,0,7.783,3.491,7.783,7.78v7.014H67.814z M67.814,78.978"/>
		<path fill-rule="evenodd" clip-rule="evenodd" fill="#FCE8CB" d="M38.146,40.993c-1.268-1.268-3.323-1.268-4.588-0.001
			c-1.268,1.268-1.268,3.322,0,4.588c1.265,1.267,3.32,1.267,4.588,0C39.412,44.313,39.412,42.26,38.146,40.993L38.146,40.993z
			 M38.146,40.993"/>
		<path fill="#3A312A" d="M35.851,39.58c-2.044,0-3.705,1.662-3.705,3.706c0,2.043,1.66,3.706,3.705,3.706
			c2.043,0,3.707-1.663,3.707-3.706C39.557,41.242,37.894,39.58,35.851,39.58L35.851,39.58z M35.851,46.068
			c-1.533,0-2.781-1.25-2.781-2.782c0-1.534,1.248-2.782,2.781-2.782c1.535,0,2.782,1.248,2.782,2.782
			C38.633,44.819,37.385,46.068,35.851,46.068L35.851,46.068z M35.851,46.068"/>
		<path fill-rule="evenodd" clip-rule="evenodd" fill="#FCE8CB" d="M67.411,43.287c0,1.791-1.453,3.243-3.246,3.243
			c-1.79,0-3.244-1.452-3.244-3.243c0-1.793,1.454-3.244,3.244-3.244C65.958,40.043,67.411,41.494,67.411,43.287L67.411,43.287z
			 M67.411,43.287"/>
		<path fill="#3A312A" d="M64.165,39.58c-2.042,0-3.706,1.662-3.706,3.706c0,2.043,1.664,3.706,3.706,3.706
			c2.044,0,3.708-1.663,3.708-3.706C67.873,41.242,66.209,39.58,64.165,39.58L64.165,39.58z M64.165,46.068
			c-1.533,0-2.78-1.25-2.78-2.782c0-1.534,1.248-2.782,2.78-2.782c1.535,0,2.783,1.248,2.783,2.782
			C66.948,44.819,65.7,46.068,64.165,46.068L64.165,46.068z M64.165,46.068"/>
		<path fill="#FCE8CB" d="M50.009,27.33c-7.941,0-14.381,6.438-14.381,14.381c0,7.943,7.955,20.133,14.381,20.133
			c6.731,0,14.38-12.19,14.38-20.133C64.389,33.769,57.952,27.33,50.009,27.33L50.009,27.33z M50.009,27.33"/>
		<path fill="#3A312A" d="M50.009,26.868c-8.183,0-14.843,6.66-14.843,14.843c0,3.869,1.862,8.968,4.863,13.309
			c3.152,4.563,6.883,7.288,9.979,7.288c7.024,0,14.843-12.277,14.843-20.597C64.852,33.527,58.193,26.868,50.009,26.868
			L50.009,26.868z M50.009,61.383c-2.792,0-6.239-2.576-9.22-6.89c-2.899-4.195-4.7-9.091-4.7-12.782
			c0-7.674,6.245-13.919,13.92-13.919s13.92,6.246,13.92,13.919C63.929,49.479,56.463,61.383,50.009,61.383L50.009,61.383z
			 M50.009,61.383"/>
		<path fill="#3A312A" d="M44.933,40.146c-0.776,0-1.404,0.628-1.404,1.403c0,0.776,0.628,1.404,1.404,1.404
			c0.773,0,1.403-0.627,1.403-1.404C46.335,40.774,45.706,40.146,44.933,40.146L44.933,40.146z M44.933,40.146"/>
		<path fill="#3A312A" d="M55.085,40.146c-0.773,0-1.403,0.628-1.403,1.403c0,0.776,0.63,1.404,1.403,1.404
			c0.776,0,1.404-0.627,1.404-1.404C56.489,40.774,55.861,40.146,55.085,40.146L55.085,40.146z M55.085,40.146"/>
		<path fill="#F5978A" d="M42.127,43.914c-1.336,0-2.419,0.81-2.419,1.807c0,1,1.083,1.808,2.419,1.808
			c1.333,0,2.416-0.809,2.416-1.808C44.543,44.724,43.46,43.914,42.127,43.914L42.127,43.914z M42.127,43.914"/>
		<path fill="#F5978A" d="M57.891,43.914c-1.334,0-2.418,0.81-2.418,1.807c0,1,1.084,1.808,2.418,1.808
			c1.335,0,2.419-0.809,2.419-1.808C60.31,44.724,59.227,43.914,57.891,43.914L57.891,43.914z M57.891,43.914"/>
		<path fill="#CCAE8B" d="M54.136,63.724v-2.71c-1.363,0.812-2.763,1.282-4.125,1.282c-1.359,0-2.76-0.494-4.127-1.331v2.759
			c0,0.138-0.063,0.265-0.167,0.352c1.429,1.001,2.892,1.597,4.293,1.597c1.425,0,2.901-0.582,4.333-1.57
			C54.218,64.021,54.136,63.881,54.136,63.724L54.136,63.724z M54.136,63.724"/>
		<path fill="#87796F" d="M65.061,38.388c0-7.861-6.665-14.231-14.885-14.231c-8.221,0-14.885,6.37-14.885,14.231
			c0,0.832,0.15,1.451,0.431,2.225c0.131,0.366,2.262-0.8,2.445-0.928c0.906-0.639,1.649-1.505,2.202-2.462
			c0.231-0.398,0.421-0.804,0.575-1.209c0.49-1.292,1.824-4.89,3.177-4.608c1.814,0.38,3.871,0.593,6.055,0.593
			c2.182,0,4.239-0.212,6.054-0.593c1.354-0.282,2.688,3.316,3.178,4.608c0.152,0.405,0.347,0.811,0.575,1.209
			c0.913,1.584,2.46,3.091,4.342,3.366c0.007-0.09,0.122-0.122,0.207-0.152C65.146,40.211,65.061,38.881,65.061,38.388
			L65.061,38.388z M65.061,38.388"/>
		<path fill="#3A312A" d="M65.524,38.547l-0.003-0.159c0-8.103-6.886-14.693-15.346-14.693c-8.461,0-15.347,6.591-15.347,14.693
			c0,0.928,0.175,1.6,0.457,2.383c0.058,0.164,0.192,0.288,0.364,0.343c0.056,0.018,0.121,0.026,0.194,0.026
			c0.821,0,2.571-1.065,2.587-1.076c0.915-0.644,1.721-1.547,2.338-2.611c0.237-0.412,0.44-0.84,0.607-1.275l0.03-0.081
			c1.461-3.858,2.267-4.31,2.619-4.238c1.915,0.4,3.985,0.601,6.15,0.601c2.164,0,4.233-0.201,6.148-0.601
			c0.351-0.072,1.158,0.379,2.62,4.238l0.032,0.081c0.164,0.435,0.368,0.863,0.604,1.276c1.151,1.99,2.9,3.333,4.679,3.592
			c0.128,0.019,0.26-0.018,0.358-0.1c0.028-0.023,0.055-0.049,0.076-0.078C65.553,40.551,65.534,39.248,65.524,38.547L65.524,38.547
			z M64.352,40.01c-0.067,0.022-0.13,0.05-0.184,0.082c-1.426-0.297-2.826-1.439-3.785-3.1c-0.213-0.37-0.396-0.754-0.544-1.141
			l-0.031-0.081c-0.97-2.559-2.168-5.134-3.673-4.816c-1.854,0.386-3.859,0.583-5.959,0.583c-2.102,0-4.106-0.196-5.961-0.583
			c-1.51-0.315-2.703,2.258-3.674,4.815l-0.03,0.082c-0.147,0.388-0.331,0.771-0.543,1.14c-0.548,0.948-1.264,1.75-2.066,2.315
			c-0.241,0.162-1.34,0.726-1.841,0.878c-0.191-0.577-0.307-1.108-0.307-1.796c0-7.592,6.468-13.77,14.423-13.77
			c7.952,0,14.421,6.177,14.421,13.77l0.002,0.173C64.617,39.814,64.43,39.981,64.352,40.01L64.352,40.01z M64.352,40.01"/>
		<rect x="48.891" y="69.059" fill="#D7E057" width="2.569" height="8.552"/>
		<path fill="#3A312A" d="M51.46,68.596h-2.569c-0.255,0-0.462,0.206-0.462,0.463v3.021c0,0.256,0.207,0.462,0.462,0.462
			c0.255,0,0.461-0.206,0.461-0.462v-2.559h1.643v7.628h-1.643v-0.888c0-0.255-0.207-0.462-0.461-0.462
			c-0.255,0-0.462,0.207-0.462,0.462v1.35c0,0.255,0.207,0.462,0.462,0.462h2.569c0.253,0,0.462-0.207,0.462-0.462v-8.552
			C51.922,68.802,51.713,68.596,51.46,68.596L51.46,68.596z M51.46,68.596"/>
		<path fill="#D7E057" d="M41.588,63.742l2.937-2.212l5.665,7.516l-2.937,2.213L41.588,63.742z M41.588,63.742"/>
		<path fill="#3A312A" d="M50.557,68.771l-5.665-7.517c-0.155-0.204-0.444-0.244-0.647-0.092l-2.937,2.215
			c-0.098,0.072-0.163,0.183-0.18,0.302c-0.016,0.122,0.014,0.246,0.089,0.345l5.665,7.515c0.073,0.099,0.183,0.164,0.302,0.181
			c0.023,0.002,0.044,0.004,0.065,0.004c0.101,0,0.199-0.033,0.278-0.094l2.935-2.212C50.67,69.262,50.71,68.973,50.557,68.771
			L50.557,68.771z M47.342,70.612l-5.107-6.776l2.197-1.656l5.107,6.778L47.342,70.612z M47.342,70.612"/>
		<path fill="#D7E057" d="M50.165,69.051l5.663-7.517l2.937,2.213l-5.666,7.517L50.165,69.051z M50.165,69.051"/>
		<path fill="#3A312A" d="M59.22,63.679c-0.017-0.119-0.081-0.229-0.179-0.304l-2.936-2.213c-0.204-0.152-0.492-0.112-0.647,0.092
			l-5.665,7.517c-0.152,0.202-0.112,0.491,0.092,0.646l2.937,2.212c0.084,0.063,0.181,0.094,0.276,0.094
			c0.142,0,0.279-0.063,0.369-0.185l5.666-7.515C59.205,63.925,59.238,63.801,59.22,63.679L59.22,63.679z M53.007,70.612
			l-2.198-1.654l5.109-6.778l2.197,1.656L53.007,70.612z M53.007,70.612"/>
		<path fill="#3A312A" d="M38.583,73.072c-0.256,0-0.461,0.207-0.461,0.462v5.907c0,0.255,0.206,0.462,0.461,0.462
			c0.254,0,0.462-0.207,0.462-0.462v-5.907C39.045,73.279,38.837,73.072,38.583,73.072L38.583,73.072z M38.583,73.072"/>
		<path fill="#3A312A" d="M61.768,73.072c-0.255,0-0.464,0.207-0.464,0.462v5.907c0,0.255,0.209,0.462,0.464,0.462
			c0.254,0,0.462-0.207,0.462-0.462v-5.907C62.229,73.279,62.021,73.072,61.768,73.072L61.768,73.072z M61.768,73.072"/>
		<path fill="#87796F" d="M52.927,50.623c-1.474-1.555-2.929-0.399-2.929,0.664c0,1.064,1.394,2.299,3.612,2.299
			c1.644,0,4.017-1.424,4.017-2.487C57.626,50.033,55.13,52.945,52.927,50.623L52.927,50.623z M52.927,50.623"/>
		<path fill="#3A312A" d="M57.802,50.499c-0.335-0.223-0.722-0.06-1.212,0.147c-0.907,0.381-2.146,0.904-3.328-0.342
			c-0.773-0.815-1.685-1.096-2.506-0.769c-0.718,0.286-1.22,1.006-1.22,1.75c0,1.328,1.559,2.763,4.076,2.763
			c1.81,0,4.479-1.555,4.479-2.952C58.088,50.759,57.933,50.584,57.802,50.499L57.802,50.499z M53.609,53.123
			c-2.028,0-3.15-1.085-3.15-1.837c0-0.362,0.274-0.745,0.64-0.892c0.111-0.045,0.228-0.066,0.347-0.066
			c0.367,0,0.763,0.21,1.146,0.613c1.622,1.71,3.401,0.959,4.357,0.557c0.021-0.008,0.043-0.018,0.063-0.027
			C56.518,52.167,54.914,53.123,53.609,53.123L53.609,53.123z M53.609,53.123"/>
		<path fill="#87796F" d="M47.068,50.623c-2.204,2.323-4.701-0.589-4.701,0.475c0,1.063,2.373,2.487,4.016,2.487
			c2.218,0,3.615-1.234,3.615-2.299C49.998,50.223,48.542,49.068,47.068,50.623L47.068,50.623z M47.068,50.623"/>
		<g>
			<defs>
				<rect id="SVGID_1_" x="24.033" y="16.816" width="44.733" height="63.087"/>
			</defs>
			<clipPath id="SVGID_2_">
				<use xlink:href="#SVGID_1_"  overflow="visible"/>
			</clipPath>
			<path clip-path="url(#SVGID_2_)" fill="#3A312A" d="M49.239,49.537c-0.821-0.327-1.733-0.046-2.506,0.769
				c-1.181,1.246-2.422,0.722-3.328,0.342c-0.491-0.208-0.877-0.371-1.212-0.148c-0.131,0.086-0.287,0.26-0.287,0.599
				c0,1.397,2.671,2.951,4.478,2.951c2.518,0,4.076-1.435,4.076-2.763C50.459,50.542,49.958,49.823,49.239,49.537L49.239,49.537z
				 M46.383,53.123c-1.304,0-2.906-0.956-3.401-1.652c0.022,0.01,0.042,0.02,0.063,0.027c0.957,0.402,2.735,1.153,4.359-0.557
				c0.505-0.534,1.036-0.728,1.491-0.546c0.366,0.146,0.64,0.53,0.64,0.892C49.536,52.038,48.413,53.123,46.383,53.123
				L46.383,53.123z M46.383,53.123"/>
			<path clip-path="url(#SVGID_2_)" fill="#87796F" d="M49.906,18.99c-10.138,5.964-16.022-5.501-16.022-0.271
				c0,1.652,0.666,3.3,1.54,4.799l2.42,3.431c2.44,3.073,5.361,6.35,8.889,7.354c5.681,1.616,15.733-0.399,15.733-8.576
				C62.466,20.499,58.085,14.18,49.906,18.99L49.906,18.99z M49.906,18.99"/>
			<path clip-path="url(#SVGID_2_)" fill="#3A312A" d="M58.75,17.705c-1.75-1.002-4.746-1.66-9.079,0.887
				c-5.874,3.457-10.251,0.831-12.866-0.737c-1.262-0.756-2.094-1.254-2.755-0.88c-0.558,0.315-0.628,1.098-0.628,1.746
				c0,1.536,0.525,3.182,1.603,5.033c0.129,0.22,0.41,0.293,0.63,0.166c0.221-0.129,0.296-0.413,0.167-0.632
				c-0.995-1.706-1.478-3.2-1.478-4.567c0-0.814,0.158-0.94,0.162-0.94c0.192-0.112,1.172,0.479,1.822,0.868
				c2.608,1.564,7.464,4.477,13.813,0.742c3.125-1.839,5.944-2.145,8.15-0.884c2.564,1.467,3.712,4.684,3.712,7.222
				c0,2.573-1.031,4.658-3.063,6.192c-3.395,2.563-8.649,2.917-12.083,1.939c-3.335-0.947-6.13-4.018-8.653-7.196
				c-0.159-0.201-0.449-0.235-0.649-0.075c-0.199,0.158-0.233,0.45-0.075,0.649c2.618,3.298,5.538,6.492,9.124,7.511
				c1.205,0.342,2.618,0.53,4.105,0.53c3.028,0,6.351-0.779,8.787-2.619c2.246-1.697,3.432-4.092,3.432-6.931
				C62.93,22.923,61.637,19.354,58.75,17.705L58.75,17.705z M58.75,17.705"/>
		</g>
		<path fill="#6B5B51" d="M58.292,18.505c-1.37-0.783-2.975-0.961-4.747-0.545c0.459,0.123,0.899,0.309,1.315,0.545
			c2.567,1.466,3.713,4.684,3.713,7.223c0,2.572-1.029,4.655-3.063,6.192c-1.815,1.368-4.159,2.108-6.472,2.348
			c3.225,0.347,7.168-0.281,9.902-2.348c2.032-1.537,3.063-3.62,3.063-6.192C62.004,23.189,60.855,19.972,58.292,18.505
			L58.292,18.505z M58.292,18.505"/>
	</g>
</g>
<g id="Layer_2">
	<circle fill="#C5E1A5" cx="50" cy="50" r="50"/>
	<g>
		<path fill="#87796F" d="M36.458,47.658c-0.175,0.031-0.356,0.046-0.544,0.046c-0.538,0-1.042-0.132-1.487-0.362v19.73
			c1.47-1.373,3.442-2.217,5.613-2.217h5.435v-3.545h0.094C41.683,58.57,38.002,52.908,36.458,47.658L36.458,47.658z M36.458,47.658
			"/>
		<path fill="#3A312A" d="M45.836,60.934c-3.709-2.613-7.382-8.125-8.936-13.405c-0.065-0.226-0.29-0.365-0.521-0.325
			c-0.147,0.026-0.305,0.04-0.464,0.04c-0.448,0-0.876-0.106-1.276-0.311c-0.143-0.075-0.313-0.069-0.451,0.014
			c-0.138,0.083-0.221,0.233-0.221,0.396v19.73c0,0.184,0.108,0.35,0.278,0.424c0.059,0.025,0.122,0.037,0.183,0.037
			c0.115,0,0.228-0.041,0.315-0.123c1.444-1.35,3.324-2.094,5.299-2.094h5.434c0.256,0,0.461-0.203,0.461-0.461V61.59
			c0.032-0.043,0.058-0.088,0.075-0.143C46.07,61.258,46,61.047,45.836,60.934L45.836,60.934z M45.014,64.395H40.04
			c-1.871,0-3.666,0.598-5.152,1.695V48.019c0.399,0.117,0.822,0.163,1.241,0.14c1.624,5.21,5.208,10.585,8.885,13.317V64.395z
			 M45.014,64.395"/>
		<path fill="#87796F" d="M64.168,47.704c-0.179,0-0.35-0.015-0.52-0.043c-1.501,5.267-5.098,10.939-9.041,13.671v3.523h5.435
			c2.17,0,4.145,0.844,5.613,2.217v-19.73C65.211,47.572,64.701,47.704,64.168,47.704L64.168,47.704z M64.168,47.704"/>
		<path fill="#3A312A" d="M65.896,46.947c-0.138-0.084-0.31-0.09-0.452-0.015c-0.524,0.271-1.11,0.374-1.722,0.274
			c-0.231-0.037-0.452,0.103-0.517,0.329c-1.524,5.344-5.165,10.861-8.86,13.418c-0.124,0.086-0.197,0.227-0.197,0.379v3.523
			c0,0.258,0.205,0.465,0.46,0.465h5.435c1.974,0,3.855,0.74,5.298,2.09c0.087,0.082,0.201,0.123,0.315,0.123
			c0.063,0,0.125-0.012,0.185-0.037c0.167-0.072,0.276-0.24,0.276-0.424v-19.73C66.116,47.18,66.032,47.03,65.896,46.947
			L65.896,46.947z M65.194,66.09c-1.486-1.098-3.283-1.695-5.152-1.695h-4.973v-2.826c3.756-2.697,7.286-8.014,8.912-13.408
			c0.407,0.022,0.82-0.027,1.213-0.141V66.09z M65.194,66.09"/>
		<path fill="#87796F" d="M45.569,61.311c1.499,1.055,3.025,1.674,4.474,1.674c1.509,0,3.062-0.613,4.564-1.652v-0.021H45.569z
			 M45.569,61.311"/>
		<path fill="#3A312A" d="M54.607,60.848h-9.038c-0.199,0-0.378,0.129-0.438,0.324c-0.061,0.189,0.009,0.396,0.174,0.514
			c1.658,1.168,3.251,1.76,4.738,1.76c1.541,0,3.166-0.584,4.827-1.734c0.125-0.086,0.199-0.229,0.199-0.379v-0.021
			C55.069,61.055,54.862,60.848,54.607,60.848L54.607,60.848z M50.043,62.523c-0.889,0-1.834-0.254-2.826-0.752h5.753
			C51.957,62.27,50.977,62.523,50.043,62.523L50.043,62.523z M50.043,62.523"/>
		<path fill="#FCE8CB" d="M60.044,64.859h-5.436v-3.549h-9.133v3.549h-5.436c-4.542,0-8.225,3.68-8.225,8.225v7.455h36.457v-7.455
			C68.271,68.539,64.587,64.859,60.044,64.859L60.044,64.859z M60.044,64.859"/>
		<path fill="#3A312A" d="M60.044,64.398h-4.975v-3.088c0-0.256-0.207-0.461-0.461-0.461h-9.133c-0.255,0-0.461,0.205-0.461,0.461
			v3.088h-4.975c-4.789,0-8.686,3.895-8.686,8.686v7.455c0,0.254,0.206,0.461,0.461,0.461h36.457c0.255,0,0.461-0.207,0.461-0.461
			v-7.455C68.731,68.293,64.833,64.398,60.044,64.398L60.044,64.398z M67.81,80.078H32.275v-6.994c0-4.281,3.483-7.764,7.764-7.764
			h5.436c0.256,0,0.461-0.207,0.461-0.461v-3.088h8.211v3.088c0,0.254,0.205,0.461,0.461,0.461h5.436
			c4.281,0,7.766,3.482,7.766,7.764V80.078z M67.81,80.078"/>
		<path fill="#FCE8CB" d="M45.569,61.311c1.499,1.055,3.025,1.674,4.474,1.674c1.509,0,3.062-0.613,4.564-1.652v-0.021H45.569z
			 M45.569,61.311"/>
		<path fill="#3A312A" d="M54.607,60.848h-9.038c-0.199,0-0.378,0.129-0.438,0.324c-0.061,0.189,0.009,0.396,0.174,0.514
			c1.658,1.168,3.251,1.76,4.738,1.76c1.541,0,3.166-0.584,4.827-1.734c0.125-0.086,0.199-0.229,0.199-0.379v-0.021
			C55.069,61.055,54.862,60.848,54.607,60.848L54.607,60.848z M50.043,62.523c-0.889,0-1.834-0.254-2.826-0.752h5.753
			C51.957,62.27,50.977,62.523,50.043,62.523L50.043,62.523z M50.043,62.523"/>
		<rect x="38.4" y="73.273" fill="#F16C7A" width="23.28" height="7.266"/>
		<path fill="#3A312A" d="M61.681,72.813h-3.892c-0.257,0-0.461,0.207-0.461,0.461s0.204,0.461,0.461,0.461h3.431v6.344H38.861
			v-6.344h14.86c0.254,0,0.461-0.207,0.461-0.461s-0.207-0.461-0.461-0.461H38.4c-0.255,0-0.461,0.207-0.461,0.461v7.266
			c0,0.254,0.206,0.461,0.461,0.461h23.28c0.257,0,0.463-0.207,0.463-0.461v-7.266C62.144,73.02,61.938,72.813,61.681,72.813
			L61.681,72.813z M61.681,72.813"/>
		<path fill-rule="evenodd" clip-rule="evenodd" fill="#FCE8CB" d="M39.152,44.467c0,1.788-1.449,3.237-3.235,3.237
			c-1.789,0-3.237-1.449-3.237-3.237s1.448-3.236,3.237-3.236C37.704,41.231,39.152,42.68,39.152,44.467L39.152,44.467z
			 M39.152,44.467"/>
		<path fill="#3A312A" d="M35.917,40.769c-2.041,0-3.698,1.659-3.698,3.698c0,2.039,1.657,3.699,3.698,3.699
			c2.038,0,3.696-1.659,3.696-3.699C39.613,42.428,37.955,40.769,35.917,40.769L35.917,40.769z M35.917,47.244
			c-1.532,0-2.776-1.247-2.776-2.777c0-1.53,1.244-2.776,2.776-2.776c1.53,0,2.774,1.246,2.774,2.776
			C38.691,45.998,37.447,47.244,35.917,47.244L35.917,47.244z M35.917,47.244"/>
		<path fill-rule="evenodd" clip-rule="evenodd" fill="#FCE8CB" d="M65.406,41.477c-1.65-0.685-3.543,0.099-4.228,1.752
			c-0.685,1.651,0.1,3.544,1.751,4.228c1.649,0.683,3.545-0.101,4.229-1.752C67.842,44.054,67.058,42.161,65.406,41.477
			L65.406,41.477z M65.406,41.477"/>
		<path fill="#3A312A" d="M64.168,40.769c-2.04,0-3.699,1.659-3.699,3.698c0,2.039,1.659,3.699,3.699,3.699
			c2.036,0,3.696-1.659,3.696-3.699C67.864,42.428,66.204,40.769,64.168,40.769L64.168,40.769z M64.168,47.244
			c-1.532,0-2.776-1.247-2.776-2.777c0-1.53,1.244-2.776,2.776-2.776c1.529,0,2.773,1.246,2.773,2.776
			C66.941,45.998,65.697,47.244,64.168,47.244L64.168,47.244z M64.168,47.244"/>
		<path fill="#FCE8CB" d="M50.042,28.548c-7.925,0-14.35,6.423-14.35,14.347s7.938,20.089,14.35,20.089
			c6.717,0,14.348-12.165,14.348-20.089S57.966,28.548,50.042,28.548L50.042,28.548z M50.042,28.548"/>
		<path fill="#3A312A" d="M50.042,28.087c-8.166,0-14.811,6.644-14.811,14.809c0,3.86,1.859,8.946,4.852,13.278
			c3.147,4.553,6.869,7.271,9.958,7.271c7.009,0,14.811-12.248,14.811-20.55C64.851,34.73,58.206,28.087,50.042,28.087
			L50.042,28.087z M50.042,62.523c-2.787,0-6.227-2.57-9.2-6.873c-2.892-4.186-4.689-9.072-4.689-12.753
			c0-7.658,6.23-13.888,13.889-13.888c7.656,0,13.887,6.23,13.887,13.888C63.929,50.645,56.48,62.523,50.042,62.523L50.042,62.523z
			 M50.042,62.523"/>
		<path fill="#3A312A" d="M44.976,41.334c-0.774,0-1.4,0.627-1.4,1.4c0,0.773,0.626,1.401,1.4,1.401c0.774,0,1.4-0.627,1.4-1.401
			C46.376,41.961,45.75,41.334,44.976,41.334L44.976,41.334z M44.976,41.334"/>
		<path fill="#3A312A" d="M55.108,41.334c-0.775,0-1.4,0.627-1.4,1.4c0,0.773,0.625,1.401,1.4,1.401c0.772,0,1.4-0.627,1.4-1.401
			C56.509,41.961,55.881,41.334,55.108,41.334L55.108,41.334z M55.108,41.334"/>
		<path fill="#F5978A" d="M42.176,45.095c-1.332,0-2.412,0.809-2.412,1.803c0,0.996,1.081,1.803,2.412,1.803
			s2.412-0.807,2.412-1.803C44.588,45.903,43.508,45.095,42.176,45.095L42.176,45.095z M42.176,45.095"/>
		<path fill="#F5978A" d="M57.905,45.095c-1.332,0-2.411,0.809-2.411,1.803c0,0.996,1.079,1.803,2.411,1.803
			s2.414-0.807,2.414-1.803C60.319,45.903,59.239,45.095,57.905,45.095L57.905,45.095z M57.905,45.095"/>
		<path fill="#CCAE8B" d="M54.16,64.859v-2.703c-1.36,0.807-2.757,1.279-4.117,1.279c-1.355,0-2.752-0.492-4.117-1.328v2.752
			c0,0.139-0.064,0.266-0.166,0.348c1.426,1.002,2.886,1.596,4.283,1.596c1.425,0,2.896-0.58,4.323-1.566
			C54.24,65.154,54.16,65.016,54.16,64.859L54.16,64.859z M54.16,64.859"/>
		<path fill="#3A312A" d="M54.1,51.766c-0.239-0.09-0.504,0.031-0.595,0.271c-0.279,0.748-1.377,2.164-3.524,2.164
			c-1.679,0-2.837-0.721-3.542-2.201c-0.109-0.23-0.385-0.328-0.615-0.219c-0.23,0.109-0.328,0.385-0.219,0.615
			c0.861,1.811,2.333,2.727,4.375,2.727c2.305,0,3.89-1.432,4.388-2.762C54.459,52.121,54.338,51.855,54.1,51.766L54.1,51.766z
			 M54.1,51.766"/>
		<path fill="#87796F" d="M69.359,40.644c-0.261-1.692-0.649-3.358-1.257-4.971c-2.82-7.525-8.15-13.29-16.223-14.228
			c0.396,2.886,0.979,5.756,2.242,8.374c0.866,1.796,2.032,3.435,3.286,4.988c3.439,4.27,7.646,8.023,12.414,10.691
			C69.733,43.869,69.606,42.243,69.359,40.644L69.359,40.644z M69.359,40.644"/>
		<path fill="#3A312A" d="M69.815,40.575c-0.289-1.886-0.709-3.542-1.28-5.062c-3.183-8.493-9.079-13.651-16.602-14.525
			c-0.143-0.017-0.282,0.034-0.385,0.135c-0.098,0.102-0.145,0.244-0.126,0.385c0.356,2.609,0.906,5.659,2.282,8.511
			c0.764,1.583,1.825,3.197,3.343,5.077c3.63,4.508,7.97,8.243,12.549,10.805c0.07,0.04,0.148,0.058,0.226,0.058
			c0.085,0,0.169-0.023,0.243-0.07c0.144-0.089,0.225-0.249,0.216-0.416C70.207,44.114,70.087,42.331,69.815,40.575L69.815,40.575z
			 M57.766,34.518c-1.472-1.825-2.499-3.382-3.229-4.9c-1.217-2.522-1.764-5.239-2.113-7.637c6.878,1.033,12.277,5.93,15.249,13.855
			c0.549,1.46,0.952,3.057,1.233,4.878c0.21,1.373,0.329,2.771,0.405,3.958C65.106,42.187,61.127,38.691,57.766,34.518
			L57.766,34.518z M57.766,34.518"/>
		<path fill="#87796F" d="M49.505,21.306c-9.897,0-19.48,8.311-19.24,18.544c0.021,1.042,0.098,2.088,0.219,3.13
			c10.579-4.572,20.897-10.503,27.986-19.43C55.912,22.114,52.927,21.306,49.505,21.306L49.505,21.306z M49.505,21.306"/>
		<path fill="#3A312A" d="M58.925,23.462c-0.028-0.134-0.109-0.248-0.229-0.313c-2.722-1.529-5.815-2.304-9.191-2.304
			c-5.22,0-10.612,2.33-14.425,6.232c-3.511,3.593-5.385,8.133-5.276,12.783c0.021,1.022,0.095,2.09,0.221,3.173
			c0.018,0.144,0.103,0.272,0.229,0.346c0.071,0.041,0.151,0.062,0.23,0.062c0.063,0,0.125-0.013,0.184-0.038
			C43.781,37.736,52.73,31.52,58.832,23.838C58.915,23.732,58.95,23.595,58.925,23.462L58.925,23.462z M30.875,42.307
			c-0.082-0.841-0.133-1.668-0.15-2.467c-0.101-4.401,1.68-8.704,5.014-12.118c3.644-3.729,8.789-5.954,13.767-5.954
			c3.018,0,5.794,0.648,8.26,1.927C51.861,30.943,43.29,36.877,30.875,42.307L30.875,42.307z M30.875,42.307"/>
		<path fill="#6B5B51" d="M55.239,22.625c-5.595,6.562-13.469,12.039-24.524,17.058v0.005c-0.004,0.05,0,0.104,0,0.153
			c0.014,0.803,0.067,1.638,0.154,2.482c12.428-5.432,21.009-11.374,26.914-18.633C56.97,23.267,56.12,22.912,55.239,22.625
			L55.239,22.625z M55.239,22.625"/>
		<path fill="#6B5B51" d="M69.015,41.411c-0.004-0.002-0.01-0.006-0.013-0.009c-0.031-0.23-0.063-0.458-0.097-0.689
			c-0.281-1.819-0.684-3.415-1.233-4.877c-2.015-5.374-5.146-9.352-9.097-11.682c-0.277,0.34-0.559,0.682-0.85,1.018
			c3.232,2.394,5.818,6.007,7.564,10.664c0.547,1.462,0.949,3.058,1.231,4.877c0.034,0.231,0.067,0.458,0.096,0.689
			c0.006,0.003,0.009,0.006,0.017,0.009c0.072,0.563,0.135,1.12,0.184,1.66c0.824,0.584,1.663,1.123,2.509,1.624
			C69.264,43.702,69.17,42.561,69.015,41.411L69.015,41.411z M69.015,41.411"/>
		<path fill-rule="evenodd" clip-rule="evenodd" fill="#F16C7A" d="M31.916,21.839c-1.629-1.188-3.617-1.237-4.442-0.107
			c-0.824,1.129-0.17,3.007,1.458,4.195c1.63,1.189,3.618,1.237,4.441,0.109C34.198,24.905,33.546,23.028,31.916,21.839
			L31.916,21.839z M31.916,21.839"/>
		<path fill="#3A312A" d="M32.188,21.466c-1.832-1.337-4.113-1.339-5.083-0.006c-0.491,0.672-0.582,1.56-0.255,2.499
			c0.306,0.88,0.95,1.711,1.813,2.341c0.864,0.63,1.851,0.989,2.783,1.012c0.031,0,0.063,0,0.094,0c0.952,0,1.733-0.355,2.207-1.006
			C34.718,24.974,34.019,22.803,32.188,21.466L32.188,21.466z M33.002,25.763c-0.307,0.42-0.853,0.644-1.535,0.626
			c-0.747-0.019-1.55-0.315-2.262-0.835c-0.713-0.521-1.24-1.195-1.485-1.899c-0.225-0.646-0.178-1.233,0.128-1.652
			c0.304-0.418,0.836-0.623,1.461-0.623c0.729,0,1.583,0.281,2.336,0.831C33.041,23.23,33.662,24.857,33.002,25.763L33.002,25.763z
			 M33.002,25.763"/>
		<g>
			<defs>
				<rect id="SVGID_3_" x="24.264" y="18.333" width="46.038" height="62.667"/>
			</defs>
			<clipPath id="SVGID_4_">
				<use xlink:href="#SVGID_3_"  overflow="visible"/>
			</clipPath>
			<path clip-path="url(#SVGID_4_)" fill-rule="evenodd" clip-rule="evenodd" fill="#F16C7A" d="M36.309,18.88
				c-1.329-0.434-2.915,0.767-3.541,2.684c-0.626,1.917-0.058,3.822,1.269,4.257c1.33,0.433,2.915-0.768,3.542-2.684
				C38.205,21.221,37.637,19.314,36.309,18.88L36.309,18.88z M36.309,18.88"/>
			<path clip-path="url(#SVGID_4_)" fill="#3A312A" d="M38.118,20.321c-0.284-0.953-0.875-1.621-1.667-1.879
				c-1.566-0.512-3.416,0.823-4.121,2.979c-0.705,2.154-0.002,4.325,1.564,4.838c0.23,0.075,0.469,0.114,0.71,0.114
				c0.583,0,1.184-0.219,1.745-0.645c0.742-0.562,1.335-1.432,1.666-2.448C38.349,22.265,38.385,21.214,38.118,20.321L38.118,20.321
				z M37.141,22.993c-0.275,0.839-0.753,1.549-1.348,2c-0.544,0.413-1.118,0.55-1.611,0.389c-1.066-0.349-1.512-2.032-0.976-3.674
				c0.472-1.438,1.566-2.455,2.546-2.455c0.141,0,0.28,0.022,0.413,0.065c0.496,0.161,0.875,0.611,1.07,1.265
				C37.448,21.299,37.415,22.155,37.141,22.993L37.141,22.993z M37.141,22.993"/>
		</g>
		<path fill-rule="evenodd" clip-rule="evenodd" fill="#F16C7A" d="M38.104,23.864c-2.017-0.004-3.654,1.125-3.657,2.523
			s1.629,2.533,3.646,2.537c2.017,0.005,3.655-1.125,3.656-2.523C41.752,25.003,40.121,23.867,38.104,23.864L38.104,23.864z
			 M38.104,23.864"/>
		<path fill="#3A312A" d="M40.947,24.23c-0.764-0.532-1.774-0.827-2.843-0.828h-0.012c-2.26,0-4.103,1.336-4.107,2.983
			c-0.002,1.65,1.839,2.995,4.107,2.999h0.012c1.063,0,2.069-0.29,2.834-0.817c0.818-0.564,1.27-1.334,1.271-2.165
			C42.212,25.57,41.763,24.799,40.947,24.23L40.947,24.23z M41.289,26.4c-0.002,0.52-0.312,1.02-0.875,1.408
			c-0.613,0.423-1.442,0.67-2.319,0.654c-1.73-0.003-3.188-0.954-3.187-2.075c0.002-1.121,1.46-2.063,3.185-2.063h0.008
			c0.883,0.002,1.707,0.237,2.319,0.663C40.982,25.377,41.289,25.88,41.289,26.4L41.289,26.4z M41.289,26.4"/>
		<path fill-rule="evenodd" clip-rule="evenodd" fill="#F16C7A" d="M37.566,29.647c-0.619-1.919-2.2-3.125-3.529-2.697
			c-1.332,0.43-1.907,2.333-1.287,4.252c0.619,1.919,2.2,3.126,3.529,2.698C37.608,33.47,38.185,31.566,37.566,29.647L37.566,29.647
			z M37.566,29.647"/>
		<path fill="#3A312A" d="M38.004,29.506c-0.696-2.158-2.54-3.501-4.109-2.994c-0.793,0.255-1.386,0.921-1.674,1.873
			c-0.271,0.891-0.238,1.943,0.088,2.959c0.599,1.85,2.038,3.101,3.426,3.101c0.231,0,0.46-0.034,0.685-0.107
			c0.791-0.254,1.386-0.92,1.675-1.872C38.365,31.574,38.333,30.522,38.004,29.506L38.004,29.506z M37.213,32.199
			c-0.198,0.654-0.581,1.102-1.076,1.261c-1.066,0.345-2.418-0.754-2.949-2.399c-0.27-0.84-0.301-1.695-0.085-2.41
			c0.199-0.653,0.582-1.101,1.076-1.261c0.133-0.043,0.269-0.064,0.409-0.064c0.98,0,2.074,1.022,2.54,2.464
			C37.397,30.628,37.428,31.484,37.213,32.199L37.213,32.199z M37.213,32.199"/>
		<path fill-rule="evenodd" clip-rule="evenodd" fill="#F16C7A" d="M33.371,26.734c-0.817-1.133-2.805-1.093-4.439,0.089
			c-1.635,1.182-2.293,3.059-1.477,4.19c0.82,1.132,2.808,1.093,4.442-0.089S34.191,27.866,33.371,26.734L33.371,26.734z
			 M33.371,26.734"/>
		<path fill="#3A312A" d="M33.746,26.463c-0.966-1.337-3.248-1.343-5.084-0.014c-1.837,1.33-2.545,3.499-1.579,4.833
			c0.475,0.656,1.259,1.014,2.221,1.014c0.025,0,0.051,0,0.077,0c0.932-0.019,1.922-0.374,2.787-1
			c0.866-0.625,1.513-1.454,1.822-2.334C34.32,28.024,34.234,27.137,33.746,26.463L33.746,26.463z M33.12,28.656
			c-0.247,0.704-0.777,1.376-1.492,1.893c-0.715,0.518-1.519,0.81-2.265,0.826c-0.68,0.012-1.227-0.211-1.532-0.632v0
			c-0.658-0.908-0.029-2.531,1.371-3.545c0.752-0.545,1.6-0.822,2.329-0.822c0.626,0,1.164,0.207,1.469,0.629
			C33.304,27.425,33.347,28.012,33.12,28.656L33.12,28.656z M33.12,28.656"/>
		<path fill-rule="evenodd" clip-rule="evenodd" fill="#D7E057" d="M34.576,25.396c-0.546-0.399-1.313-0.278-1.712,0.268
			c-0.398,0.546-0.28,1.312,0.268,1.711c0.547,0.398,1.314,0.278,1.711-0.268C35.243,26.56,35.122,25.794,34.576,25.396
			L34.576,25.396z M34.576,25.396"/>
		<path fill="#3A312A" d="M35.52,26.125c-0.07-0.445-0.309-0.836-0.672-1.101c-0.363-0.267-0.811-0.375-1.255-0.305
			c-0.444,0.069-0.836,0.308-1.101,0.672c-0.547,0.751-0.381,1.808,0.368,2.355c0.292,0.213,0.637,0.324,0.991,0.324
			c0.088,0,0.177-0.007,0.265-0.021c0.444-0.069,0.834-0.307,1.1-0.671C35.482,27.014,35.59,26.569,35.52,26.125L35.52,26.125z
			 M34.47,26.835c-0.12,0.164-0.298,0.272-0.498,0.304c-0.203,0.032-0.403-0.017-0.57-0.138c-0.338-0.248-0.413-0.727-0.166-1.067
			c0.121-0.166,0.298-0.273,0.5-0.305c0.201-0.031,0.403,0.018,0.569,0.139c0.163,0.12,0.272,0.296,0.304,0.498
			C34.64,26.468,34.591,26.67,34.47,26.835L34.47,26.835z M34.47,26.835"/>
	</g>
</g>
</svg>
